<svg width="30" height="31" viewBox="0 0 30 31" fill="none" xmlns="http://www.w3.org/2000/svg">
<path d="M22.5 10.0537C22.5 8.06459 21.7098 6.15693 20.3033 4.75041C18.8968 3.34389 16.9891 2.55371 15 2.55371C13.0109 2.55371 11.1032 3.34389 9.6967 4.75041C8.29018 6.15693 7.5 8.06459 7.5 10.0537C7.5 18.8037 3.75 21.3037 3.75 21.3037H26.25C26.25 21.3037 22.5 18.8037 22.5 10.0537Z" stroke="#737373" stroke-width="2" stroke-linecap="round" stroke-linejoin="round"/>
<path d="M17.1624 26.3037C16.9426 26.6826 16.6272 26.997 16.2477 27.2156C15.8682 27.4342 15.4379 27.5493 14.9999 27.5493C14.5619 27.5493 14.1316 27.4342 13.7521 27.2156C13.3726 26.997 13.0572 26.6826 12.8374 26.3037" stroke="#737373" stroke-width="2" stroke-linecap="round" stroke-linejoin="round"/>
</svg>
