<svg width="375" height="450" viewBox="0 0 375 450" fill="none" xmlns="http://www.w3.org/2000/svg">
<rect width="375" height="450" fill="white"/>
<path fill-rule="evenodd" clip-rule="evenodd" d="M70.1309 329.363C92.7659 358.929 180.297 341.946 237.931 341.946C262.796 341.946 346.236 356.9 311.78 254.201C198.804 -82.5317 -1.58829 235.68 70.1309 329.363Z" fill="#90D1AB"/>
<path fill-rule="evenodd" clip-rule="evenodd" d="M170.281 331.741C170.391 331.64 170.506 331.53 170.554 331.374C170.708 330.873 170.105 330.54 169.66 330.552C169.015 330.57 168.188 331.091 168.385 331.829C168.5 332.255 168.937 332.453 169.305 332.374C169.673 332.296 169.984 332.014 170.281 331.741H170.281ZM172.199 322.961C172.686 323.145 173.167 323.371 173.591 323.712C174.388 324.352 174.93 325.346 175.45 326.313C175.823 327.006 176.201 327.712 176.387 328.506C176.589 329.366 176.553 330.284 176.418 331.163C175.997 333.899 174.59 336.396 172.63 337.884C170.67 339.371 168.186 339.826 165.946 339.109C165.51 338.969 165.07 338.779 164.735 338.416C164.453 338.112 164.263 337.706 164.089 337.301C163.176 335.178 162.561 332.819 162.631 330.431C162.702 328.043 163.52 325.627 165.069 324.127C167.013 322.243 169.815 322.064 172.199 322.961" fill="white"/>
<path fill-rule="evenodd" clip-rule="evenodd" d="M275.098 193.068C274.03 193.051 273.028 194.126 272.922 195.402C272.879 195.924 273.064 196.572 273.496 196.643C273.82 196.697 274.105 196.397 274.322 196.104C274.783 195.484 275.179 194.795 275.497 194.058C275.604 193.81 275.698 193.493 275.558 193.271C275.456 193.109 275.268 193.07 275.098 193.068ZM274.636 187.347C276.153 187.982 277.528 189.099 278.583 190.554C279.489 191.804 280.18 193.426 279.989 195.068C279.919 195.67 279.734 196.245 279.523 196.798C278.723 198.892 277.346 200.899 275.456 201.305C274.465 201.518 273.443 201.263 272.489 200.873C271.386 200.423 270.335 199.792 269.374 199.002C268.864 198.583 268.358 198.086 268.134 197.395C267.98 196.919 267.975 196.394 267.981 195.883C267.995 194.619 268.065 193.334 268.432 192.15C268.897 190.651 269.806 189.414 270.77 188.31C271.157 187.866 271.568 187.428 272.066 187.19C272.881 186.801 273.808 187 274.636 187.347Z" fill="white"/>
<path fill-rule="evenodd" clip-rule="evenodd" d="M275.1 96.1727C281.377 103.941 286.331 113.229 289.574 123.31C289.797 124.002 290.013 124.771 289.801 125.468C288.165 130.834 285.007 135.308 281.911 139.658C279.933 142.437 277.954 145.217 275.976 147.997C274.087 150.65 272.198 153.304 270.246 155.891C260.305 169.062 248.559 180.579 234.956 187.665C234.442 187.932 233.891 188.199 233.339 188.092C232.786 187.985 232.268 187.343 232.412 186.697C234.094 179.181 235.787 171.323 234.437 163.712C234.112 161.876 233.749 159.564 235.018 158.459C245.292 149.515 252.689 136.731 259.779 124.12C261.561 120.949 263.339 117.77 264.917 114.447C267.717 108.548 269.874 102.212 271.316 95.6519C271.513 94.7516 272.464 94.3462 273.217 94.5822C273.971 94.8181 274.559 95.5032 275.1 96.1727" fill="white"/>
<path fill-rule="evenodd" clip-rule="evenodd" d="M79.347 126.35C80.3675 137.421 83.2078 148.246 87.6571 158.022C90.4119 164.074 93.7626 169.702 97.1045 175.313C99.4299 179.217 101.917 183.286 105.545 185.303C106.51 185.84 106.375 187.509 106.116 188.747C104.997 194.096 104.475 199.625 104.568 205.139C104.577 205.66 104.588 206.2 104.418 206.679C103.839 208.306 101.855 208.035 100.489 207.37C92.0383 203.253 85.5503 194.974 79.4895 186.796C71.6204 176.177 63.8685 165.093 59.2199 152.024C58.9038 151.135 58.5972 150.2 58.65 149.236C58.7039 148.254 59.1244 147.361 59.551 146.52C63.7651 138.215 69.6276 131.122 76.5148 125.998C76.9999 125.637 77.5178 125.276 78.0882 125.252C78.6586 125.228 79.2842 125.669 79.347 126.35Z" fill="white"/>
<path fill-rule="evenodd" clip-rule="evenodd" d="M273.868 320.565C274.596 319.084 275.499 317.453 276.913 317.172C277.47 317.062 277.764 316.335 277.954 315.696C280.29 307.831 280.516 299.084 278.588 291.06C278.038 288.77 278.715 286.342 279.385 284.098C281.115 278.308 282.845 272.517 284.575 266.727C283.584 264.67 280.971 264.731 279.632 262.98C277.909 260.727 279.209 257.145 280.558 254.552C288.442 239.4 296.327 224.248 304.211 209.097C305.177 207.24 307.296 206.658 309.073 207.153C310.849 207.648 312.367 208.989 313.828 210.299C319.578 215.453 325.328 220.607 331.078 225.761C334.165 228.527 337.571 232.06 337.394 236.677C337.295 239.233 336.077 241.504 334.898 243.635C330.341 251.875 325.784 260.116 321.227 268.356C318.66 272.999 319.368 279.096 318.593 284.589C317.367 293.269 312.407 300.397 307.814 307.262C303.221 314.126 298.625 321.792 298.367 330.59C298.059 341.076 293.908 351.317 287.223 358.081C289.162 352.436 276.913 354.688 262.9 347.997C265.206 338.209 269.56 329.325 273.868 320.565Z" fill="white"/>
<path fill-rule="evenodd" clip-rule="evenodd" d="M120.005 345.114C119.131 344.256 118.853 342.808 118.699 341.462C116.914 325.893 124.578 310.525 123.213 294.894C122.509 286.838 119.425 279.322 115.543 272.712C112.863 268.147 112.713 262.031 113.713 256.569C114.713 251.107 116.73 246 118.091 240.652C124.141 216.872 116.779 191.468 109.5 168.193C124.004 159.777 140.929 161.407 156.998 162.547C173.066 163.688 190.347 163.768 203.739 153C205.574 176.295 201.527 199.616 197.502 222.507C217.923 220.119 238.344 217.732 258.764 215.345C259.35 215.276 259.99 215.223 260.477 215.622C261.126 216.155 261.226 217.24 261.263 218.186C262.218 242.412 262.796 266.659 262.999 290.912C263.004 291.52 262.986 292.198 262.631 292.629C262.327 292.999 261.862 293.076 261.433 293.133C232.823 296.959 204.213 300.785 175.603 304.611C173.129 304.942 169.604 304.169 169.749 301.172C170.395 287.809 170.018 274.374 168.624 261.095C161.021 260.75 153.366 262.141 146.185 265.173C144.555 265.861 142.596 267.711 143.475 269.503C149.288 281.357 142.073 299.176 149.968 309.127C152.683 312.549 152.496 317.931 151.958 322.622C150.804 332.677 148.845 342.598 146.116 352.2C147.435 341.148 120.811 351.041 120.005 345.114Z" fill="white"/>
<path fill-rule="evenodd" clip-rule="evenodd" d="M38.1729 94.2162C38.1973 94.4522 38.0909 94.7001 37.9165 94.8131C37.7777 94.6464 37.6388 94.4797 37.5 94.313C37.7082 94.2038 37.9442 94.1726 38.1672 94.225L38.1729 94.2162Z" fill="#00160A"/>
<path fill-rule="evenodd" clip-rule="evenodd" d="M171.699 322.961C172.186 323.145 172.667 323.371 173.091 323.712C173.888 324.352 174.43 325.346 174.95 326.313C175.323 327.006 175.701 327.712 175.887 328.506C176.089 329.366 176.053 330.284 175.918 331.163C175.497 333.899 174.09 336.396 172.13 337.884C170.17 339.371 167.686 339.826 165.446 339.109C165.01 338.969 164.57 338.779 164.235 338.416C163.953 338.112 163.763 337.706 163.589 337.301C162.676 335.178 162.061 332.819 162.131 330.431C162.202 328.043 163.02 325.627 164.569 324.127C166.513 322.243 169.315 322.064 171.699 322.961M168.966 337.177C170.185 336.955 171.258 336 171.958 334.783C172.659 333.566 173.018 332.106 173.191 330.641C173.289 329.805 173.298 328.846 172.806 328.242C172.512 327.881 172.091 327.719 171.687 327.574C170.172 327.03 168.442 326.568 167.085 327.542C166.097 328.252 165.546 329.567 165.046 330.812C164.461 332.271 164.606 334.111 165.407 335.413C166.209 336.714 167.633 337.42 168.966 337.177V337.177Z" fill="#00160A"/>
<path fill-rule="evenodd" clip-rule="evenodd" d="M227.37 257.273C227.391 256.962 227.422 256.63 227.593 256.396C227.76 256.167 228.024 256.085 228.271 256.016C234.638 254.237 241.214 253.541 247.742 253.955C248.574 254.008 249.643 254.346 249.698 255.342C250.013 261.058 250.329 266.773 250.644 272.489C250.66 272.778 250.668 273.099 250.514 273.322C250.388 273.504 250.185 273.574 249.995 273.633C243.205 275.758 236.048 276.176 229.118 274.855C228.94 274.821 228.752 274.781 228.613 274.642C228.446 274.473 228.387 274.199 228.339 273.944C227.318 268.488 226.989 262.846 227.37 257.273ZM228.871 266.754C228.996 268.912 229.373 271.049 229.988 273.083C230.602 273.189 231.209 273.342 231.82 273.466C237.086 274.536 242.472 273.46 247.738 272.384C248.111 272.308 248.521 272.207 248.752 271.846C248.987 271.477 248.956 270.964 248.913 270.502C248.732 268.533 248.551 266.563 248.369 264.594C248.355 264.435 248.336 264.265 248.246 264.146C248.138 264.003 247.96 263.98 247.799 263.967C244.057 263.671 240.302 264.006 236.563 264.341C234.496 264.526 232.429 264.712 230.362 264.897C229.876 264.94 229.324 265.026 229.045 265.505C228.839 265.858 228.846 266.324 228.871 266.754ZM228.929 258.517C228.602 259.775 228.543 261.133 228.76 262.426C228.799 262.658 228.854 262.903 229.001 263.061C229.218 263.296 229.551 263.257 229.84 263.206C233.362 262.587 236.921 262.28 240.481 262.287C240.983 262.288 241.137 261.477 241.131 260.874C241.123 259.992 241.115 259.109 241.107 258.226C241.102 257.715 241.081 257.152 240.79 256.78C240.439 256.333 239.854 256.347 239.344 256.393C238.165 256.501 236.986 256.61 235.807 256.718C235.243 256.769 233.747 257.229 233.059 257.283C231.862 257.513 230.665 257.742 229.468 257.971C229.34 257.995 229.206 258.024 229.107 258.124C229.012 258.222 228.967 258.372 228.929 258.517ZM244.717 262.357C245.653 262.371 246.59 262.259 247.505 262.023C247.723 261.966 247.952 261.895 248.107 261.703C248.335 261.422 248.333 260.981 248.316 260.589C248.268 259.451 248.22 258.312 248.171 257.174C248.154 256.768 248.116 256.311 247.851 256.057C247.619 255.833 247.29 255.847 246.993 255.871C245.953 255.956 244.912 256.041 243.872 256.126C243.707 256.139 243.534 256.156 243.396 256.265C243.144 256.465 243.106 256.884 243.099 257.246C243.076 258.453 243.117 259.661 243.222 260.861C243.253 261.208 243.295 261.574 243.474 261.85C243.753 262.279 244.264 262.35 244.717 262.357Z" fill="#FFB61D"/>
<path fill-rule="evenodd" clip-rule="evenodd" d="M243.664 232.296C245.055 231.574 246.762 231.815 247.974 232.907C249.187 233.998 249.858 235.897 249.669 237.701C250.521 237.149 251.602 236.604 252.397 237.268C253.295 238.018 253.09 239.632 252.955 240.935C252.72 243.211 253.025 245.564 253.827 247.647C254.158 248.507 254.443 249.812 253.708 250.159C253.584 250.217 253.449 250.231 253.316 250.243C244.701 251.077 236.086 251.91 227.471 252.743C227.235 252.766 226.971 252.778 226.792 252.591C226.61 252.401 226.587 252.076 226.577 251.786C226.494 249.355 226.412 246.923 226.329 244.491C226.307 243.839 226.296 243.136 226.603 242.597C227.111 241.705 228.176 241.708 229.065 241.537C229.954 241.366 230.988 240.466 230.646 239.467C230.264 238.353 231.564 237.539 232.557 237.357C233.549 237.176 234.865 236.466 234.564 235.317C234.236 234.062 235.676 233.283 236.762 233.11C237.529 232.987 238.331 232.869 239.059 233.185C239.786 233.501 240.401 234.399 240.237 235.307C240.05 236.345 241.104 237.313 241.935 236.946C242.767 236.579 243.103 235.216 242.683 234.281C242.339 233.517 243.001 232.641 243.664 232.296ZM248.113 248.32C247.791 247.603 247.789 246.749 247.786 245.935C247.772 242.11 247.576 238.287 247.199 234.489C247.18 234.297 247.15 234.083 247.02 233.971C246.907 233.874 246.755 233.885 246.617 233.901C245.944 233.976 245.147 234.155 244.881 234.901C244.767 235.219 244.781 235.578 244.796 235.924C244.967 239.757 245.137 243.59 245.308 247.423C245.324 247.78 245.363 248.19 245.611 248.39C245.745 248.498 245.915 248.519 246.077 248.529C246.759 248.574 247.447 248.503 248.113 248.32ZM236.526 242.426C236.443 243.065 236.325 243.699 236.294 244.344C236.242 245.423 236.431 246.495 236.619 247.551C236.74 248.228 237.47 248.562 238.004 248.301C238.539 248.039 238.862 247.355 238.951 246.67C239.039 245.986 238.935 245.29 238.844 244.606C238.487 241.918 238.333 239.192 238.383 236.472C238.396 235.783 237.836 235.162 237.265 235.23C236.694 235.297 236.248 236.039 236.373 236.711C236.721 238.582 236.774 240.532 236.526 242.426ZM242.192 238.755C241.856 238.227 241.086 238.509 240.824 239.093C240.562 239.678 240.642 240.388 240.707 241.048C240.877 242.77 240.893 244.514 240.755 246.241C240.715 246.75 240.67 247.306 240.904 247.733C241.264 248.39 242.054 248.384 242.707 248.305C242.911 248.28 243.146 248.232 243.249 248.019C243.321 247.87 243.304 247.685 243.285 247.515C242.984 244.836 242.683 242.158 242.382 239.479C242.354 239.225 242.321 238.959 242.192 238.755ZM249.654 239.906C249.401 240.32 249.348 240.86 249.326 241.372C249.25 243.131 249.444 244.888 249.638 246.633C249.714 247.321 249.976 248.205 250.553 248.158C251.138 248.11 251.29 247.172 251.277 246.469C251.241 244.607 251.205 242.746 251.169 240.884C251.159 240.395 251.116 239.828 250.778 239.555C250.423 239.268 249.907 239.492 249.654 239.906ZM231.996 239.467C231.996 239.467 232.252 241.896 232.342 243.134C232.454 244.688 232.598 246.239 232.771 247.785C232.797 248.009 232.83 248.252 232.968 248.407C233.208 248.675 234.131 248.497 234.301 248.161C234.471 247.826 234.461 247.407 234.447 247.015C234.4 245.774 234.353 244.533 234.306 243.292C234.256 241.962 233.992 239.093 233.992 239.093M228.647 248.264C228.721 248.542 228.808 248.833 228.996 249.019C229.362 249.383 229.955 249.158 230.244 248.705C230.532 248.252 230.597 247.656 230.652 247.09C230.72 246.395 230.786 245.673 230.598 245.011C230.411 244.349 229.892 243.766 229.311 243.828C228.777 243.884 228.364 244.47 228.239 245.095C228.115 245.721 228.22 246.377 228.349 247.001C228.437 247.426 228.537 247.847 228.647 248.264Z" fill="#E7EAEE"/>
<path fill-rule="evenodd" clip-rule="evenodd" d="M263.57 148.777C262.875 150.03 262.121 151.299 261.044 152.073C259.968 152.846 258.482 152.997 257.515 152.038C256.448 150.98 256.382 149.072 256.467 147.415C256.499 146.776 256.542 146.133 256.694 145.52C256.959 144.458 257.536 143.551 258.138 142.71C258.869 141.69 259.679 140.705 260.693 140.131C261.707 139.557 262.967 139.456 263.917 140.171C265.054 141.026 265.475 142.845 265.26 144.434C265.044 146.024 264.314 147.437 263.57 148.777M261.361 150.103C262.238 148.982 262.991 147.72 263.592 146.362C263.987 145.469 264.324 144.497 264.308 143.486C264.292 142.474 263.848 141.416 263.065 141.041C262.045 140.552 260.925 141.334 260.073 142.165C259.466 142.757 258.878 143.406 258.489 144.22C258.243 144.734 258.083 145.3 257.925 145.862C257.625 146.926 257.321 148.033 257.435 149.147C257.549 150.261 258.214 151.38 259.144 151.495C260.005 151.602 260.769 150.86 261.361 150.103Z" fill="#FFB61D"/>
<path fill-rule="evenodd" clip-rule="evenodd" d="M84.3995 162.937C85.4891 164.262 86.3886 165.811 87.0465 167.496C87.7078 169.19 87.0411 171.367 85.7434 172.403C84.4457 173.439 82.6912 173.426 81.2682 172.662C79.8453 171.898 78.7272 170.473 77.9036 168.885C77.2828 167.688 76.8013 166.346 76.7497 164.937C76.6981 163.528 77.1304 162.046 78.0591 161.182C78.9985 160.308 80.3193 160.183 81.4553 160.602C82.5913 161.022 83.5645 161.922 84.3995 162.937M80.1481 162.132C79.2053 162.015 78.3678 163.054 78.2061 164.174C78.0443 165.295 78.4003 166.432 78.861 167.426C79.8599 169.581 81.6423 171.496 83.6951 171.377C84.7503 171.315 85.907 170.438 85.8883 169.171C85.8802 168.622 85.6548 168.117 85.4298 167.64C84.8318 166.372 84.186 165.118 83.3236 164.093C82.4611 163.068 81.3554 162.281 80.1481 162.132Z" fill="#FFB61D"/>
<path fill-rule="evenodd" clip-rule="evenodd" d="M166.786 329.672C167.543 328.982 168.485 328.535 169.433 328.608C170.382 328.682 171.321 329.335 171.717 330.371C172.143 331.484 171.878 332.866 171.214 333.795C170.549 334.724 169.548 335.237 168.538 335.406C167.848 335.522 167.026 335.418 166.649 334.716C166.466 334.377 166.425 333.96 166.388 333.559C166.323 332.84 166.257 332.121 166.191 331.401C166.163 331.097 166.136 330.78 166.218 330.49C166.314 330.148 166.547 329.89 166.786 329.672M169.781 331.741C169.891 331.639 170.006 331.53 170.054 331.373C170.208 330.873 169.605 330.54 169.16 330.552C168.515 330.569 167.688 331.091 167.885 331.828C168 332.255 168.437 332.452 168.805 332.374C169.173 332.295 169.484 332.014 169.781 331.741H169.781Z" fill="#00160A"/>
<path d="M305.355 211.629C306.288 209.837 308.335 209.275 310.05 209.752C311.765 210.23 313.23 211.525 314.641 212.789C320.193 217.765 325.744 222.742 331.296 227.718C334.276 230.389 337.565 233.801 337.394 238.259C337.299 240.726 336.123 242.919 334.985 244.977C330.585 252.933 326.184 260.889 321.785 268.845C319.306 273.327 319.991 279.215 319.242 284.519C318.058 292.899 313.269 299.782 308.834 306.409C304.4 313.037 299.963 320.438 299.713 328.933C299.416 339.057 295.408 348.946 288.953 355.477C290.826 350.027 292.698 344.576 294.57 339.126C295.905 335.238 297.142 330.401 294.907 327.161C293.895 325.696 292.367 324.92 290.9 324.197C287.992 322.766 285.085 321.335 282.177 319.904C281.576 319.607 280.955 319.306 280.305 319.301C278.279 319.287 277.074 321.924 276.252 324.147C273.41 331.836 269.779 339.106 265.469 345.74C267.695 336.289 271.899 327.712 276.059 319.254C276.762 317.824 277.633 316.25 278.998 315.979C279.536 315.872 279.82 315.169 280.003 314.553C282.259 306.959 282.477 298.514 280.616 290.767C280.084 288.555 280.739 286.211 281.386 284.044C283.056 278.453 284.726 272.862 286.396 267.272C285.439 265.286 282.916 265.345 281.623 263.654C279.96 261.479 281.215 258.021 282.518 255.517C290.13 240.888 297.743 226.258 305.355 211.629ZM202.241 154.327C204.052 177.197 200.058 200.091 196.087 222.564C216.235 220.22 236.382 217.876 256.53 215.532C257.108 215.465 257.74 215.413 258.22 215.805C258.86 216.327 258.959 217.393 258.995 218.321C259.937 242.105 260.508 265.909 260.707 289.718C260.712 290.315 260.696 290.981 260.345 291.404C260.045 291.767 259.586 291.843 259.162 291.9C230.935 295.656 202.708 299.412 174.481 303.168C172.04 303.493 168.563 302.733 168.705 299.791C169.343 286.673 168.971 273.483 167.596 260.446C160.094 260.108 152.542 261.473 145.456 264.45C143.849 265.126 141.917 266.942 142.784 268.701C148.519 280.339 141.4 297.832 149.19 307.601C151.868 310.96 151.683 316.245 151.152 320.85C150.014 330.721 148.081 340.46 145.389 349.887C146.691 339.036 147.992 328.186 149.293 317.335C149.545 315.238 149.767 312.947 148.857 311.131C148.016 309.453 146.406 308.593 144.869 307.94C140.007 305.875 134.834 304.87 129.678 304.988C128.104 305.025 126.421 305.214 125.196 306.4C123.659 307.886 123.288 310.471 123.023 312.819C121.891 322.856 120.759 332.893 119.627 342.93C118.765 342.088 118.49 340.667 118.338 339.346C116.578 324.061 124.139 308.974 122.792 293.628C122.098 285.72 119.054 278.34 115.225 271.851C112.581 267.369 112.433 261.365 113.419 256.003C114.406 250.641 116.396 245.627 117.739 240.377C123.708 217.032 116.444 192.091 109.263 169.242C123.573 160.98 140.272 162.58 156.124 163.699C171.977 164.819 189.028 164.899 202.241 154.327ZM307.49 256.202C306.31 258.017 305.809 260.318 305.337 262.549C304.403 266.962 303.468 271.376 302.534 275.789C301.266 281.775 299.648 288.355 295.254 291.571C294.904 291.827 294.498 292.065 294.099 291.951C293.603 291.81 293.322 291.196 293.116 290.637C290.311 283.057 289.961 274.214 292.154 266.35C292.287 265.873 291.882 265.374 291.464 265.334C291.046 265.295 290.655 265.567 290.312 265.858C286.714 268.904 285.336 274.423 284.192 279.525C283.685 281.786 283.177 284.048 282.67 286.309C282.448 287.299 282.225 288.299 282.178 289.323C282.091 291.241 282.625 293.109 283.012 294.973C284.476 302.021 283.815 309.677 281.178 316.215C280.79 317.179 281.816 318.055 282.653 318.427C286.485 320.13 290.318 321.833 294.151 323.536C295.646 324.201 297.752 324.604 298.46 322.89C301.89 314.592 305.415 306.136 310.875 299.589C314.022 295.816 315.951 290.78 317.042 285.605C318.134 280.429 318.443 275.069 318.747 269.743C317.423 270.322 317.307 272.467 317.313 274.159C317.325 277.889 316.782 281.621 315.716 285.125C315.493 285.859 315.193 286.651 314.596 286.96C313.999 287.269 313.119 286.648 313.32 285.905C314.86 280.206 315.435 274.133 314.997 268.164C314.862 266.314 314.574 264.334 313.478 263.023C313.597 265.945 313.716 268.88 313.469 271.79C313.042 276.826 311.537 281.627 310.046 286.362C309.853 286.976 309.618 287.647 309.126 287.936C308.634 288.224 307.871 287.767 307.999 287.128C308.744 283.435 309.488 279.742 310.233 276.049C311.461 269.958 312.669 263.406 310.768 257.569C309.81 257.492 309.585 259.134 309.67 260.281C310.256 268.137 308.446 275.934 306.655 283.522C306.445 284.408 305.704 285.515 305.129 284.905C304.882 284.643 304.87 284.19 304.89 283.794C305.038 280.87 305.868 278.068 306.485 275.234C307.831 269.045 308.174 262.545 307.49 256.202ZM121.229 237.231C119.701 239.47 119.018 242.347 118.373 245.135C117.352 249.55 116.33 253.966 115.309 258.381C114.962 259.88 114.612 261.407 114.654 262.962C114.716 265.29 115.644 267.442 116.551 269.502C118.599 274.153 120.646 278.804 122.694 283.454C124.925 288.523 124.755 294.547 124.963 300.274C124.987 300.924 125.022 301.603 125.294 302.166C125.567 302.73 126.152 303.132 126.66 302.904C129.288 301.718 132.211 302.275 134.978 302.848C137.763 303.424 140.548 304 143.332 304.576C144.052 304.725 144.682 303.85 144.761 302.979C144.84 302.108 144.545 301.26 144.31 300.43C142.239 293.11 144.738 284.995 143.618 277.382C142.555 270.167 138.403 264.25 134.407 258.711C133.294 257.168 133.642 254.845 133.897 252.827C134.304 249.612 134.305 246.323 133.902 243.107C133.749 241.888 133.488 240.575 132.684 239.807C131.634 238.803 130 239.171 128.997 240.242C127.995 241.314 127.5 242.904 127.157 244.461C125.904 250.145 126.186 256.243 124.575 261.795C124.352 262.561 124.032 263.391 123.401 263.683C122.77 263.975 121.886 263.221 122.175 262.488C125.307 254.562 124.94 244.787 121.229 237.231ZM257.452 217.215C248.042 219.395 238.466 220.541 228.883 220.636C226.655 220.658 224.436 220.978 222.224 221.298C213.835 222.51 205.447 223.722 197.058 224.935C196.72 224.984 196.363 225.042 196.099 225.299C195.828 225.562 195.707 225.983 195.614 226.385C195.111 228.552 195.064 230.868 195.479 233.062C204.413 229.749 215.008 235.02 219.369 244.946C223.434 254.202 223.046 266.158 218.088 274.764C213.13 283.37 203.706 288.044 195.202 285.733C186.699 283.421 179.782 274.037 179.253 263.593C179.198 262.498 178.096 262.018 177.2 261.804C175.002 261.278 172.804 260.752 170.606 260.226C170.341 260.162 170.048 260.104 169.815 260.267C169.463 260.512 169.438 261.101 169.456 261.589C169.927 274.185 170.398 286.781 170.869 299.376C170.88 299.687 170.896 300.014 171.036 300.276C171.269 300.709 171.752 300.814 172.18 300.863C174.542 301.134 176.922 300.92 179.286 300.677C205.68 297.961 231.812 291.596 258.291 290.67C259.224 290.637 259.509 289.148 259.513 288.028C259.601 264.403 258.914 240.774 257.452 217.215ZM293.749 270.962C293.498 270.743 293.123 270.873 292.912 271.148C292.702 271.422 292.616 271.799 292.536 272.159C292.342 273.047 292.146 273.943 292.117 274.861C292.088 275.778 292.227 276.689 292.366 277.592C292.821 280.563 293.276 283.536 293.732 286.507C293.789 286.881 293.857 287.278 294.077 287.55C294.298 287.822 294.728 287.881 294.907 287.568C296.929 284.018 298.981 280.399 300.039 276.29C300.171 275.779 300.208 275.061 299.791 274.872C297.643 273.902 295.605 272.583 293.749 270.962ZM181.98 263.665C181.826 263.666 181.666 263.668 181.53 263.754C181.22 263.949 181.182 264.456 181.203 264.874C181.378 268.239 182.81 271.299 184.208 274.224C184.429 274.686 184.667 275.169 185.049 275.44C185.432 275.71 186.004 275.673 186.237 275.219C187.177 273.384 188.294 271.679 189.557 270.149C190.079 269.516 189.928 268.452 189.616 267.645C189.303 266.837 188.856 266.041 188.891 265.152L188.916 264.75C188.944 264.339 188.947 263.922 188.669 263.733C188.54 263.644 188.382 263.642 188.233 263.643C186.149 263.65 184.064 263.658 181.98 263.665ZM211.246 250.633C208.377 245.505 202.518 243.115 197.638 245.083C197.035 245.326 196.385 245.709 196.187 246.434C196.074 246.847 196.133 247.295 196.199 247.723C196.918 252.435 198.22 257.019 200.046 261.279C198.044 261.549 196.041 261.819 194.039 262.089C193.208 262.201 192.346 262.325 191.633 262.852C190.92 263.378 190.403 264.431 190.652 265.39L190.773 265.828C192.091 270.335 195.548 274.104 199.519 274.202C201.419 274.249 203.274 273.492 204.991 272.512C207.003 271.363 208.914 269.871 210.372 267.848C213.74 263.176 214.116 255.762 211.246 250.633ZM310.372 212.284C310.067 212.134 309.732 211.989 309.412 212.09C309.078 212.196 308.842 212.545 308.631 212.875C299.656 226.933 291.6 241.837 284.564 257.404C283.582 259.575 284.896 262.164 286.153 264.121C286.781 265.099 287.993 266.131 288.678 265.21C289.541 264.049 290.957 263.386 292.179 263.904C293.401 264.423 294.161 266.331 293.496 267.666C293.016 268.632 293.957 269.706 294.78 270.246C296.423 271.326 298.109 272.314 299.829 273.204C300.069 273.328 300.347 273.449 300.579 273.309C300.801 273.175 300.891 272.859 300.96 272.573C301.596 269.95 302.231 267.327 302.867 264.703C303.18 263.409 303.389 261.73 302.464 260.965C301.588 260.24 300.711 259.516 299.834 258.791C299.235 258.295 298.592 257.729 298.407 256.884C298.122 255.588 299.151 254.285 300.258 254.111C301.366 253.936 302.449 254.578 303.367 255.342C304.659 256.418 306.296 254.777 307.264 253.288C305.958 252.351 304.713 250.896 304.661 249.071C304.61 247.246 306.459 245.508 307.69 246.582C308.883 247.623 310.7 247.655 311.483 249.154C312.017 250.177 311.827 251.561 311.284 252.576C310.74 253.592 309.903 254.321 309.086 255.026C310.259 255.165 311.4 255.667 312.37 256.469C312.723 255.237 313.076 254.004 313.428 252.772C313.51 252.485 313.599 252.185 313.786 251.983C314.149 251.592 314.713 251.713 315.177 251.89C316.394 252.353 317.588 253.077 318.392 254.269C319.196 255.46 319.531 257.192 318.969 258.569C318.407 259.945 316.823 260.679 315.749 259.849C314.931 259.216 314.098 257.801 313.304 258.478C315.068 260.126 316.279 262.603 316.62 265.255C322.173 255.103 327.668 244.904 333.102 234.659C333.621 233.682 334.039 232.141 333.195 231.578C325.03 226.143 319.011 216.536 310.372 212.284ZM333.93 236.73C333.677 236.626 333.446 236.93 333.297 237.196C328.54 245.742 323.783 254.287 319.026 262.832C318.642 263.522 318.249 264.239 318.137 265.057C318.025 265.875 318.275 266.827 318.896 267.192C319.924 267.795 320.999 266.526 321.659 265.404C326.078 257.887 330.499 250.371 334.918 242.854C335.903 241.179 335.069 238.89 334.227 237.108C334.154 236.954 334.07 236.787 333.93 236.73ZM200.48 157.82C192.234 164.956 181.477 166.11 171.311 166.279C152.968 166.585 134.498 164.497 116.347 167.691C114.444 168.025 111.964 169.454 112.538 171.657C116.564 187.108 120.614 202.706 121.791 218.832C122.408 227.272 122.302 236.133 125.55 243.655C125.46 239.378 129.913 236.036 133.078 238.005C132.538 232.971 131.997 227.937 131.456 222.904C131.252 220.996 130.615 218.584 129.014 218.516C130.009 216.796 132.058 216.091 133.661 216.916C133.93 217.054 134.201 217.249 134.324 217.567C134.527 218.095 134.248 218.692 134.02 219.205C132.827 221.887 132.94 225.336 134.304 227.898C136.565 225.863 138.897 223.785 141.621 222.885C144.347 221.985 147.595 222.523 149.446 225.086C150.381 226.382 152.285 225.793 153.138 224.417C153.991 223.041 154.116 221.229 154.304 219.529C154.492 217.83 154.848 215.994 155.971 214.934C157.285 213.694 159.293 213.996 160.624 215.209C161.956 216.422 162.713 218.342 163.171 220.271C163.543 221.833 163.909 223.689 165.159 224.316C166.119 224.797 167.219 224.316 168.133 223.72C170.366 222.264 172.234 220.133 174.326 218.402C176.417 216.67 178.908 215.3 181.426 215.704C183.945 216.108 186.31 218.86 185.95 221.878C185.378 226.659 185.448 231.55 186.157 236.305C169.41 238.393 152.6 239.755 135.772 240.386C135.462 240.398 135.381 240.903 135.395 241.275C135.524 244.725 135.652 248.176 135.782 251.626C135.874 254.094 135.974 256.605 136.666 258.932C137.359 261.258 138.746 263.415 140.692 264.224C141.095 264.391 141.553 264.495 141.938 264.275C151.545 258.775 162.533 256.807 173.059 258.702C176.314 259.288 179.522 260.232 182.789 260.7C187.135 261.323 191.565 261.092 195.849 260.02C196.434 259.873 197.183 259.37 196.963 258.703C191.754 242.872 193.607 225.065 196.329 208.361C199.052 191.656 202.584 174.652 200.48 157.82ZM301.224 255.449C300.745 255.278 300.149 255.159 299.812 255.601C299.53 255.97 299.59 256.581 299.833 256.988C300.076 257.394 300.456 257.646 300.824 257.883C301.461 258.295 302.098 258.706 302.736 259.118C303.099 259.353 303.561 259.584 303.898 259.297L303.948 259.249C304.181 258.998 304.208 258.546 304.135 258.171C303.841 256.662 302.462 255.891 301.224 255.449ZM315.246 253.761C315.127 253.709 314.988 253.658 314.879 253.737C314.838 253.766 314.806 253.812 314.777 253.859C314.372 254.509 314.413 255.455 314.751 256.158C315.089 256.862 315.673 257.35 316.29 257.683C316.502 257.797 316.735 257.897 316.962 257.843C317.158 257.796 317.325 257.637 317.445 257.446C317.886 256.737 317.671 255.671 317.165 255.028C316.659 254.384 315.939 254.062 315.246 253.761ZM211.177 236.814C207.472 234.11 202.926 233.111 198.662 234.064C197.726 234.273 196.75 234.612 196.109 235.456C194.645 237.384 195.745 240.399 195.873 243.002C200.055 242.151 204.522 242.689 208.223 245.176C211.924 247.663 214.738 252.249 215.062 257.324C216.718 257.363 218.372 257.532 220.01 257.829C219.91 254.812 219.699 251.772 218.97 248.882C217.713 243.901 214.883 239.517 211.177 236.814ZM291.794 248.55C292.416 248.122 293.24 248.004 293.832 248.488C294.801 249.281 296.374 249.099 296.877 250.368C297.258 251.328 296.714 252.424 296.193 253.284C295.881 253.799 295.569 254.314 295.257 254.829C295.073 255.134 294.861 255.46 294.555 255.542C294.247 255.624 293.94 255.433 293.664 255.249C292.452 254.439 291.24 253.628 290.028 252.818C289.68 252.585 289.566 252.023 289.661 251.56C289.757 251.097 290.012 250.708 290.261 250.336C290.709 249.665 291.173 248.978 291.794 248.55ZM293.17 250.431C292.349 250.333 291.443 250.643 290.966 251.451C291.792 251.956 292.618 252.461 293.444 252.965C293.619 253.072 293.815 253.182 294.005 253.121C294.147 253.076 294.257 252.944 294.359 252.817C294.738 252.344 295.118 251.87 295.497 251.398C294.754 250.966 293.992 250.529 293.17 250.431ZM316.333 243.386C317.038 242.747 318.037 243.281 318.796 243.823C319.601 244.398 320.407 244.973 321.212 245.548C321.597 245.823 321.992 246.107 322.268 246.53C322.544 246.954 322.68 247.553 322.487 248.038C322.252 248.628 321.637 248.856 321.324 249.39C320.914 250.087 321.084 251.181 320.536 251.723C319.979 252.272 319.152 251.832 318.537 251.381C317.403 250.549 316.269 249.717 315.134 248.885C314.791 248.633 314.429 248.357 314.26 247.918C314.092 247.48 314.229 246.84 314.62 246.729C315.724 246.413 315.428 244.207 316.333 243.386ZM307 247.569C306.142 247.464 305.647 248.91 306.038 249.832C306.43 250.754 307.296 251.211 308.096 251.596C308.661 251.868 309.347 252.124 309.839 251.695C310.547 251.078 310.165 249.691 309.532 248.967L309.401 248.823C308.733 248.123 307.883 247.677 307 247.569ZM317.835 245.713C317.618 245.566 317.315 245.432 317.146 245.653C316.603 246.364 316.524 247.525 316.964 248.332C317.404 249.14 318.322 249.519 319.082 249.207C319.57 249.008 319.962 248.574 320.338 248.152C320.611 247.846 320.245 247.342 319.92 247.122C319.225 246.653 318.53 246.183 317.835 245.713ZM296.294 240.078C296.342 239.322 297.16 238.949 297.761 239.184C298.362 239.419 298.795 240.029 299.249 240.556C299.704 241.082 300.286 241.574 300.911 241.471C301.706 241.34 302.37 242.365 302.357 243.327C302.343 244.289 301.864 245.145 301.367 245.9C300.869 246.655 300.32 247.411 300.123 248.344C300.048 248.702 299.714 248.911 299.407 248.904C299.099 248.896 298.812 248.722 298.542 248.544C297.038 247.556 295.645 246.325 294.411 244.895C294.138 244.577 293.873 244.016 294.165 243.724C295.144 242.747 296.199 241.601 296.294 240.078ZM309.958 237.11C310.404 237.101 310.805 237.411 311.174 237.71C312.317 238.634 313.459 239.559 314.602 240.483C314.797 240.64 314.997 240.803 315.132 241.033C315.521 241.698 315.242 242.609 314.953 243.344C314.639 244.145 314.325 244.946 314.011 245.746C313.887 246.062 313.748 246.397 313.493 246.564C313.058 246.847 312.532 246.513 312.119 246.187C310.37 244.81 308.622 243.434 306.874 242.058C306.371 241.661 306.673 240.721 307.041 240.15C307.525 239.399 308.051 238.686 308.613 238.018C308.988 237.572 309.43 237.12 309.958 237.11ZM298.469 241.953C297.912 241.714 297.234 241.75 296.797 242.229C296.361 242.707 296.321 243.682 296.811 244.079C297.453 244.601 298.096 245.122 298.738 245.643C298.856 245.739 298.988 245.839 299.129 245.818C299.262 245.797 299.365 245.673 299.457 245.557C299.728 245.217 300.006 244.864 300.142 244.424C300.278 243.984 300.237 243.428 299.939 243.123C299.489 242.663 299.026 242.193 298.469 241.953ZM310.303 239.916C309.879 239.703 309.367 239.637 308.974 239.923C308.581 240.209 308.406 240.93 308.715 241.338C309.646 242.565 310.858 243.482 312.182 243.961L312.347 244.016C312.513 244.065 312.684 244.092 312.849 244.046C313.504 243.865 313.59 242.688 313.174 242.054C312.758 241.42 312.08 241.146 311.495 240.747C311.096 240.474 310.727 240.13 310.303 239.916ZM308.547 216.766C309.113 216.82 309.607 217.228 310.07 217.622C316.045 222.712 322.019 227.802 327.995 232.892C328.343 233.189 328.72 233.534 328.805 234.037C328.875 234.448 328.731 234.864 328.587 235.245C327.814 237.292 326.925 239.276 325.928 241.179C325.702 241.61 325.445 242.063 325.047 242.24C324.673 242.408 324.255 242.293 323.873 242.15C320.942 241.044 318.637 238.386 316.299 235.993C312.885 232.499 309.18 229.413 305.257 226.799C304.858 226.533 304.439 226.253 304.195 225.79C303.95 225.328 303.958 224.624 304.334 224.315C306.093 222.873 307.235 220.4 307.319 217.846C307.341 217.165 307.981 216.711 308.547 216.766ZM300.815 231.071C301.165 230.98 301.522 231.16 301.845 231.348C303.606 232.374 305.22 233.766 306.592 235.442C306.922 235.845 306.964 236.494 306.817 237.031C306.67 237.568 306.367 238.02 306.07 238.459C305.592 239.165 305.083 239.899 304.379 240.234C303.62 240.595 302.736 240.421 302.016 239.956C301.296 239.491 300.718 238.764 300.209 237.996C299.545 236.995 298.951 235.794 299.054 234.521C299.122 233.686 299.482 232.932 299.833 232.208C300.07 231.722 300.357 231.191 300.815 231.071ZM307.114 224.126L307.036 224.302C306.865 224.728 306.763 225.256 307.062 225.526C311.938 229.931 316.814 234.337 321.69 238.742C322.491 239.466 323.736 240.145 324.367 239.209C325.091 238.135 325.767 237.014 326.392 235.854C326.563 235.536 326.738 235.174 326.676 234.803C326.62 234.464 326.382 234.219 326.159 234.001C320.79 228.778 315.106 224.022 309.166 219.782C308.482 221.23 307.798 222.678 307.114 224.126ZM301.691 234.039C301.232 234.043 300.765 234.611 300.952 235.113C300.925 235.358 301.807 237.296 302.914 237.813C304.022 238.33 304.731 237.92 304.76 237.048C304.778 236.498 304.379 236.074 304.015 235.738C303.648 235.4 303.281 235.061 302.914 234.723C302.551 234.387 302.149 234.036 301.691 234.039ZM158.999 217.347C158.589 217.198 158.172 217.552 157.883 217.933C156.609 219.609 156.339 222.014 155.793 224.187C155.248 226.359 154.077 228.679 152.199 228.94C149.555 229.306 147.78 225.472 145.175 224.82C143.449 224.387 141.73 225.434 140.182 226.447C138.694 227.421 137.178 228.419 136.018 229.902C134.858 231.384 134.093 233.461 134.428 235.454C134.578 236.343 134.99 237.233 135.685 237.59C136.053 237.779 136.463 237.803 136.863 237.82C143.194 238.087 149.527 237.503 155.843 236.919C164.862 236.086 173.881 235.252 182.9 234.419C183.999 231.338 184.288 227.848 183.716 224.568C183.343 222.424 182.618 220.162 183.296 218.129C179.245 218.263 175.248 220.121 172.179 223.297C170.643 224.887 169.158 226.896 167.142 227.161C165.271 227.407 163.482 226 162.332 224.212C161.183 222.424 160.518 220.269 159.681 218.246C159.527 217.873 159.332 217.468 158.999 217.347ZM77.0882 122.852C77.6586 122.828 78.2843 123.27 78.347 123.95C79.3676 135.021 82.2075 145.846 86.6566 155.621C89.4114 161.674 92.763 167.302 96.1048 172.912C98.4303 176.817 100.917 180.886 104.545 182.904C105.51 183.44 105.375 185.109 105.117 186.347C103.997 191.696 103.475 197.225 103.568 202.739C103.577 203.26 103.588 203.8 103.417 204.279C102.838 205.906 100.854 205.635 99.4886 204.97C91.038 200.853 84.5504 192.574 78.4896 184.396C70.6207 173.777 62.8687 162.693 58.2201 149.624C57.9041 148.736 57.5969 147.8 57.6498 146.836C57.7037 145.854 58.1246 144.961 58.5511 144.12C62.7652 135.815 68.628 128.723 75.515 123.599C76.0001 123.238 76.5178 122.875 77.0882 122.852ZM181.537 179.562C182.051 179.005 182.789 178.547 183.414 178.903C184.034 179.254 184.208 180.194 184.308 181.008C184.962 186.346 185.615 191.683 186.269 197.021C186.294 197.223 186.316 197.444 186.228 197.619C186.112 197.851 185.857 197.907 185.633 197.939C181.003 198.593 176.345 198.97 171.684 199.068C169 199.124 166.315 199.087 163.632 199.198C151.683 199.695 139.962 203.109 128.085 204.761C127.228 204.88 126.216 204.92 125.665 204.123C124.83 202.915 125.818 201.163 126.756 200.07C129.082 197.359 131.409 194.648 133.735 191.937C134.817 190.676 136.131 189.317 137.624 189.571C138.856 189.781 139.749 191.022 140.713 191.966C141.678 192.91 143.15 193.581 144.106 192.625C147.828 188.905 151.727 185.438 155.776 182.246C157.175 181.143 158.881 180.033 160.437 180.775C164.29 182.613 168.16 184.403 172.044 186.145C173.245 186.683 174.531 187.226 175.784 186.896C178.578 186.159 179.414 181.863 181.537 179.562ZM100.822 199.033C100.608 198.824 100.299 198.859 100.028 198.915C99.149 199.096 98.284 199.373 97.4476 199.743C97.3172 199.801 97.1771 199.872 97.1097 200.018C96.9741 200.312 97.218 200.644 97.4398 200.85C98.6099 201.933 99.8484 202.911 101.141 203.771C101.119 202.51 101.097 201.25 101.075 199.989C101.069 199.644 101.044 199.252 100.822 199.033ZM160.109 183.055C159.071 182.571 157.943 183.326 157.014 184.063C152.491 187.653 148.124 191.525 143.935 195.657C143.082 196.499 141.774 195.904 140.93 195.049C140.086 194.194 139.34 193.064 138.264 192.766C136.754 192.347 135.348 193.727 134.224 195.006C132.176 197.336 130.114 199.685 128.487 202.451C132.294 202.436 136.049 201.476 139.792 200.642C153.675 197.549 167.82 196.153 181.937 196.48C182.8 196.499 183.525 195.597 183.772 194.605C184.019 193.612 183.898 192.548 183.775 191.523C183.507 189.297 183.24 187.071 182.972 184.845C182.909 184.318 182.831 183.753 182.523 183.369C182.215 182.986 181.592 182.932 181.378 183.399C180.278 185.799 178.972 188.408 176.787 189.203C174.909 189.887 172.907 189.023 171.077 188.169C167.421 186.464 163.764 184.76 160.109 183.055ZM272.066 187.191C272.88 186.801 273.808 187 274.636 187.347C276.153 187.982 277.528 189.1 278.582 190.554C279.489 191.804 280.18 193.426 279.99 195.068C279.92 195.67 279.734 196.245 279.523 196.798C278.723 198.892 277.346 200.899 275.456 201.305C274.465 201.518 273.443 201.262 272.49 200.873C271.387 200.423 270.335 199.792 269.373 199.002C268.864 198.583 268.358 198.086 268.134 197.395C267.98 196.918 267.975 196.394 267.981 195.883C267.995 194.619 268.065 193.334 268.432 192.15C268.897 190.651 269.806 189.414 270.77 188.31C271.157 187.866 271.568 187.429 272.066 187.191ZM275.086 189.143C274.484 188.882 273.814 188.809 273.197 189.014C272.864 189.125 272.551 189.313 272.259 189.535C271.011 190.488 270.134 192.114 269.921 193.871C269.708 195.628 270.163 197.486 271.134 198.826C271.756 199.684 272.77 200.053 273.71 199.91C274.65 199.768 275.513 199.162 276.187 198.362C277.283 197.061 277.921 195.173 277.747 193.334C277.574 191.496 276.537 189.771 275.086 189.143ZM70.6019 131.523C70.3563 131.564 70.1389 131.731 69.9339 131.899C67.8171 133.632 66.028 135.937 64.7377 138.594C64.4368 139.213 64.1556 139.955 64.3714 140.623C65.3423 143.631 65.3066 146.952 65.2572 150.177C65.2192 152.658 64.9975 155.556 63.2533 156.889C66.6981 162.2 70.1425 167.512 73.5873 172.823C79.4433 181.853 85.4039 191.005 93.0951 197.767C93.5123 198.134 94.0113 198.512 94.5111 198.352C96.6352 197.672 98.76 196.993 100.884 196.313C101.107 196.242 101.338 196.164 101.509 195.98C101.74 195.731 101.814 195.341 101.877 194.977C102.184 193.197 102.396 191.041 101.258 189.841C98.7304 187.175 99.9898 181.781 97.8334 178.681C89.9881 167.401 83.2988 154.722 79.7357 140.665C79.4492 139.535 78.9043 138.147 77.9222 138.23C75.3428 138.446 73.4624 135.468 72.0941 132.835C71.7477 132.169 71.2501 131.413 70.6019 131.523ZM274.751 191.631C275.532 191.644 276.413 191.839 276.841 192.622L276.908 192.756C277.21 193.44 277.089 194.31 276.851 195.043C276.516 196.073 275.948 197.028 275.148 197.576C274.347 198.124 273.295 198.205 272.515 197.615C271.735 197.026 271.343 195.716 271.761 194.731C271.95 194.284 272.275 193.938 272.47 193.495C272.624 193.148 272.694 192.748 272.883 192.427C273.28 191.752 274.063 191.619 274.751 191.631ZM275.099 193.068C274.031 193.051 273.028 194.127 272.922 195.403C272.879 195.924 273.064 196.572 273.496 196.644C273.82 196.697 274.105 196.397 274.323 196.104C274.783 195.484 275.179 194.795 275.497 194.058C275.604 193.81 275.698 193.493 275.558 193.271C275.456 193.109 275.268 193.07 275.099 193.068ZM101.881 183.989C101.677 183.61 101.192 183.28 100.969 183.644L100.941 183.698C100.884 183.829 100.886 183.99 100.897 184.139C100.976 185.28 101.442 186.375 102.166 187.12C102.484 186.1 102.374 184.903 101.881 183.989ZM270.44 99.1877C270.626 98.3388 271.518 97.9566 272.226 98.1789C272.934 98.4014 273.487 99.0476 273.995 99.6789L274.544 100.369C280.181 107.552 284.641 116.061 287.593 125.27C287.802 125.923 288.006 126.649 287.806 127.306C286.269 132.366 283.303 136.585 280.394 140.688C278.535 143.309 276.676 145.93 274.818 148.551C273.043 151.053 271.269 153.557 269.435 155.996C260.096 168.417 249.06 179.278 236.28 185.96C235.797 186.212 235.28 186.464 234.761 186.363C234.242 186.263 233.755 185.658 233.891 185.048C235.471 177.96 237.061 170.549 235.793 163.371C235.487 161.64 235.146 159.46 236.338 158.418C245.991 149.983 252.941 137.927 259.601 126.034C261.276 123.044 262.946 120.046 264.428 116.912C267.059 111.349 269.086 105.375 270.44 99.1877ZM241.998 177.083C240.915 176.097 239.402 175.838 238.132 176.421C237.898 176.529 237.664 176.669 237.502 176.9C237.313 177.17 237.244 177.53 237.183 177.875C236.876 179.62 236.635 181.382 236.458 183.154C237.014 183.502 237.687 183.171 238.243 182.822C239.703 181.907 241.11 180.868 242.45 179.716C242.803 179.412 242.909 178.804 242.784 178.304C242.658 177.803 242.345 177.399 241.998 177.083ZM148.852 178.669C149.257 178.614 149.688 178.564 150.052 178.782C150.416 179.001 150.651 179.6 150.413 179.997C150.238 180.29 149.902 180.349 149.603 180.384C141.97 181.273 134.337 182.162 126.703 183.051C126.227 183.106 125.549 182.941 125.591 182.369L125.602 182.289C125.682 181.904 126.114 181.758 126.462 181.711C133.925 180.697 141.389 179.683 148.852 178.669ZM136.001 175.438C136.725 175.412 137.692 175.64 137.743 176.507C133.917 177.161 130.091 177.814 126.266 178.468C125.648 178.574 124.954 178.658 124.456 178.205C123.959 177.752 124.009 176.552 124.629 176.462C128.404 175.914 132.2 175.572 136.001 175.438ZM278.556 108.685C275.827 110.106 272.617 110.14 269.868 108.776C269.268 108.479 268.716 109.283 268.411 109.969C261.971 124.451 255.61 139.37 245.795 150.804C244.916 151.829 243.932 153.067 244.094 154.526C244.614 159.201 242.534 164.138 239.089 166.407C237.525 167.438 237.543 170.096 237.772 172.22C237.864 173.07 238.132 174.135 238.843 174.207C240.931 174.418 242.935 175.652 244.296 177.564C244.726 178.167 245.539 177.79 246.099 177.367C260.185 166.741 271.007 151.046 281.575 135.624C281.939 135.092 282.327 134.422 282.137 133.772C280.538 128.306 280.794 122.094 282.835 116.844C281.631 113.968 280.196 111.232 278.556 108.685ZM299.143 153.261C299.627 153.275 300.125 153.303 300.566 153.544C301.791 154.214 302.051 156.135 302.092 157.75C302.13 159.22 302.123 160.709 301.826 162.135C301.528 163.561 300.912 164.935 299.928 165.811C299.486 166.204 298.972 166.492 298.429 166.601C297.59 166.769 296.73 166.511 295.933 166.154C294.87 165.68 293.862 165.027 292.947 164.223C292.5 163.83 292.038 163.315 292.024 162.651C291.991 161.118 292.134 159.579 292.448 158.093C292.648 157.143 292.927 156.194 293.435 155.427L293.559 155.249C294.87 153.463 297.137 153.202 299.143 153.261ZM299.405 154.71C298.418 154.389 297.368 154.346 296.366 154.586C295.867 154.706 295.358 154.911 295.008 155.354C294.818 155.595 294.685 155.892 294.556 156.186C294.233 156.918 293.91 157.651 293.587 158.384C293.417 158.771 293.245 159.161 293.145 159.581C292.845 160.839 293.241 162.235 293.973 163.204C294.705 164.174 295.728 164.763 296.776 165.124L296.931 165.172C298.539 165.598 300.209 164.099 300.817 162.236C301.444 160.312 301.211 158.151 300.867 156.128C300.734 155.351 300.042 154.918 299.405 154.71ZM295.624 158.614C296.583 157.657 297.754 156.637 298.961 157.011C299.912 157.305 300.566 158.459 300.649 159.633C300.731 160.807 300.326 161.968 299.74 162.913C299.522 163.265 299.271 163.601 298.949 163.807C298.316 164.21 297.511 164.03 296.908 163.566C296.304 163.101 295.862 162.395 295.449 161.693C295.088 161.079 294.721 160.33 294.925 159.62C295.045 159.202 295.341 158.897 295.624 158.614ZM241.685 155.946C241.474 155.918 241.272 156.053 241.099 156.2C240.443 156.76 239.965 157.564 239.5 158.352C239.078 159.067 238.657 159.783 238.235 160.498C237.96 160.964 237.673 161.48 237.704 162.049L237.719 162.191C237.83 162.884 238.45 163.387 239.049 163.366C239.689 163.345 240.264 162.849 240.638 162.226C241.012 161.603 241.217 160.86 241.416 160.131C241.636 159.329 241.856 158.526 242.076 157.724C242.259 157.053 242.27 156.025 241.685 155.946ZM299.477 159.21C299.037 158.631 298.326 158.372 297.693 158.559C297.059 158.746 296.529 159.371 296.363 160.128C296.205 160.848 296.384 161.668 296.835 162.178L296.954 162.298C297.243 162.563 297.613 162.707 297.971 162.643C298.547 162.539 298.982 161.93 299.184 161.274C299.386 160.617 299.404 159.904 299.477 159.21ZM62.9906 142.389C62.8249 142.197 62.5494 142.33 62.3617 142.489C60.9742 143.67 60.4049 145.877 60.5091 147.914C60.6134 149.951 61.2848 151.877 61.9466 153.757C62.022 153.971 62.1499 154.225 62.3422 154.197L62.5043 154.007C63.2718 153.017 63.3563 151.48 63.3822 150.101C63.3964 149.341 63.4099 148.582 63.4242 147.822C63.4565 146.099 63.4867 144.348 63.1097 142.685C63.0855 142.578 63.0571 142.466 62.9906 142.389ZM76.5131 126.082C76.238 125.793 75.8108 125.945 75.4798 126.132C74.5758 126.644 73.7335 127.314 72.9886 128.113C72.6871 128.437 72.384 128.824 72.3451 129.308C72.3094 129.752 72.5064 130.173 72.7093 130.547C73.6479 132.278 74.8669 133.79 76.2777 134.973C76.5998 135.243 76.9591 135.506 77.3519 135.492C77.7446 135.479 78.1485 135.063 78.0716 134.601C77.6373 131.994 77.2033 129.386 76.7689 126.779C76.7266 126.526 76.675 126.253 76.5131 126.082ZM283.6 118.596C282.575 121.043 282.737 123.933 282.923 126.663C283.012 127.968 283.102 129.273 283.191 130.578C283.22 131.009 283.415 131.59 283.761 131.471C284.164 130.119 285.249 129.21 285.744 127.904C286.527 125.839 285.658 123.458 284.802 121.436C284.401 120.489 284.001 119.543 283.6 118.596ZM271.794 99.6379C270.747 100.746 271.122 102.826 270.51 104.332C270.274 104.912 269.886 105.419 269.793 106.054C269.701 106.689 270.149 107.487 270.658 107.277C271.289 107.015 271.967 107.41 272.633 107.461C273.974 107.565 275.087 106.304 276.014 105.136C275.057 102.89 273.581 100.967 271.794 99.6379Z" fill="#00160A"/>
</svg>
