<svg width="30" height="31" viewBox="0 0 30 31" fill="none" xmlns="http://www.w3.org/2000/svg">
<path d="M3.75 22.5537V15.0537C3.75 12.07 4.93526 9.20854 7.04505 7.09876C9.15483 4.98898 12.0163 3.80371 15 3.80371C17.9837 3.80371 20.8452 4.98898 22.955 7.09876C25.0647 9.20854 26.25 12.07 26.25 15.0537V22.5537" stroke="#737373" stroke-width="2" stroke-linecap="round" stroke-linejoin="round"/>
<path d="M26.25 23.8037C26.25 24.4668 25.9866 25.1026 25.5178 25.5715C25.0489 26.0403 24.413 26.3037 23.75 26.3037H22.5C21.837 26.3037 21.2011 26.0403 20.7322 25.5715C20.2634 25.1026 20 24.4668 20 23.8037V20.0537C20 19.3907 20.2634 18.7548 20.7322 18.2859C21.2011 17.8171 21.837 17.5537 22.5 17.5537H26.25V23.8037ZM3.75 23.8037C3.75 24.4668 4.01339 25.1026 4.48223 25.5715C4.95107 26.0403 5.58696 26.3037 6.25 26.3037H7.5C8.16304 26.3037 8.79893 26.0403 9.26777 25.5715C9.73661 25.1026 10 24.4668 10 23.8037V20.0537C10 19.3907 9.73661 18.7548 9.26777 18.2859C8.79893 17.8171 8.16304 17.5537 7.5 17.5537H3.75V23.8037Z" stroke="#737373" stroke-width="2" stroke-linecap="round" stroke-linejoin="round"/>
</svg>
