<svg width="30" height="31" viewBox="0 0 30 31" fill="none" xmlns="http://www.w3.org/2000/svg">
<path d="M15 27.5537C21.9036 27.5537 27.5 21.9573 27.5 15.0537C27.5 8.15015 21.9036 2.55371 15 2.55371C8.09644 2.55371 2.5 8.15015 2.5 15.0537C2.5 21.9573 8.09644 27.5537 15 27.5537Z" stroke="#737373" stroke-width="2" stroke-linecap="round" stroke-linejoin="round"/>
<path d="M11.3623 11.3039C11.6562 10.4685 12.2362 9.76407 12.9997 9.31535C13.7633 8.86663 14.6609 8.70261 15.5338 8.85232C16.4066 9.00204 17.1983 9.45584 17.7687 10.1333C18.339 10.8108 18.6511 11.6683 18.6498 12.5539C18.6498 15.0539 14.8998 16.3039 14.8998 16.3039" stroke="#737373" stroke-width="2" stroke-linecap="round" stroke-linejoin="round"/>
<path d="M15 21.3037H15.0125" stroke="#737373" stroke-width="2" stroke-linecap="round" stroke-linejoin="round"/>
</svg>
