<svg width="30" height="31" viewBox="0 0 30 31" fill="none" xmlns="http://www.w3.org/2000/svg">
<path d="M23.75 13.8037H6.25C4.86929 13.8037 3.75 14.923 3.75 16.3037V25.0537C3.75 26.4344 4.86929 27.5537 6.25 27.5537H23.75C25.1307 27.5537 26.25 26.4344 26.25 25.0537V16.3037C26.25 14.923 25.1307 13.8037 23.75 13.8037Z" stroke="#737373" stroke-width="2" stroke-linecap="round" stroke-linejoin="round"/>
<path d="M8.75 13.8037V8.80371C8.75 7.14611 9.40848 5.5564 10.5806 4.38429C11.7527 3.21219 13.3424 2.55371 15 2.55371C16.6576 2.55371 18.2473 3.21219 19.4194 4.38429C20.5915 5.5564 21.25 7.14611 21.25 8.80371V13.8037" stroke="#737373" stroke-width="2" stroke-linecap="round" stroke-linejoin="round"/>
</svg>
