<svg width="21" height="21" viewBox="0 0 21 21" fill="none" xmlns="http://www.w3.org/2000/svg">
<path d="M12.7001 5.30022C12.5169 5.48715 12.4142 5.73847 12.4142 6.00022C12.4142 6.26198 12.5169 6.5133 12.7001 6.70022L14.3001 8.30022C14.487 8.48345 14.7383 8.58608 15.0001 8.58608C15.2619 8.58608 15.5132 8.48345 15.7001 8.30022L19.4701 4.53022C19.9729 5.64141 20.1252 6.87946 19.9066 8.07937C19.6879 9.27928 19.1088 10.3841 18.2464 11.2465C17.3839 12.1089 16.2792 12.6881 15.0792 12.9067C13.8793 13.1253 12.6413 12.9731 11.5301 12.4702L4.6201 19.3802C4.22227 19.778 3.68271 20.0015 3.1201 20.0015C2.55749 20.0015 2.01792 19.778 1.6201 19.3802C1.22227 18.9824 0.998779 18.4428 0.998779 17.8802C0.998779 17.3176 1.22227 16.778 1.6201 16.3802L8.5301 9.47022C8.02726 8.35904 7.87502 7.12099 8.09364 5.92108C8.31227 4.72117 8.89139 3.61638 9.75382 2.75395C10.6163 1.89151 11.721 1.31239 12.921 1.09377C14.1209 0.87514 15.3589 1.02739 16.4701 1.53022L12.7101 5.29022L12.7001 5.30022Z" stroke="#737373" stroke-width="2" stroke-linecap="round" stroke-linejoin="round"/>
</svg>
