<svg width="375" height="450" viewBox="0 0 375 450" fill="none" xmlns="http://www.w3.org/2000/svg">
<rect width="375" height="450" fill="white"/>
<path fill-rule="evenodd" clip-rule="evenodd" d="M341.691 301.536C316.344 362.875 206.656 415.673 97.6554 358.984C34.9601 326.377 11.2442 247.805 10.0024 211.462C9.02584 182.882 26.7812 152.411 37.5 139.319C60.2842 111.491 181.881 76.8291 209.656 78.6093C248.865 77.2892 273.326 118.124 304.188 120.072C326.132 121.456 391.843 180.171 341.691 301.536Z" fill="#90D1AB"/>
<path fill-rule="evenodd" clip-rule="evenodd" d="M188.9 207.038C188.773 209.318 188.929 211.621 189.361 213.847C189.544 214.786 190.718 214.959 191.328 214.332C191.938 213.705 192.1 212.663 192.166 211.703C192.263 210.283 192.232 208.85 192.073 207.438C191.991 206.708 191.865 205.956 191.498 205.365C191.132 204.775 190.461 204.397 189.888 204.661C189.159 204.996 188.953 206.102 188.9 207.038Z" fill="white"/>
<path fill-rule="evenodd" clip-rule="evenodd" d="M96.5913 151.076C103.29 147.095 111.29 146.382 118.406 149.132C120.194 145.009 122.827 141.42 126.008 138.77C126.622 138.259 127.501 137.797 128.053 138.401C127.83 142.637 127.608 146.886 127.816 151.123C127.979 154.421 128.402 157.7 128.441 161.003C128.553 170.551 125.433 179.799 121.19 187.877C131.377 196.099 139.057 208.694 142.505 222.834C141.063 223.727 103.34 225.3 82.9344 223.342C82.4619 223.727 82.0197 222.798 81.9657 222.116C81.4196 215.218 81.1131 208.194 82.3058 201.413C83.4986 194.633 86.3492 188.043 91.0584 184.032C86.688 172.613 88.3876 158.606 83.0559 147.791C82.7394 147.149 82.4728 146.148 83.0271 145.81C83.2326 145.684 83.4782 145.723 83.7055 145.769C87.4232 146.526 90.9656 148.488 93.8575 151.392C94.6034 152.141 95.7196 151.594 96.5913 151.076Z" fill="white"/>
<path fill-rule="evenodd" clip-rule="evenodd" d="M241.148 222.135C241.122 222.135 245.021 215.121 247.412 211.857C249.595 208.877 250.875 204.964 250.964 200.998C243.415 200.64 235.904 199.144 228.663 196.555C227.555 196.158 226.413 195.709 225.573 194.755C223.611 192.529 224.097 188.647 225.108 185.644C226.336 181.998 228.119 178.623 230.345 175.736C231.105 174.749 231.931 173.796 232.429 172.592C232.927 171.388 233.032 169.839 232.36 168.763C231.227 166.951 230.988 164.57 230.87 162.309C230.752 160.048 230.698 157.697 229.843 155.678C228.987 153.659 227.043 152.089 225.238 152.751C224.8 151.949 225.665 151.023 226.426 150.732C229.302 149.636 232.524 150.596 235.045 152.586C237.566 154.576 239.479 157.494 241.122 160.532C241.764 161.718 242.849 163.111 243.895 162.459C251.036 158.009 259.752 157.361 267.297 160.718C268.346 161.184 269.958 161.384 270.172 160.067C271.237 153.506 275.8 147.965 281.254 146.609C279.11 148.454 278.981 152.206 279.41 155.329C279.839 158.452 280.595 161.78 279.525 164.673C278.661 167.008 280.836 169.203 282.598 170.638C285.259 172.804 287.638 175.467 289.623 178.502C291.588 181.505 293.226 185.364 292.328 189.026C291.153 193.821 286.451 195.719 282.405 196.902C278.456 198.058 274.506 199.213 270.556 200.369C270.483 204.993 271.859 209.629 274.35 213.157C276.349 215.987 279.253 218.904 278.617 222.535C279.948 225.067 267.458 224.934 241.148 222.135Z" fill="white"/>
<path fill-rule="evenodd" clip-rule="evenodd" d="M250.627 284.665C251.988 285.675 253.497 286.885 255.053 286.435C258.656 285.392 262.513 285.654 265.995 287.178C267.461 287.819 268.789 286 269.708 284.487C272.374 280.095 275.86 276.424 279.836 273.823C282.577 279.223 279.8 286.695 282.184 292.334C285.873 301.062 284.893 312.334 279.782 319.96C285.146 326.248 288.792 334.611 290.04 343.484C289.402 343.709 256.735 348.571 238.797 342.738C238.599 336.484 240.478 330.17 243.932 325.482C238.804 318.235 236.302 308.399 237.183 298.95C237.274 297.967 237.392 296.918 237.027 296.031C235.114 291.381 233.795 286.38 233.133 281.255C233.094 280.949 233.061 280.614 233.196 280.349C233.375 279.998 233.766 279.922 234.107 279.889C239.849 279.327 245.729 281.027 250.627 284.665Z" fill="white"/>
<path fill-rule="evenodd" clip-rule="evenodd" d="M95.2633 344.334C95.916 339.645 96.5688 334.956 97.2215 330.267C97.3909 329.05 97.3671 327.42 96.3894 327.038C93.3398 325.849 90.7631 323.021 89.5051 319.481C89.1088 318.366 87.8859 317.969 86.9135 318.297C85.9412 318.626 85.1653 319.484 84.4295 320.315C84.8491 318.346 86.3565 316.782 88.0404 316.569C88.6121 315.413 87.7935 313.816 86.7088 313.48C85.6241 313.144 84.4819 313.731 83.5761 314.522C83.5055 313.269 84.7759 312.656 85.7386 312.164C86.7013 311.672 87.6414 310.117 86.8206 309.338C86.4629 308.999 85.9541 309.059 85.5027 309.137C84.1974 309.361 82.8922 309.585 81.5869 309.809C81.7353 308.548 83.1009 308.224 84.1592 308.127C85.2174 308.029 86.5838 307.411 86.4661 306.145C86.0124 301.267 86.9967 296.321 88.6394 291.826C90.0004 288.102 85.9952 284.373 86.2581 280.319C86.2785 280.005 86.3407 279.661 86.5518 279.474C86.8037 279.25 87.1564 279.34 87.4559 279.451C89.5178 280.214 91.4297 281.555 92.9962 283.336C93.7566 284.2 94.9815 283.611 95.938 283.099C99.4658 281.209 103.601 281.013 107.242 282.564C110.529 283.963 113.445 277.212 116.704 278.707C115.872 281.992 115.04 285.276 114.209 288.56C113.979 289.466 113.762 290.507 114.179 291.311C115.585 294.019 116.437 297.138 116.641 300.319C116.784 302.56 117.146 305.587 119.013 305.763C118.2 306.192 117.303 306.727 117.022 307.738C116.74 308.75 117.702 310.084 118.431 309.474C119.06 308.947 120.076 309.387 120.281 310.273C119.204 310.146 118.035 310.288 117.192 311.104C116.35 311.92 116.02 313.571 116.733 314.548C118.3 313.773 120.15 313.875 121.651 314.818C120.756 315.607 119.528 315.374 118.419 315.294C117.311 315.215 115.961 315.522 115.569 316.768C114.26 320.928 111.043 324.139 107.396 324.925C105.599 325.312 105.311 328.228 105.459 330.411C105.77 334.991 106.081 339.571 106.391 344.151C105.751 344.881 98.3216 345.891 95.2633 344.334Z" fill="white"/>
<path fill-rule="evenodd" clip-rule="evenodd" d="M45.543 324.663C45.4157 326.943 45.5716 329.246 46.0039 331.472C46.1863 332.411 47.3601 332.584 47.9702 331.957C48.5802 331.33 48.7428 330.288 48.8086 329.328C48.9057 327.908 48.8745 326.475 48.7158 325.063C48.6338 324.333 48.5077 323.581 48.141 322.99C47.7743 322.4 47.1039 322.022 46.531 322.286C45.8013 322.621 45.5953 323.727 45.543 324.663V324.663Z" fill="white"/>
<path fill-rule="evenodd" clip-rule="evenodd" d="M193.099 337.234C193.327 337.387 193.295 337.827 193.103 338.039C192.911 338.251 192.633 338.297 192.373 338.333C191.469 338.458 190.474 338.558 189.724 337.937C190.105 337.611 190.487 337.285 190.868 336.959C190.628 336.547 190.158 336.463 189.742 336.402C189.326 336.342 188.853 336.222 188.651 335.782C188.448 335.342 188.89 334.642 189.222 334.948C190.249 335.891 191.759 335.999 192.872 335.207C193.604 334.687 194.298 333.783 195.133 333.978C194.549 335.343 193.392 336.332 192.127 336.548C192.156 337.078 192.699 337.462 193.099 337.234Z" fill="#00160A"/>
<path fill-rule="evenodd" clip-rule="evenodd" d="M47.8672 336.523C46.9618 336.649 45.9656 336.749 45.2159 336.128C45.5998 335.8 45.9837 335.473 46.3677 335.146C46.1032 334.745 45.6286 334.676 45.2061 334.606C44.7836 334.537 44.303 334.381 44.128 333.914C43.953 333.447 44.4764 332.795 44.7749 333.16C45.5086 334.058 46.7275 334.115 47.7188 333.707C48.7102 333.299 49.5562 332.513 50.4601 331.877C50.4832 333.482 48.917 334.327 47.6278 334.756C47.6578 335.279 48.1975 335.654 48.5904 335.424C48.8185 335.576 48.7873 336.016 48.5957 336.228C48.404 336.441 48.1262 336.487 47.8672 336.523V336.523Z" fill="#00160A"/>
<path fill-rule="evenodd" clip-rule="evenodd" d="M45.8894 333.353C44.4731 332.72 44.1879 330.507 44.1297 328.695C44.0912 327.496 44.0527 326.297 44.0142 325.099C43.9927 324.427 43.9727 323.741 44.1379 323.099C44.4135 322.028 45.2323 321.188 46.1567 321.028C47.0812 320.868 48.0643 321.396 48.5808 322.33C48.876 322.864 49.0199 323.496 49.1328 324.122C49.3734 325.457 49.4936 326.823 49.4906 328.189C49.4877 329.512 49.3519 330.895 48.7397 331.997C48.1275 333.098 46.923 333.815 45.8894 333.353H45.8894ZM47.1584 332.356C47.8913 332.079 48.1607 331.017 48.2646 330.103C48.4449 328.517 48.4601 326.904 48.3096 325.314C48.2339 324.513 48.1037 323.682 47.6933 323.044C47.2828 322.407 46.5146 322.034 45.9158 322.399C45.1732 322.851 45.0878 324.061 45.1017 325.06C45.1198 326.362 45.1379 327.665 45.156 328.967C45.1673 329.777 45.1854 330.62 45.4981 331.339C45.8108 332.057 46.5145 332.599 47.1584 332.356V332.356Z" fill="#00160A"/>
<path fill-rule="evenodd" clip-rule="evenodd" d="M189.666 322.559C190.673 321.787 192.099 322.341 192.857 323.449C193.616 324.557 193.843 326.052 193.913 327.484C193.953 328.313 193.95 329.145 193.903 329.974C193.838 331.138 193.673 332.336 193.135 333.308C192.597 334.28 191.606 334.968 190.656 334.719C189.84 334.504 189.224 333.651 188.928 332.713C188.633 331.775 188.604 330.752 188.579 329.749C188.555 328.795 188.531 327.841 188.508 326.887C188.468 325.298 188.55 323.415 189.666 322.559ZM190.863 333.622C191.413 333.785 191.995 333.381 192.307 332.815C192.619 332.248 192.715 331.553 192.774 330.877C192.904 329.39 192.889 327.885 192.729 326.402C192.647 325.643 192.516 324.858 192.127 324.251C191.737 323.645 191.019 323.279 190.44 323.6C189.745 323.985 189.588 325.07 189.554 325.988C189.489 327.727 189.536 329.472 189.694 331.202C189.785 332.193 190.057 333.383 190.863 333.622V333.622Z" fill="#00160A"/>
<path fill-rule="evenodd" clip-rule="evenodd" d="M189.543 325.863C189.416 328.143 189.572 330.446 190.004 332.672C190.186 333.61 191.36 333.784 191.97 333.157C192.58 332.53 192.743 331.488 192.809 330.527C192.906 329.107 192.875 327.675 192.716 326.263C192.634 325.533 192.508 324.78 192.141 324.19C191.774 323.6 191.104 323.222 190.531 323.485C189.801 323.821 189.595 324.927 189.543 325.863V325.863Z" fill="white"/>
<path fill-rule="evenodd" clip-rule="evenodd" d="M187.528 216.087C187.632 215.677 188.072 215.528 188.419 215.626C188.766 215.724 189.062 215.99 189.389 216.158C190.612 216.787 192.014 215.969 193.054 214.973C193.403 214.638 193.964 214.302 194.227 214.734C193.601 216.012 192.484 216.927 191.265 217.162C191.302 217.687 191.836 218.061 192.235 217.842C192.46 217.996 192.427 218.432 192.236 218.642C192.045 218.852 191.769 218.898 191.512 218.934C190.614 219.059 189.63 219.161 188.877 218.562C189.279 218.182 189.681 217.803 190.083 217.424C189.15 217.273 188.255 216.804 187.528 216.087Z" fill="#00160A"/>
<path fill-rule="evenodd" clip-rule="evenodd" d="M234.107 279.889C239.849 279.327 245.729 281.027 250.627 284.665C251.988 285.675 253.497 286.885 255.053 286.435C258.656 285.392 262.513 285.654 265.995 287.178C267.461 287.819 268.789 286 269.708 284.487C272.374 280.095 275.86 276.424 279.836 273.823C282.577 279.223 279.8 286.695 282.184 292.334C285.873 301.062 284.893 312.334 279.782 319.96C285.146 326.248 288.792 334.611 290.04 343.484C289.402 343.709 288.983 342.711 288.829 341.935C287.453 335.001 284.72 328.461 280.913 322.99C280.022 321.71 278.564 320.382 277.388 321.273C268.044 328.353 256.199 330.492 245.532 327.024C243.772 326.451 242.523 329.016 241.958 331.096C240.904 334.977 239.851 338.857 238.797 342.738C238.599 336.484 240.478 330.17 243.932 325.482C238.804 318.235 236.302 308.399 237.183 298.95C237.274 297.967 237.392 296.918 237.027 296.031C235.114 291.381 233.795 286.38 233.133 281.255C233.094 280.949 233.061 280.614 233.196 280.349C233.375 279.998 233.766 279.922 234.107 279.889ZM257.395 292.311C255.367 294.546 253.694 297.244 252.494 300.218C251.785 297.367 252.169 294.151 253.518 291.654C251.694 292.473 250.005 293.723 248.577 295.311C248.579 292.936 249.585 290.593 251.196 289.213C250.498 289.237 249.801 289.261 249.103 289.286C249.83 288.205 250.853 287.415 251.975 287.072C246.838 282.676 240.398 280.522 234.106 281.095C235.216 288.964 237.864 296.514 241.779 302.967C240.106 302.146 238.74 300.47 238.093 298.445C237.375 306.557 239.096 314.947 242.868 321.733C243.57 322.996 244.355 324.223 245.374 325.123C247.065 326.618 249.231 327.075 251.322 327.304C259.685 328.221 268.263 326.088 275.634 321.26C277.05 320.333 278.438 319.293 279.561 317.902C281.047 316.062 282.001 313.683 282.614 311.228C284.224 304.788 283.541 297.571 280.769 291.728C280.268 293.521 279.768 295.313 279.267 297.105C279.056 297.862 278.118 298.651 277.939 297.883C280.426 290.813 280.959 282.777 279.436 275.324C273.758 279.846 269.001 286.02 265.686 293.165C265.547 291.501 265.903 289.783 266.677 288.391C263.092 291.686 259.985 295.727 257.537 300.28C257.092 297.663 257.044 294.949 257.395 292.311Z" fill="#00160A"/>
<path fill-rule="evenodd" clip-rule="evenodd" d="M42.2951 217.428C42.779 217.53 43.3015 217.307 43.6236 216.862C42.6458 216.653 41.7101 216.166 40.9143 215.453C41.2313 214.802 42.0434 215.194 42.6288 215.468C44.0468 216.134 45.8172 215.45 46.6455 213.917C46.8683 213.505 47.4651 213.977 47.3997 214.462C47.3342 214.947 46.9356 215.248 46.5764 215.484C45.8902 215.935 45.2039 216.386 44.5176 216.837C45.0816 216.899 45.6246 217.208 46.0205 217.694C45.2725 218.425 44.2188 218.439 43.2541 218.419C42.9922 218.413 42.7155 218.402 42.4938 218.235C42.2721 218.067 42.1421 217.683 42.2951 217.428Z" fill="#00160A"/>
<path fill-rule="evenodd" clip-rule="evenodd" d="M188.283 204.657C189.06 203.199 191.015 202.946 192.033 204.171C192.617 204.874 192.861 205.882 193.016 206.857C193.225 208.179 193.311 209.529 193.271 210.873C193.233 212.112 193.074 213.397 192.492 214.421C191.91 215.445 190.809 216.129 189.823 215.759C188.346 215.206 188.013 212.921 187.94 211.067C187.901 210.087 187.863 209.108 187.824 208.128C187.777 206.938 187.749 205.661 188.283 204.657ZM188.9 207.038C188.773 209.318 188.929 211.621 189.361 213.847C189.544 214.786 190.717 214.959 191.327 214.332C191.938 213.705 192.1 212.663 192.166 211.703C192.263 210.283 192.232 208.85 192.073 207.438C191.991 206.708 191.865 205.956 191.498 205.365C191.132 204.775 190.461 204.397 189.888 204.661C189.159 204.996 188.953 206.102 188.9 207.038Z" fill="#00160A"/>
<path fill-rule="evenodd" clip-rule="evenodd" d="M42.543 205.863C42.4157 208.143 42.5716 210.446 43.0039 212.672C43.1863 213.61 44.3601 213.784 44.9702 213.157C45.5802 212.53 45.7428 211.488 45.8086 210.527C45.9057 209.107 45.8745 207.675 45.7158 206.263C45.6338 205.533 45.5077 204.78 45.141 204.19C44.7743 203.6 44.1039 203.222 43.531 203.485C42.8013 203.821 42.5953 204.927 42.543 205.863V205.863Z" fill="white"/>
<path fill-rule="evenodd" clip-rule="evenodd" d="M42.834 214.961C41.7637 214.32 41.4704 212.676 41.3531 211.247C41.2388 209.854 41.1733 208.455 41.1569 207.055C41.1459 206.12 41.1653 205.142 41.5313 204.317C41.9293 203.419 42.7372 202.803 43.5838 202.752C44.4304 202.702 45.2852 203.219 45.7554 204.065C46.0639 204.62 46.2065 205.283 46.3149 205.937C46.5382 207.286 46.6379 208.664 46.6117 210.039C46.5862 211.375 46.4212 212.772 45.7634 213.85C45.1056 214.928 43.8301 215.558 42.834 214.961V214.961ZM42.5483 212.568C42.6262 213.012 42.7339 213.477 43.0089 213.789C43.5485 214.401 44.5023 214.096 44.9581 213.393C45.4139 212.689 45.4974 211.745 45.5275 210.855C45.5718 209.541 45.5372 208.223 45.4242 206.914C45.36 206.172 45.2625 205.406 44.9229 204.781C44.5833 204.156 43.9379 203.711 43.3382 203.908C42.3895 204.22 42.2064 205.715 42.21 206.895C42.2157 208.794 42.2227 210.709 42.5483 212.568V212.568Z" fill="#00160A"/>
<path fill-rule="evenodd" clip-rule="evenodd" d="M241.148 222.135C241.388 217.8 245.021 215.121 247.412 211.857C249.595 208.877 250.875 204.964 250.964 200.998C243.415 200.64 235.904 199.144 228.663 196.555C227.555 196.158 226.413 195.709 225.573 194.755C223.611 192.529 224.097 188.647 225.108 185.644C226.336 181.998 228.119 178.623 230.345 175.736C231.105 174.749 231.931 173.796 232.429 172.592C232.927 171.388 233.032 169.839 232.36 168.763C231.227 166.951 230.988 164.57 230.87 162.309C230.752 160.048 230.698 157.697 229.843 155.678C228.987 153.659 227.043 152.089 225.238 152.751C224.8 151.949 225.665 151.023 226.426 150.732C229.302 149.636 232.524 150.596 235.045 152.586C237.566 154.576 239.479 157.494 241.122 160.532C241.764 161.718 242.849 163.111 243.895 162.459C251.036 158.009 259.752 157.361 267.297 160.718C268.346 161.184 269.958 161.384 270.172 160.067C271.237 153.506 275.8 147.965 281.254 146.609C279.11 148.454 278.981 152.206 279.41 155.329C279.839 158.452 280.595 161.78 279.525 164.673C278.661 167.008 280.836 169.203 282.598 170.638C285.259 172.804 287.638 175.467 289.623 178.502C291.588 181.505 293.226 185.364 292.328 189.026C291.153 193.821 286.451 195.719 282.405 196.902C278.456 198.058 274.506 199.213 270.556 200.369C270.483 204.993 271.859 209.629 274.35 213.157C276.349 215.987 279.253 218.904 278.617 222.535C277.266 218.674 274.731 215.623 272.694 212.223C270.657 208.824 269.052 204.569 269.973 200.53C268.17 199.757 266.278 201.303 264.914 202.916C263.551 204.53 262.112 206.432 260.2 206.561C257.051 206.773 255.085 202.162 252.006 201.337C251.935 203.81 251.396 206.262 250.441 208.455C249.426 210.787 247.967 212.791 246.522 214.771C244.731 217.226 242.939 219.68 241.148 222.135ZM244.082 163.481C242.167 164.599 245.133 168.965 243.419 170.481C242.538 164.741 240.039 159.377 236.426 155.47C234.08 152.932 230.967 150.933 227.863 151.638C229.678 152.493 230.783 154.756 231.258 157.025C231.733 159.295 231.716 161.669 232.047 163.975C232.629 168.033 234.321 171.852 236.799 174.7C235.67 174.683 234.577 173.85 234.082 172.632C230.607 176.381 227.815 181.036 225.955 186.18C225.222 188.21 224.649 190.63 225.557 192.555C226.323 194.179 227.908 194.934 229.387 195.508C234.71 197.577 240.247 198.85 245.83 199.291C249.166 199.554 252.768 199.621 255.434 202.04C256.403 202.919 257.199 204.076 258.254 204.796C259.31 205.517 260.8 205.664 261.622 204.591C264.831 200.403 269.712 198.779 274.374 197.749C279.037 196.719 283.906 196.03 287.972 193.102C289.498 192.003 290.944 190.482 291.437 188.43C292.108 185.64 290.856 182.729 289.441 180.374C286.587 175.624 282.875 171.622 278.634 168.726C278.449 169.606 277.996 170.402 277.378 170.928C277.179 169.931 277.542 168.913 277.833 167.949C279.632 161.988 278.812 155.406 277.971 149.148C272.452 152.969 269.585 161.564 271.381 168.9C270.329 169.135 269.832 167.365 269.934 166.086C270.036 164.808 270.121 163.138 269.134 162.641C261.193 158.647 251.825 158.961 244.082 163.481Z" fill="#00160A"/>
<path fill-rule="evenodd" clip-rule="evenodd" d="M97.8589 299.718C98.4132 300.842 98.4744 302.294 98.0174 303.48C97.775 304.108 96.955 304.086 96.5434 303.601C96.1317 303.115 96.0236 302.379 95.9439 301.693C95.8717 301.073 95.809 300.418 96.0062 299.838C96.2035 299.257 96.7551 298.801 97.2463 299.014C97.5178 299.131 97.7118 299.42 97.8589 299.718V299.718Z" fill="#00160A"/>
<path fill-rule="evenodd" clip-rule="evenodd" d="M106.391 344.151C104.635 338.803 104.049 332.909 104.707 327.215C103.053 329.39 99.9995 329.761 98.0152 328.028C98.4898 333.63 97.5168 339.396 95.2633 344.334C95.916 339.645 96.5688 334.956 97.2215 330.267C97.3909 329.05 97.3671 327.42 96.3894 327.038C93.3398 325.849 90.7631 323.021 89.5051 319.481C89.1088 318.366 87.8859 317.969 86.9135 318.297C85.9412 318.626 85.1653 319.484 84.4295 320.315C84.8491 318.346 86.3565 316.782 88.0404 316.569C88.6121 315.413 87.7935 313.816 86.7088 313.48C85.6241 313.144 84.4819 313.731 83.5761 314.522C83.5055 313.269 84.7759 312.656 85.7386 312.164C86.7013 311.672 87.6414 310.117 86.8206 309.338C86.4629 308.999 85.9541 309.059 85.5027 309.137C84.1974 309.361 82.8922 309.585 81.5869 309.809C81.7353 308.548 83.1009 308.224 84.1592 308.127C85.2174 308.029 86.5838 307.411 86.4661 306.145C86.0124 301.267 86.9967 296.321 88.6394 291.826C90.0004 288.102 85.9952 284.373 86.2581 280.319C86.2785 280.005 86.3407 279.661 86.5518 279.474C86.8037 279.25 87.1564 279.34 87.4559 279.451C89.5178 280.214 91.4297 281.555 92.9962 283.336C93.7566 284.2 94.9815 283.611 95.938 283.099C99.4658 281.209 103.601 281.013 107.242 282.564C110.529 283.963 113.445 277.212 116.704 278.707C115.872 281.992 115.04 285.276 114.209 288.56C113.979 289.466 113.762 290.507 114.179 291.311C115.585 294.019 116.437 297.138 116.641 300.319C116.784 302.56 117.146 305.587 119.013 305.763C118.2 306.192 117.303 306.727 117.022 307.738C116.74 308.75 117.702 310.084 118.431 309.474C119.06 308.947 120.076 309.387 120.281 310.273C119.204 310.146 118.035 310.288 117.192 311.104C116.35 311.92 116.02 313.571 116.733 314.548C118.3 313.773 120.15 313.875 121.651 314.818C120.756 315.607 119.528 315.374 118.419 315.294C117.311 315.215 115.961 315.522 115.569 316.768C114.26 320.928 111.043 324.139 107.396 324.925C105.599 325.312 105.311 328.228 105.459 330.411C105.77 334.991 106.081 339.571 106.391 344.151ZM107.842 311.232C107.266 311.863 106.274 312.52 105.848 311.737C108.31 308.567 111.685 306.439 115.257 305.805C115.986 305.675 116.148 304.508 116.095 303.626C115.839 299.287 114.802 295.017 113.075 291.193C112.816 291.997 111.996 292.469 111.311 292.208C113.353 288.526 114.696 284.291 115.211 279.911C111.942 281.537 109.038 284.205 106.877 287.567C106.576 286.277 107.057 284.782 108.003 284.07C103.691 282.172 98.7363 282.488 94.6174 284.926C94.7247 285.728 94.8319 286.531 94.9391 287.333C92.9186 284.396 90.2855 282.071 87.3478 280.63C88.3029 284.909 89.6951 289.048 91.4834 292.923C90.7068 293.125 89.8635 292.317 89.8546 291.364C88.232 295.601 87.3399 300.238 87.2508 304.899C87.2252 306.239 87.675 308.052 88.7861 307.914C91.8188 307.537 94.9672 308.803 97.1986 311.297C95.1275 310.579 93.0563 309.861 90.9852 309.143C90.0939 308.834 89.0717 308.544 88.2905 309.145C87.5092 309.745 87.602 311.607 88.5296 311.629C90.9587 310.779 93.7039 311.35 95.7532 313.131C93.3545 312.49 90.8458 312.449 88.4335 313.012C87.8317 314.754 89.8754 316.118 91.4472 316.109C93.0189 316.1 94.987 315.896 95.75 317.545C93.823 317.425 91.8961 317.305 89.9691 317.184C90.4978 321.305 93.4494 324.804 96.8891 325.389C97.5454 325.501 97.9761 326.234 98.4646 326.772C100.408 328.91 104.14 327.458 104.666 324.358C109.142 324.193 113.405 320.62 115.076 315.634C112.805 316.021 110.535 316.408 108.264 316.795C108.796 315.565 110.058 315.093 111.207 314.949C112.355 314.806 113.569 314.854 114.587 314.201C115.605 313.547 116.266 311.825 115.538 310.75C112.701 311.947 109.864 313.143 107.027 314.34C107.971 312.652 109.459 311.414 111.108 310.946C112.257 310.62 113.479 310.652 114.579 310.136C115.679 309.62 116.662 308.26 116.35 306.893C113.215 307.133 110.161 308.69 107.842 311.232Z" fill="#00160A"/>
<path fill-rule="evenodd" clip-rule="evenodd" d="M104.999 297.12C104.618 297.096 104.157 297.007 104.017 296.582C104.944 295.321 106.953 295.722 107.49 297.275C106.66 297.223 105.829 297.172 104.999 297.12Z" fill="#00160A"/>
<path fill-rule="evenodd" clip-rule="evenodd" d="M103.575 320.752C103.872 321.182 103.811 321.858 103.531 322.305C103.252 322.752 102.804 323.004 102.355 323.152C101.701 323.367 100.927 323.364 100.43 322.811C99.7093 322.012 100.056 320.384 100.941 319.876C101.827 319.369 102.949 319.845 103.575 320.752ZM100.993 320.998C100.768 321.501 101.246 322.119 101.721 322.121C102.197 322.122 102.607 321.743 102.975 321.382C102.491 320.747 101.628 320.589 101.008 321.021L100.993 320.998Z" fill="#00160A"/>
<path fill-rule="evenodd" clip-rule="evenodd" d="M106.063 303.528C105.478 303.882 104.74 303.315 104.519 302.575C104.298 301.835 104.446 301.017 104.616 300.258C104.713 299.825 104.843 299.352 105.168 299.131C105.604 298.834 106.186 299.174 106.439 299.692C106.693 300.211 106.705 300.844 106.71 301.445C106.717 302.228 106.646 303.176 106.063 303.528V303.528Z" fill="#00160A"/>
<path fill-rule="evenodd" clip-rule="evenodd" d="M95.5419 320.786C97.2999 321.058 99.1528 320.037 100.127 318.259C101.1 316.482 101.147 314.036 100.243 312.207C99.764 311.239 99.036 310.034 99.6154 309.149C99.9097 308.7 100.432 308.585 100.908 308.554C101.427 308.521 101.98 308.56 102.414 308.904C102.848 309.249 103.101 309.986 102.837 310.524C101.794 312.649 101.953 315.533 103.221 317.474C104.489 319.415 106.784 320.29 108.753 319.583C109.113 319.454 109.703 319.497 109.632 319.94C109.615 320.048 109.553 320.136 109.49 320.215C108.377 321.593 106.449 321.369 105.016 320.516C103.685 319.723 102.542 318.479 101.755 316.965C101.052 318.405 100.325 319.878 99.2476 320.934C98.17 321.99 96.6501 322.56 95.3588 321.938C95.0049 321.768 94.6378 321.256 94.8934 320.917C95.0467 320.713 95.3151 320.751 95.5419 320.786Z" fill="#00160A"/>
<path fill-rule="evenodd" clip-rule="evenodd" d="M98.6565 296.604C98.7447 296.936 98.3578 297.138 98.0688 297.176C97.5205 297.247 96.9723 297.318 96.4241 297.389C96.0008 297.443 95.3928 297.295 95.4396 296.787C96.1931 295.834 97.5222 295.635 98.4476 296.337C98.5355 296.403 98.625 296.485 98.6565 296.604Z" fill="#00160A"/>
<path fill-rule="evenodd" clip-rule="evenodd" d="M246.566 333.484C246.457 332.235 246.481 330.766 247.307 329.993C248.032 329.314 249.061 329.474 249.967 329.669C251.405 329.977 252.843 330.286 254.281 330.594C255.404 330.835 256.606 331.067 257.651 330.515C258.485 330.074 259.44 330.546 260.35 330.556C261.093 330.563 261.811 330.258 262.511 329.957C264.657 329.032 266.803 328.108 268.949 327.184C269.344 327.014 269.783 326.844 270.171 327.034C270.76 327.322 270.892 328.236 270.938 328.998C270.99 329.867 271.042 330.735 271.094 331.604C271.158 332.664 271.215 333.772 270.868 334.751C270.522 335.73 269.634 336.522 268.776 336.256C266.56 335.571 264.306 335.063 262.033 334.738C261.576 334.672 260.98 334.711 260.83 335.234C260.485 336.432 259.057 336.24 258.015 336.029C255.625 335.545 253.079 336.3 251.153 338.064C250.638 338.536 250.156 339.084 249.561 339.394C248.966 339.704 248.204 339.72 247.732 339.186C247.41 338.822 247.282 338.28 247.179 337.763C246.897 336.355 246.692 334.925 246.566 333.484ZM257.347 332.486C254.447 331.826 251.533 331.255 248.608 330.775C248.147 330.699 247.717 331.156 247.565 331.684C247.413 332.213 247.472 332.791 247.539 333.344C247.686 334.558 247.864 335.767 248.073 336.968C248.138 337.344 248.214 337.737 248.427 338.024C248.64 338.311 249.035 338.441 249.284 338.198C250.869 336.653 252.745 335.54 254.732 334.97C255.329 334.798 255.949 334.669 256.478 334.293C257.006 333.916 257.43 333.216 257.347 332.486V332.486ZM265.601 329.797C264.057 330.308 262.417 330.889 261.379 332.352C261.064 332.797 260.999 333.743 261.486 333.721C263.911 333.611 266.354 334.065 268.638 335.051C269.123 335.26 269.671 334.842 269.9 334.288C270.13 333.734 270.122 333.087 270.11 332.468C270.086 331.302 270.063 330.136 270.039 328.969C270.035 328.782 270.013 328.559 269.873 328.476C269.78 328.421 269.669 328.453 269.568 328.486C268.246 328.923 266.923 329.36 265.601 329.797ZM258.058 334.125C258.125 334.399 258.223 334.676 258.403 334.862C258.846 335.319 259.591 334.991 259.888 334.388C260.184 333.784 260.154 333.034 260.087 332.338C260.005 331.503 258.967 331.23 258.441 331.785C257.914 332.339 257.86 333.319 258.058 334.125V334.125Z" fill="#00160A"/>
<path fill-rule="evenodd" clip-rule="evenodd" d="M275.337 311.744C274.052 311.556 272.726 311.797 271.546 312.434C271.241 312.598 270.945 312.058 271.077 311.69C271.209 311.322 271.554 311.146 271.869 311.013C273.691 310.244 276.004 309.864 277.304 311.579C276.748 312.035 276.005 311.843 275.337 311.744V311.744Z" fill="#00160A"/>
<path fill-rule="evenodd" clip-rule="evenodd" d="M261.318 319.914C261.349 321.105 260.409 322.072 259.432 322.284C258.456 322.497 257.462 322.147 256.513 321.801C255.686 321.5 255.429 320.107 255.865 319.212C256.301 318.317 257.184 317.875 258.036 317.707C258.739 317.569 259.485 317.584 260.13 317.943C260.775 318.303 261.297 319.061 261.318 319.914V319.914ZM256.74 320.2C256.786 320.557 257.134 320.711 257.426 320.797C257.993 320.964 258.578 321.132 259.156 321.029C259.734 320.927 260.31 320.485 260.46 319.808C259.602 318.743 258.07 318.597 257.082 319.486C256.89 319.659 256.702 319.914 256.74 320.2V320.2Z" fill="#00160A"/>
<path fill-rule="evenodd" clip-rule="evenodd" d="M246.461 313.843C244.747 313.847 243.033 313.852 241.319 313.857C240.958 313.857 240.449 313.63 240.571 313.222C242.36 312.288 244.438 312.175 246.291 312.91C246.631 313.045 247.002 313.597 246.685 313.798C246.617 313.841 246.537 313.843 246.461 313.843V313.843Z" fill="#00160A"/>
<path fill-rule="evenodd" clip-rule="evenodd" d="M265.422 306.016C265.519 305.281 265.687 304.431 266.254 304.128C266.799 303.837 267.462 304.252 267.776 304.862C268.09 305.471 268.143 306.217 268.187 306.932C267.414 307.016 266.642 307.101 265.869 307.186C265.455 307.231 265.356 306.508 265.422 306.016V306.016Z" fill="#00160A"/>
<path fill-rule="evenodd" clip-rule="evenodd" d="M272.132 314.798C271.883 314.736 271.626 314.67 271.418 314.494C271.269 314.367 271.152 314.185 271.087 313.98C272.833 313.096 275.057 313.897 276.11 315.788C274.784 315.458 273.458 315.128 272.132 314.798V314.798Z" fill="#00160A"/>
<path fill-rule="evenodd" clip-rule="evenodd" d="M268.538 302.025C268.981 301.173 270.089 301.573 270.758 302.176C271.418 302.771 272.009 303.477 272.508 304.266C272.487 304.729 271.886 304.624 271.561 304.372C270.553 303.59 269.545 302.808 268.538 302.025Z" fill="#00160A"/>
<path fill-rule="evenodd" clip-rule="evenodd" d="M244.308 316.09C245.015 315.8 245.721 315.51 246.428 315.22C246.711 315.104 247.013 314.987 247.304 315.072C247.594 315.158 247.845 315.537 247.734 315.87C246.345 316.493 244.94 317.058 243.519 317.565C243.294 317.331 243.34 316.871 243.535 316.601C243.731 316.332 244.026 316.205 244.308 316.09Z" fill="#00160A"/>
<path fill-rule="evenodd" clip-rule="evenodd" d="M250.17 305.4C250.44 305.619 250.579 306 250.704 306.361C250.87 306.84 251.04 307.357 250.95 307.865C250.86 308.373 250.385 308.812 249.996 308.584C249.555 308.326 249.076 309.273 248.641 308.999C248.436 308.869 248.396 308.543 248.381 308.265C248.341 307.517 248.308 306.724 248.603 306.064C248.899 305.403 249.653 304.98 250.17 305.4Z" fill="#00160A"/>
<path fill-rule="evenodd" clip-rule="evenodd" d="M244.779 305.066C245.43 303.145 247.297 301.942 248.991 302.353C249.221 302.409 249.506 302.615 249.424 302.88C249.381 303.02 249.251 303.086 249.135 303.138C247.683 303.781 246.231 304.423 244.779 305.066Z" fill="#00160A"/>
<path fill-rule="evenodd" clip-rule="evenodd" d="M253.427 314.775C253.062 314.829 252.597 314.787 252.46 314.378C252.705 314.144 252.998 313.895 253.303 313.98C253.608 314.065 253.719 314.704 253.412 314.782L253.427 314.775Z" fill="#00160A"/>
<path fill-rule="evenodd" clip-rule="evenodd" d="M260.733 314.146C261.117 314.069 261.32 313.422 261.072 313.061C260.825 312.7 260.256 312.814 260.12 313.251C259.983 313.689 260.35 314.223 260.733 314.146Z" fill="#00160A"/>
<path fill-rule="evenodd" clip-rule="evenodd" d="M252.203 317.271C251.666 317.177 250.974 316.757 251.139 316.136C251.732 315.726 252.467 316.077 253.144 316.194C253.821 316.312 254.734 315.867 254.623 315.058C254.736 315.399 254.849 315.74 254.962 316.081C255.651 315.861 256.294 315.437 256.819 314.858C257.116 314.53 257.38 313.967 257.117 313.602C256.507 312.754 257.169 311.166 258.1 311.244C259.031 311.322 259.503 313.005 258.802 313.742C258.62 313.934 258.803 314.285 258.991 314.467C260.308 315.735 262.144 316.186 263.77 315.64C264.497 315.396 265.426 315.037 265.888 315.754C263.568 317.764 260.044 317.415 258.03 314.975C256.898 317.193 254.349 317.643 252.203 317.271Z" fill="#00160A"/>
<path fill-rule="evenodd" clip-rule="evenodd" d="M263.134 313.456C263.357 313.577 263.392 314.012 263.192 314.182C262.992 314.352 262.662 314.167 262.641 313.874C262.726 313.656 262.922 313.508 263.122 313.51L263.134 313.456Z" fill="#00160A"/>
<path fill-rule="evenodd" clip-rule="evenodd" d="M254.71 313.762C254.944 314.194 255.631 313.657 255.397 313.225C255.163 312.794 254.476 313.331 254.71 313.762Z" fill="#00160A"/>
<path fill-rule="evenodd" clip-rule="evenodd" d="M235.213 185.358C234.312 185.478 233.341 185.741 232.543 185.224C233.487 184.16 234.895 183.952 236.189 184.029C238.381 184.159 240.544 184.958 242.417 186.33C242.024 187.2 240.937 186.773 240.191 186.351C238.65 185.48 236.906 185.132 235.213 185.358Z" fill="#00160A"/>
<path fill-rule="evenodd" clip-rule="evenodd" d="M266.881 176.318C266.737 175.668 266.73 175.136 267.224 174.819C267.943 174.357 270.214 174.4 270.46 175.072C270.705 175.744 269.771 178.834 268.461 178.834C267.937 178.834 267.024 176.968 266.881 176.318Z" fill="#00160A"/>
<path fill-rule="evenodd" clip-rule="evenodd" d="M281.29 183.974C278.47 184.184 275.678 184.923 273.046 186.156C272.685 186.325 272.13 186.391 272.048 185.936C272.508 185.01 273.43 184.594 274.293 184.292C276.223 183.615 278.211 183.171 280.215 182.97C280.505 182.941 280.814 182.922 281.068 183.093C281.321 183.264 281.47 183.7 281.29 183.974V183.974Z" fill="#00160A"/>
<path fill-rule="evenodd" clip-rule="evenodd" d="M281.858 187.769C279.629 188.008 277.399 188.248 275.169 188.487C274.762 188.531 274.153 188.205 274.388 187.803C276.681 186.943 279.089 186.524 281.492 186.567C282.086 186.578 282.776 186.68 283.088 187.287C282.772 187.655 282.297 187.722 281.858 187.769V187.769Z" fill="#00160A"/>
<path fill-rule="evenodd" clip-rule="evenodd" d="M249.069 179.057C248.597 179.724 247.638 179.534 247.132 178.903C246.626 178.273 246.453 177.369 246.301 176.512C246.222 176.066 246.152 175.559 246.373 175.188C246.606 174.798 249.841 174.77 249.995 175.104C250.149 175.438 250.054 175.72 249.995 175.979C249.888 176.45 249.412 178.575 249.069 179.057Z" fill="#00160A"/>
<path fill-rule="evenodd" clip-rule="evenodd" d="M232.179 189.642C234.991 188.252 238.129 187.828 241.129 188.434C241.45 188.499 241.803 188.6 241.985 188.924C242.168 189.248 241.992 189.826 241.669 189.771C238.185 189.176 234.403 189.22 231.438 191.494C231.127 191.282 231.105 190.714 231.304 190.357C231.503 189.999 231.848 189.805 232.179 189.642Z" fill="#00160A"/>
<path fill-rule="evenodd" clip-rule="evenodd" d="M252.825 192.967C252.68 192.467 252.991 191.855 253.427 191.78C253.601 191.916 253.716 192.157 253.725 192.406C253.589 192.791 253.232 193.046 252.884 193.004L252.825 192.967Z" fill="#00160A"/>
<path fill-rule="evenodd" clip-rule="evenodd" d="M248.276 171.309C248.763 171.318 249.431 171.709 249.218 172.235C247.1 172.384 245.009 173.056 243.113 174.198C242.833 174.164 242.701 173.719 242.809 173.408C242.917 173.096 243.173 172.902 243.42 172.741C244.901 171.777 246.591 171.278 248.276 171.309Z" fill="#00160A"/>
<path fill-rule="evenodd" clip-rule="evenodd" d="M260.094 192.54C260.403 192.141 261.024 192.207 261.27 192.664C261.029 193.216 260.221 193.161 260.034 192.581L260.094 192.54Z" fill="#00160A"/>
<path fill-rule="evenodd" clip-rule="evenodd" d="M262.24 192.275C262.454 191.9 263.064 192.224 262.977 192.667C262.887 192.89 262.685 193.041 262.478 193.041C262.241 192.932 262.123 192.549 262.245 192.281L262.24 192.275Z" fill="#00160A"/>
<path fill-rule="evenodd" clip-rule="evenodd" d="M254.955 190.237C254.74 190.612 254.13 190.287 254.217 189.845C254.308 189.622 254.509 189.471 254.716 189.471C254.954 189.58 255.071 189.963 254.949 190.231L254.955 190.237Z" fill="#00160A"/>
<path fill-rule="evenodd" clip-rule="evenodd" d="M251.356 191.261C251.337 191.695 251.788 192.046 252.111 191.848C252.434 191.65 252.462 191.007 252.157 190.77C251.853 190.533 251.375 190.826 251.356 191.261Z" fill="#00160A"/>
<path fill-rule="evenodd" clip-rule="evenodd" d="M260.54 190.99C260.848 191.267 261.372 190.997 261.418 190.539C261.464 190.08 261.007 189.67 260.654 189.852C260.3 190.034 260.232 190.713 260.54 190.99Z" fill="#00160A"/>
<path fill-rule="evenodd" clip-rule="evenodd" d="M266.258 172.61C268.068 171.037 270.575 171.758 272.712 172.543C273.047 172.667 273.466 173.035 273.273 173.385C273.158 173.594 272.905 173.587 272.698 173.557C270.551 173.241 268.404 172.925 266.258 172.61Z" fill="#00160A"/>
<path fill-rule="evenodd" clip-rule="evenodd" d="M258.158 190.99C258.81 193.421 261.152 194.996 263.22 194.396C264.129 194.132 265.168 193.539 265.914 194.217C264.606 195.531 262.765 196.042 261.11 195.55C259.454 195.059 258.024 193.578 257.377 191.684C256.095 193.828 254.061 195.304 251.883 195.67C251.558 195.725 251.188 195.741 250.942 195.48C250.696 195.219 250.761 194.596 251.089 194.568C252.887 194.418 254.631 193.47 255.911 191.948C256.606 191.122 257.178 189.794 256.622 188.827C256.104 187.927 255.687 186.943 255.387 185.91C255.276 185.527 255.19 185.067 255.395 184.745C255.546 184.507 255.81 184.425 256.053 184.358C256.793 184.154 257.559 183.95 258.304 184.119C259.05 184.289 259.776 184.936 259.886 185.837C260.119 187.74 257.667 189.159 258.158 190.99Z" fill="#00160A"/>
<path fill-rule="evenodd" clip-rule="evenodd" d="M110.573 184.428C110.734 183.867 111.604 184.061 111.586 184.654C111.404 185.211 110.541 185.006 110.549 184.408L110.573 184.428Z" fill="#00160A"/>
<path fill-rule="evenodd" clip-rule="evenodd" d="M102.72 187.007C102.621 186.408 101.669 186.636 101.768 187.234C101.867 187.832 102.819 187.605 102.72 187.007Z" fill="#00160A"/>
<path fill-rule="evenodd" clip-rule="evenodd" d="M104.07 188.02C104.298 187.682 104.7 187.531 105.048 187.651C105.161 187.821 105.197 188.061 105.14 188.268C104.882 188.394 104.624 188.52 104.366 188.647C104.256 188.449 104.147 188.251 104.038 188.053L104.07 188.02Z" fill="#00160A"/>
<path fill-rule="evenodd" clip-rule="evenodd" d="M104.185 186.601C104.012 186.457 103.895 186.218 103.875 185.966C104.063 185.497 104.729 185.491 104.923 185.957C104.745 186.264 104.481 186.499 104.185 186.614L104.185 186.601Z" fill="#00160A"/>
<path fill-rule="evenodd" clip-rule="evenodd" d="M98.1187 188.147C97.8607 188.55 97.2786 188.026 97.3483 187.525C97.418 187.023 97.809 186.697 98.1404 186.379C98.8471 185.702 99.4167 184.82 100.186 184.25C100.956 183.68 102.058 183.515 102.699 184.28C100.894 184.973 99.2725 186.342 98.1187 188.147Z" fill="#00160A"/>
<path fill-rule="evenodd" clip-rule="evenodd" d="M95.9115 182.662C96.958 181.487 98.2593 180.641 99.6513 180.231C99.9485 180.144 100.273 180.079 100.551 180.232C100.829 180.385 101.005 180.844 100.819 181.135C99.0475 181.513 97.3806 182.566 96.1188 184.104C95.8893 184.384 95.4542 184.047 95.4425 183.654C95.4309 183.262 95.6726 182.93 95.9115 182.662Z" fill="#00160A"/>
<path fill-rule="evenodd" clip-rule="evenodd" d="M109.162 184.81C109.13 184.522 109.541 184.679 109.664 184.93C109.497 185.229 109.329 185.529 109.162 185.828C108.815 185.693 108.799 184.979 109.14 184.822L109.162 184.81Z" fill="#00160A"/>
<path fill-rule="evenodd" clip-rule="evenodd" d="M119.513 183.243C117.998 182.683 116.484 182.124 114.97 181.564C114.616 181.434 114.228 181.271 114.048 180.882C116.138 180.315 118.437 180.986 120.076 182.644C120.145 182.714 120.216 182.792 120.239 182.897C120.319 183.268 119.818 183.356 119.513 183.243Z" fill="#00160A"/>
<path fill-rule="evenodd" clip-rule="evenodd" d="M109.483 186.51C109.651 186.268 110.01 186.274 110.172 186.523C110.334 186.772 110.254 187.191 110.017 187.329C109.665 187.287 109.363 186.907 109.345 186.483L109.483 186.51Z" fill="#00160A"/>
<path fill-rule="evenodd" clip-rule="evenodd" d="M118.443 187.183C116.873 186.522 115.302 185.86 113.732 185.199C113.603 185.144 113.467 185.084 113.385 184.954C113.204 184.669 113.413 184.225 113.698 184.118C113.983 184.011 114.289 184.131 114.571 184.249C115.417 184.606 116.264 184.962 117.11 185.318C117.835 185.622 118.727 186.327 118.443 187.183V187.183Z" fill="#00160A"/>
<path fill-rule="evenodd" clip-rule="evenodd" d="M324.134 105.343C329.836 108.115 333.715 114.786 335.514 121.845C337.314 128.905 337.331 136.416 337.334 143.799C337.352 198.497 337.371 253.196 337.389 307.895C337.389 315.897 337.338 324.213 334.445 331.423C331.793 338.033 326.773 343.215 320.93 345.373C316.689 346.94 312.175 346.951 307.738 346.951C223.732 346.934 139.726 346.916 55.7194 346.898C51.5341 346.898 47.0591 346.794 43.614 343.942C38.0971 339.376 37.5516 330.019 37.5495 321.976C37.533 259.48 37.5165 196.984 37.5 134.488C37.5 129.842 37.5137 125.083 38.8513 120.724C41.16 113.201 47.1574 108 53.5331 105.602C59.9089 103.205 66.7128 103.192 73.3943 103.2C88.5131 103.221 103.632 103.24 118.751 103.26C183.288 103.345 247.826 103.429 312.364 103.514C316.346 103.519 320.443 103.55 324.134 105.343V105.343ZM183.585 345.638C183.549 305.87 183.513 266.101 183.477 226.333C135.811 226.356 88.1445 226.379 40.4783 226.403C40.0681 226.403 39.6088 226.427 39.326 226.783C39.0603 227.118 39.0445 227.63 39.0442 228.092C39.0229 261.463 39.0015 294.834 38.98 328.206C38.98 329.944 38.9801 331.698 39.2859 333.398C40.3001 339.019 44.571 343.129 49.1488 344.833C53.7265 346.538 58.6278 346.279 63.4175 346.065C81.963 345.234 100.527 345.307 119.086 345.381C140.585 345.467 162.085 345.552 183.585 345.638ZM184.809 226.507C184.836 266.17 184.864 305.833 184.892 345.496C226.672 345.45 268.453 345.403 310.233 345.356C313.375 345.352 316.551 345.344 319.606 344.468C326.796 342.404 332.743 335.332 334.86 326.833C336.111 321.812 336.111 316.482 336.101 311.242C336.047 282.927 335.993 254.612 335.94 226.298C285.563 226.367 235.186 226.437 184.809 226.507ZM184.793 105.29C184.837 145.056 184.881 184.823 184.924 224.59C234.842 224.594 284.759 224.598 334.677 224.602C335.092 224.602 335.57 224.568 335.824 224.172C336.005 223.889 336.013 223.502 336.013 223.145C336.021 194.158 336.028 165.172 336.035 136.186C336.035 131.907 336.032 127.573 335.137 123.431C332.693 112.112 322.986 103.731 313.266 104.548C306.058 105.154 298.826 105.162 291.6 105.17C255.998 105.21 220.396 105.25 184.793 105.29ZM183.582 224.436C183.542 184.674 183.503 144.912 183.463 105.151C142.306 105.133 101.149 105.115 59.992 105.098C50.2855 105.094 41.129 114.261 39.3936 125.722C38.9412 128.71 38.9439 131.766 38.9474 134.803C38.9892 164.689 39.0302 194.574 39.0713 224.459C87.2412 224.699 135.412 224.691 183.582 224.436Z" fill="#00160A"/>
<path fill-rule="evenodd" clip-rule="evenodd" d="M107.999 184.813C107.706 185.733 108.078 186.797 108.667 187.483C109.525 188.482 110.848 188.865 111.991 188.446C112.814 188.144 113.811 187.51 114.42 188.24C112.606 190.433 109.16 190.124 107.637 187.631C107.162 189.12 106.073 190.305 104.792 190.728C103.511 191.151 102.07 190.802 101.026 189.816C101.793 189.053 102.93 189.648 103.926 189.655C104.98 189.662 106.01 188.888 106.465 187.748C106.92 186.608 106.777 185.16 106.112 184.179C105.434 183.179 104.909 182.03 104.571 180.806C104.493 180.523 104.424 180.214 104.5 179.93C104.655 179.347 105.278 179.209 105.787 179.179C106.83 179.116 107.874 179.082 108.919 179.077C109.42 179.074 110.029 179.156 110.239 179.702C110.378 180.062 110.278 180.485 110.156 180.854C109.839 181.815 109.382 182.709 108.813 183.484C108.508 183.9 108.163 184.297 107.999 184.813Z" fill="#00160A"/>
<path fill-rule="evenodd" clip-rule="evenodd" d="M116.928 160.345C115.384 160.001 113.758 160.208 112.31 160.934C112.108 161.035 111.876 161.146 111.682 161.026C111.444 160.881 111.42 160.455 111.567 160.189C111.715 159.923 111.974 159.782 112.222 159.668C114.784 158.489 117.774 158.73 120.181 160.309C119.264 161.076 118.027 160.59 116.928 160.345V160.345Z" fill="#00160A"/>
<path fill-rule="evenodd" clip-rule="evenodd" d="M116.172 169.707C116.041 170.013 115.885 170.328 115.63 170.483C115.251 170.714 114.76 170.498 114.502 170.094C114.244 169.69 114.182 169.149 114.213 168.641C114.277 167.603 115.026 166.439 115.842 166.79C116.716 167.167 116.595 168.714 116.172 169.707V169.707Z" fill="#00160A"/>
<path fill-rule="evenodd" clip-rule="evenodd" d="M101.189 167.934C101.281 168.815 100.956 169.803 100.284 170.177C99.6116 170.55 98.6554 170.044 98.5835 169.16C98.5585 168.852 98.6333 168.546 98.7118 168.252C98.9407 167.392 99.4105 166.382 100.16 166.459C100.736 166.518 101.117 167.245 101.189 167.934Z" fill="#00160A"/>
<path fill-rule="evenodd" clip-rule="evenodd" d="M94.6427 161.613C94.5229 161.152 94.9881 160.8 95.3722 160.656C97.6352 159.808 100.081 159.673 102.399 160.27C102.74 160.357 103.116 160.493 103.286 160.858C103.456 161.224 103.196 161.822 102.864 161.691C100.587 160.793 98.059 160.843 95.8081 161.831C95.392 162.014 94.7747 162.121 94.6427 161.613V161.613Z" fill="#00160A"/>
<path fill-rule="evenodd" clip-rule="evenodd" d="M128.053 138.401C127.83 142.637 127.608 146.886 127.816 151.123C127.979 154.421 128.402 157.7 128.441 161.003C128.553 170.551 125.433 179.799 121.19 187.877C131.377 196.099 139.057 208.694 142.505 222.834C141.036 221.735 140.404 219.604 139.788 217.663C136.383 206.945 130.391 197.431 122.727 190.576C121.628 189.593 119.76 188.849 119.152 190.324C117.779 193.655 115.75 196.593 113.277 198.83C112.38 199.642 111.376 200.444 110.675 201.463C110.681 201.546 110.684 201.63 110.684 201.715C110.684 203.438 109.52 204.835 108.084 204.835C107.108 204.835 106.257 204.189 105.812 203.235C99.3396 199.82 94.0726 193.19 91.5953 185.235C86.8626 189.174 84.1338 195.876 83.0875 202.672C82.0413 209.468 82.4861 216.452 82.9344 223.342C82.4619 223.727 82.0197 222.798 81.9657 222.116C81.4196 215.218 81.1131 208.194 82.3058 201.413C83.4986 194.633 86.3492 188.043 91.0584 184.032C86.688 172.613 88.3876 158.606 83.0559 147.791C82.7394 147.149 82.4728 146.148 83.0271 145.81C83.2326 145.684 83.4782 145.723 83.7055 145.769C87.4232 146.526 90.9656 148.488 93.8575 151.392C94.6034 152.141 95.7196 151.594 96.5913 151.076C103.29 147.095 111.29 146.382 118.406 149.132C120.194 145.009 122.827 141.42 126.008 138.77C126.622 138.259 127.501 137.797 128.053 138.401ZM105.073 194.117C107.366 194.358 109.702 194.596 111.949 193.998C117.088 192.628 120.775 187.171 123.13 181.521C125.826 175.051 127.337 167.874 127.524 160.643C125.862 162.247 124.2 163.852 122.537 165.456C121.553 166.406 120.477 167.576 120.496 169.092C120.523 171.248 119.41 173.364 117.777 174.262C116.144 175.161 114.081 174.791 112.738 173.36C111.222 171.744 110.361 168.82 108.341 168.606C105.959 168.355 104.824 172.02 102.907 173.736C100.465 175.922 96.5231 174.281 95.3038 170.93C95.0719 170.292 95.1549 169.161 94.6235 168.773C92.9293 167.535 91.0584 167.49 88.8507 167.578C89.2441 173.351 90.4086 179.047 92.2862 184.382C93.1181 186.746 94.1321 189.107 95.7651 190.764C98.2806 193.316 101.791 193.771 105.073 194.117ZM118.874 150.44C118.133 152.137 116.89 154.261 115.399 153.576C116.357 152.591 117.184 151.425 117.841 150.133C110.422 147.595 102.204 148.607 95.3697 152.9C95.9579 153.754 96.6813 154.474 97.49 155.009C96.6345 155.987 95.3143 154.789 94.5048 153.756C91.7497 150.241 87.9834 147.889 84.0033 147.199C85.6365 150.344 87.1465 156.574 88.5332 165.889C90.7802 166.499 92.2906 166.814 93.0643 166.834C93.9547 166.856 95.0393 166.745 95.4286 165.784C96.4569 163.245 99.032 161.764 101.326 162.392C103.619 163.021 105.403 165.696 105.411 168.519C106.899 167.35 108.889 167.164 110.51 168.044C110.679 165.641 112.195 163.459 114.135 162.828C116.074 162.197 118.302 163.161 119.459 165.132C119.962 165.989 121.076 165.359 121.744 164.683C123.128 163.28 124.512 161.878 125.895 160.475C126.675 159.685 127.533 158.66 127.369 157.451C126.56 151.464 126.459 145.34 127.07 139.319C123.645 142.162 120.807 146.014 118.874 150.44ZM115.338 193.545C112.007 196.259 107.612 195.786 103.615 195.206C101.432 194.888 99.1731 194.541 97.2962 193.165C96.9104 192.883 96.4049 192.559 96.0484 192.893C98.2861 196.244 101.183 198.956 104.436 200.744C104.92 201.01 105.633 201.167 105.862 200.591C106.389 199.267 107.988 198.776 108.98 199.634C109.787 200.333 110.902 199.662 111.699 198.948C113.49 197.346 115.124 195.492 116.558 193.437C116.349 192.938 115.723 193.231 115.338 193.545ZM96.4526 171.051C97.4566 173.085 99.747 174.043 101.587 173.199C103.427 172.356 104.601 169.809 104.219 167.49C103.837 165.171 101.944 163.352 99.9749 163.411C98.0059 163.471 96.1915 165.403 95.9076 167.742C95.77 168.876 95.9657 170.065 96.4526 171.051ZM111.747 167.535C111.511 169.215 112.059 170.986 113.052 172.203C113.782 173.097 114.787 173.729 115.829 173.682C117.692 173.6 119.047 171.462 119.622 169.334C119.772 168.779 119.89 168.189 119.799 167.616C119.68 166.872 119.23 166.271 118.76 165.766C117.58 164.498 115.988 163.537 114.444 163.963C113.061 164.344 111.984 165.856 111.747 167.535Z" fill="#00160A"/>
</svg>
