<svg width="375" height="450" viewBox="0 0 375 450" fill="none" xmlns="http://www.w3.org/2000/svg">
<rect width="375" height="450" fill="white"/>
<path d="M319.244 322.98C317.16 371.738 284.605 415.923 244.698 425.427C204.79 434.931 161.115 409.652 141.669 366.767C139.524 362.034 137.613 357.07 135.702 352.107C130.769 339.293 125.838 326.484 116.87 317.67C106.631 307.607 93.4634 304.915 80.1628 302.197C71.7168 300.47 63.2173 298.733 55.3805 295.09C36.4885 286.308 21.8198 265.504 17.7307 241.693C11.1044 203.106 32.0935 163.71 60.0833 143.118C88.0731 122.526 121.707 116.791 154.331 112.372C166.811 110.682 176.948 99.3961 184.189 87.0816C186.992 82.3143 189.513 77.3048 192.033 72.299C196.023 64.3745 200.008 56.4592 205.096 49.5284C226.64 20.1807 266.759 15.2284 294.2 36.3311C321.641 57.4338 334.776 100.827 327.478 138.945C326.222 145.51 324.438 151.903 322.653 158.296L322.653 158.297C320.945 164.417 319.237 170.537 317.991 176.81C315.328 190.217 314.82 204.091 314.517 217.869C314.155 234.296 314.07 250.766 315.352 267.127C315.798 272.818 316.41 278.502 317.021 284.185C318.41 297.099 319.798 310.007 319.244 322.98Z" fill="#90D1AB" fill-opacity="0.9"/>
<path d="M154.285 100.727C169.207 91.8189 181.083 76.3487 188.562 58.4762C189.542 56.1328 190.472 53.643 190.437 51.0211C190.403 48.3991 189.132 45.622 187.018 44.9561C183.989 44.0019 181.384 47.4868 179.496 50.4841C166.52 71.0746 147.635 87.2391 126.324 90.7643C118.139 92.1183 109.83 91.6098 101.578 91.0986L88.6906 90.3001C78.3104 89.657 67.7861 89.0267 57.6255 91.6551C47.465 94.2835 37.5369 100.605 31.9564 111.128C30.1801 114.477 28.8496 118.424 29.3411 122.35C29.8447 126.373 32.2279 129.788 35.0986 131.952C37.9693 134.117 41.3044 135.2 44.6095 136.106C47.0295 136.769 49.5011 137.357 51.9772 137.148C56.0255 136.806 59.6992 134.39 63.2737 132.04C63.5119 131.883 63.7495 131.727 63.9869 131.571C70.2344 127.481 76.7081 123.849 83.4601 121.15C93.3063 117.215 103.66 115.289 113.987 113.367C127.901 110.779 141.768 108.2 154.285 100.727Z" fill="#90D1AB" fill-opacity="0.9"/>
<path d="M76.6886 338.037L76.6973 338.037C77.3055 338.066 77.9133 338.096 78.5195 338.133C88.1078 338.732 97.5965 341.553 106.309 346.395C109.63 348.241 112.995 350.552 114.86 354.331C117.169 359.008 119.94 363.355 123.097 367.253C124.321 368.765 125.648 370.244 127.283 371.017C128.918 371.789 130.937 371.719 132.263 370.336C133.875 368.656 133.98 365.673 133.483 363.182C132.669 359.099 130.639 355.541 128.63 352.104C122.038 340.826 115.097 329.55 105.922 321.27C96.748 312.989 84.9081 307.975 73.6784 310.835C69.801 311.823 65.958 313.836 63.3873 317.457C60.8166 321.077 59.8007 326.526 61.6522 330.732C63.121 334.069 66.0987 336.122 69.1473 337.047C71.6044 337.792 74.149 337.915 76.688 338.037H76.6886Z" fill="#90D1AB" fill-opacity="0.9"/>
<path d="M336.043 168.411C333.479 167.252 330.577 168.652 328.407 170.659C324.122 174.623 321.587 180.824 320.434 187.167C319.28 193.511 319.373 200.073 319.472 206.564L320.319 262.341C320.381 266.416 320.532 270.807 322.62 274.022C323.274 275.027 324.168 275.91 325.225 276.04C326.507 276.197 327.693 275.226 328.618 274.15C333.679 268.27 334.344 259.007 334.949 250.565L334.971 250.258C335.862 237.865 337.403 225.539 339.583 213.378C340.197 209.958 340.87 206.517 342.153 203.375C346.174 193.527 345.212 181.027 339.757 172.229C338.77 170.637 337.589 169.111 336.043 168.411Z" fill="#90D1AB" fill-opacity="0.9"/>
<path d="M244.228 243.909C246.933 244.803 249.355 247.506 249.621 250.857C250.134 249.524 251.26 248.561 252.478 248.414L250.71 250.668L252.947 250.722L249.869 252.784C251.777 257.018 251.468 262.241 250.245 266.825C249.497 269.631 248.414 272.442 248.625 275.377C248.833 278.265 250.97 281.214 253.305 280.623L253.422 280.591C256.229 279.74 259.302 280.232 261.825 281.937C265.449 284.387 267.648 288.937 270.139 292.935C272.337 296.464 274.94 299.746 278.193 301.791C281.446 303.835 285.435 304.51 288.823 302.813C290.505 301.97 292.01 300.576 293.794 300.132C295.579 299.689 297.407 300.879 298.062 302.908C298.352 303.806 297.729 307.131 296.141 311.015C296.399 310.927 296.669 310.869 296.952 310.847C305.298 310.197 313.721 308.02 320.903 302.878C323.186 301.243 325.319 299.328 327.436 297.397L328.67 296.268L329.417 295.578C334.063 291.259 338.649 286.445 340.56 279.875L340.66 279.522L340.871 278.746C341.28 277.276 341.798 275.756 342.98 275.3C344.617 274.668 346.107 276.569 347.102 278.252L354.271 290.379C354.455 290.691 354.643 291.013 354.713 291.386C355.024 293.034 352.974 293.866 351.653 293.281C349.251 292.217 347.323 289.046 344.802 289.591C343.031 289.973 341.972 292.031 341.097 293.97L340.875 294.465C335.57 306.383 326.644 315.918 316.164 320.86C313.463 322.134 310.672 323.11 307.885 324.084L302.255 326.051L303.247 326.264C311.647 328.031 320.609 329.11 328.238 324.643C333.317 321.669 337.229 316.549 340.92 311.375L342.259 309.486L342.812 308.697C345.077 305.436 347.229 301.946 347.891 297.813C348.144 296.226 349.813 295.469 351.112 295.899C352.41 296.329 353.398 297.561 354.318 298.742L361.286 307.693C361.835 308.398 362.413 309.176 362.494 310.136C362.574 311.097 361.857 312.183 361.084 311.914L353.528 309.28C352.819 309.033 352.034 308.792 351.367 309.17C350.855 309.46 350.525 310.055 350.232 310.642L342.108 327.105C339.821 331.741 335.581 334.429 331.415 336.439C321.426 341.26 310.586 343.525 299.826 343.039C298.658 342.987 297.488 342.902 296.333 342.683C291.993 341.863 288.073 339.215 284.278 336.536C284.943 339.456 284.35 341.92 280.398 342.107C276.897 342.273 268.322 324.976 265.655 324.079C251.1 319.181 248.71 309.512 244.034 302.908C244.034 302.908 234.584 304.374 228.345 302.813C213.72 299.154 203.891 287.898 200.348 287.182C196.805 286.465 194.468 289.19 193.374 287.538L193.374 286.34C193.543 286.01 195.236 284.112 200.067 285.345C206.811 287.067 217.593 293.568 225.828 294.782C234.471 296.056 241.793 294.369 241.753 294.086C241.671 293.508 243.844 291.054 242.108 289.815C240.372 288.576 215.17 276.438 209.693 266.323L209.627 266.197C208.685 264.321 207.97 259.659 209.865 261.793L210.395 260.664C212.436 262.974 219.136 268.252 226.095 273.455C233.453 278.957 243.844 282.48 244.034 282.326C248.268 278.889 244.513 276.401 243.812 275.67C242.171 273.96 239.993 273.028 238.58 271.048C235.189 266.298 237.611 257.8 233.735 253.618C233.148 252.985 232.437 252.487 232.012 251.69C231.284 250.324 231.642 248.423 232.524 247.194C233.405 245.965 234.695 245.279 235.971 244.745C238.619 243.635 241.523 243.015 244.228 243.909Z" fill="white"/>
<ellipse cx="246.5" cy="268.2" rx="1" ry="1.2" fill="#FFB61D"/>
<ellipse cx="240.403" cy="268.2" rx="0.741611" ry="1.2" fill="#FFB61D"/>
<path d="M204.164 274.015C194.867 271.13 185.095 270.465 175.586 272.068C176.305 267.803 177.205 263.582 178.283 259.427C175.189 260.626 171.536 257.223 171.736 253.328C171.936 249.434 175.91 246.595 178.858 248.241C179.87 245.436 179.935 242.158 179.033 239.3C178.6 237.929 180.325 237.138 181.547 237.137L188.298 237.136C189.241 237.135 190.557 236.609 190.323 235.512C189.767 232.911 191.257 229.939 193.433 229.311C195.569 228.694 197.974 230.449 198.526 232.992L198.554 233.134C199.067 235.866 201.951 236.734 204.284 236.68L205.445 236.647C207.463 236.596 209.566 236.674 210.916 238.368C212.532 240.394 212.171 243.62 211.638 246.37L211.603 246.553C210.848 250.37 210.044 254.173 209.19 257.96C210.848 273.976 206.742 274.815 204.164 274.015Z" fill="white"/>
<path d="M126.618 260.643C125.632 252.946 125.634 245.067 126.622 237.37L126.672 236.998C126.917 235.251 127.348 233.407 128.564 232.444C129.475 231.724 130.625 231.67 131.722 231.669L140.119 231.697C140.502 231.698 140.92 231.715 141.208 232.018C141.495 232.32 141.487 233.015 141.119 233.137C140.239 233.43 139.734 234.647 139.841 235.735C139.947 236.822 140.537 237.764 141.229 238.478C142.88 240.181 145.445 240.786 147.272 239.366C149.1 237.946 149.529 234.289 147.798 232.706C151.72 232.61 155.645 232.625 159.567 232.75L161.037 232.802C161.513 232.821 162.038 232.866 162.37 233.275C162.62 233.582 162.702 234.027 162.758 234.451C163.192 237.709 162.717 241.132 161.427 244.045C161.221 244.509 160.745 245.021 160.421 244.668C159.043 243.166 156.725 243.371 155.315 244.829C153.905 246.286 153.36 248.707 153.609 250.921C153.849 253.051 155.143 255.326 156.932 255.219C158.341 255.134 159.908 253.656 160.973 254.766L159.179 264.385C158.861 266.093 158.288 268.12 156.862 268.487C148.624 270.601 139.988 270.441 131.809 268.023L131.412 267.903C130.42 267.591 129.431 267.187 128.656 266.392C127.308 265.007 126.888 262.748 126.618 260.643Z" fill="white"/>
<path d="M191.242 185.165L211.148 185.645L211.473 185.654C212.071 185.677 212.673 185.74 213.211 186.041C214.428 186.723 214.986 188.403 215.356 189.951C217.331 198.22 217.087 207.229 214.669 215.326L214.568 215.658C214.253 216.654 213.841 217.647 213.098 218.208C212.487 218.669 211.741 218.765 211.015 218.812L210.86 218.821C207.9 218.99 204.93 218.899 201.981 218.55C203.517 217.415 203.905 214.653 202.93 212.833C201.955 211.012 199.894 210.252 198.159 210.843C197.102 211.204 196.117 212.071 195.734 213.307C195.352 214.544 195.722 216.132 196.699 216.736C197.375 217.154 197.258 218.469 196.667 219.042C196.075 219.615 195.252 219.655 194.492 219.67L184.505 219.864C183.754 219.879 182.965 219.883 182.306 219.451C181.371 218.839 180.942 217.521 180.678 216.283C180.043 213.296 179.957 210.143 180.429 207.113C180.996 209.506 183.454 210.959 185.381 210.042C187.309 209.124 188.267 206.044 187.313 203.835C186.359 201.626 183.71 200.79 181.974 202.15L181.901 201.378C181.652 198.671 181.459 195.93 181.892 193.264C182.366 190.345 183.719 187.477 185.938 186.151C187.556 185.183 189.424 185.13 191.242 185.165Z" fill="white"/>
<path d="M130.871 212.034C128.068 212.047 125.264 211.909 122.471 211.62L122.2 211.59C121.2 211.47 120.151 211.23 119.496 210.337C118.612 209.133 118.828 207.317 119.093 205.728L119.12 205.57C120.307 198.598 120.773 191.45 120.505 184.341L120.456 183.116C120.381 180.912 120.499 178.412 122.024 177.279C122.488 176.934 123.027 176.774 123.564 176.644L123.743 176.602C133.511 174.318 143.682 174.55 153.371 177.276C154.647 177.635 155.002 179.709 154.579 181.197C154.156 182.685 153.247 183.936 152.907 185.455C152.567 186.974 153.19 189.03 154.5 189.079C157.226 189.181 159.536 192.504 159.17 195.747C158.804 198.99 155.883 201.45 153.209 200.806C152.581 200.655 152.359 201.768 152.428 202.531L153.191 210.997C153.316 212.379 151.682 212.815 150.527 212.707L143.791 212.078C142.732 211.979 141.313 212.198 141.15 213.457C140.744 216.591 138.066 219.038 135.44 218.675C132.815 218.311 130.671 215.197 130.871 212.034Z" fill="white"/>
<path fill-rule="evenodd" clip-rule="evenodd" d="M112.738 264.134C113.485 264.352 114.555 264.739 114.496 265.587C113.3 282.682 108.151 279.536 103.56 284.437C102.346 285.732 101.621 288.796 101.1 288.866C103.033 289.937 105.837 294.233 110.663 294.43C124.109 294.977 129.003 283.203 129.003 283.203C129.319 279.428 127.724 272.629 129.715 274.533C131.09 275.847 130.818 269.445 132.696 270.083C133.26 270.274 132.274 274.531 132.696 274.785C132.929 274.926 133.273 273.765 133.873 272.842C134.374 272.073 135.147 271.502 135.307 271.671C135.415 271.785 135.311 272.885 134.86 273.816C134.226 275.124 133.166 276.383 133.315 276.593C133.478 276.824 136.273 273.703 136.443 273.975C137.574 275.786 130.411 296.623 118.323 300.557L117.366 300.866C110.32 303.113 107.361 303.419 100.832 300.557C97.7365 299.2 95.8112 311.873 94.0905 316.091C93.0041 318.755 87.7271 325.282 85.3173 323.308C82.1381 320.704 79.5458 315.856 76.8403 313.404L76.6664 313.251C74.8227 311.665 70.6524 309.257 64.1555 306.029L64.4482 305.867C65.8037 305.127 69.2951 303.319 71.9759 300.557C75.7851 296.633 77.8481 288.203 80.5035 283.657C83.1253 279.168 86.6436 279.829 84.5202 279.035C84.5202 279.035 79.1398 275.615 76.6664 275.301C68.4061 274.255 57.6378 278.94 54.1929 281.959C49.4663 286.101 54.1625 292.197 47.6314 289.209C45.4548 288.214 51.2888 275.313 59.3362 270.083C70.5219 262.812 81.0984 260.812 91.7022 272.386C96.0177 277.096 96.4448 281.289 97.6021 284.486L97.3652 283.702C110.157 282.69 90.9907 267.322 106.992 263.476C108.672 263.072 110.436 263.492 112.12 263.96L112.738 264.134Z" fill="white"/>
<ellipse cx="104.5" cy="274.8" rx="1" ry="1.2" fill="#FFB61D"/>
<ellipse cx="110" cy="277.2" rx="1" ry="1.2" fill="#FFB61D"/>
<path fill-rule="evenodd" clip-rule="evenodd" d="M51.9468 321.338C62.786 330.344 48.9175 317.904 60.7607 332.729C63.1523 335.723 75.2613 318.625 76.5104 328.758C76.9661 332.454 75.9725 336.302 76.5783 339.967C77.1434 343.387 89.5388 341.334 90.4962 339.838C93.967 334.416 83.1657 320.487 80.9008 318.261C68.2623 305.837 64.0918 306.699 52.2828 319.553L51.9468 321.338Z" fill="white"/>
<path d="M341.645 103.041C342.521 102.904 343.319 103.601 344.011 104.26L351.091 111.005C352.47 112.318 350.855 115.149 349.098 115.285C347.341 115.42 345.707 114.204 343.959 113.956C339.801 113.366 336.631 118.065 334.052 122.022C331.696 125.638 329.115 129.044 326.338 132.203L325.963 132.627L325.572 133.058C323.339 135.495 320.833 137.702 317.887 138.338C313.549 139.274 309.24 136.608 305.697 133.463C302.154 130.317 298.873 126.54 294.745 124.687C292.04 126.458 289.509 128.599 287.198 131.04L287.301 130.942C291.182 135.609 293.895 141.657 295.006 148.114L294.264 147.957L293.774 147.857C289.189 146.934 284.278 146.388 280.403 149.333C278.086 151.093 276.194 154.036 274.074 156.077C274.295 156.234 274.521 156.399 274.752 156.569C279.041 158.674 283.586 160.022 288.198 160.556C292.166 161.016 296.377 160.945 299.814 163.368L300.805 164.079C302.396 165.209 304.168 166.285 305.501 164.976C306.117 164.371 306.391 163.405 306.877 162.648C307.365 161.892 308.331 161.359 308.936 161.98L309.182 164.293C309.36 162.805 310.556 161.596 311.808 161.637C313.06 161.679 314.198 162.967 314.307 164.464C314.505 167.18 311.937 168.806 309.758 169.672L298.464 174.04C294.429 175.6 289.955 174.791 286.064 172.768C282.442 170.885 279.246 168.018 276.192 165.006L275.516 164.334C273.21 162.031 270.093 159.53 267.476 161.291C272.022 161.623 275.339 166.324 278.05 170.77L278.31 171.2C278.749 171.926 279.202 172.69 279.31 173.578C279.614 176.063 277.262 177.713 275.275 178.503C276.949 179.579 276.119 182.703 274.822 184.368C272.935 186.789 270.463 188.532 267.797 189.395L267.553 190.406C267.538 190.474 267.531 190.509 267.533 190.51C268.79 190.406 269.566 192.433 269.053 193.815C268.541 195.197 267.276 195.933 266.063 196.344C262.066 197.7 257.552 196.63 254.285 193.552L253.649 193.95C250.889 195.664 248.033 197.259 244.965 197.799C241.661 198.381 238.025 197.564 235.636 194.763L235.794 195.176C236.131 196.075 236.434 197.006 236.445 197.985C236.457 199.115 235.971 200.335 235.079 200.698C233.607 201.296 232.32 199.408 231.556 197.784C230.661 200.461 233.661 203.856 232.099 206.049C231.233 207.266 229.589 206.955 228.396 206.237C223.929 203.548 221.83 196.78 222.797 190.896C223.765 185.013 227.291 180.085 231.489 176.832C228.639 174.325 226.554 170.592 225.705 166.475C226.345 167.466 233.263 156.631 238.321 156.696C239.402 156.71 241.627 158.429 242.917 158.852C242.962 158.783 243.016 158.72 243.079 158.666L242.46 158.131C241.215 157.07 239.915 156.073 238.441 155.633C236.721 155.121 234.686 155.542 233.59 157.214C230.912 161.3 227.517 164.707 223.693 167.151L225.96 172.173C225.024 172.71 223.856 172.613 222.986 171.935L222.879 171.848L222.947 171.948C224.252 173.992 223.105 177.556 220.967 177.96C218.798 179.051 216.611 175.789 216.825 172.978C217.038 170.167 218.603 167.812 219.595 165.253C221.973 159.122 221.192 151.38 224.703 146.09C226.124 143.949 228.116 142.459 230.158 141.238C238.263 136.39 247.855 135.231 256.603 138.042C258.093 131.636 261.047 125.73 265.056 121.139L265.295 120.87C266.83 119.174 268.738 117.659 270.773 117.937L270.933 117.963C272.953 118.332 274.71 116.462 276.178 114.73L276.631 114.196L276.986 113.787C279.9 110.447 283.284 107.363 287.265 107.031C290.807 106.735 294.197 108.687 297.254 110.853C300.713 113.304 304.004 116.099 307.081 119.198L307.622 119.748C310.641 122.849 313.944 126.473 317.912 126.188C322.097 125.887 325.064 121.405 327.849 117.643C331.065 113.299 334.728 109.474 338.434 105.728L340.024 104.126C340.505 103.642 341.023 103.138 341.645 103.041ZM274.014 177.899C273.227 177.711 272.154 177.794 270.794 178.146C271.689 178.15 272.444 178.131 273.056 178.089C273.353 178.045 273.647 177.989 273.937 177.919L274.014 177.899ZM247.827 155.538C247.118 155.457 246.414 155.658 245.789 156.053C245.148 156.661 244.627 157.466 244.107 157.958C243.929 158.311 243.791 158.689 243.7 159.081C243.757 159.093 243.803 159.099 243.836 159.099C244.357 159.099 245.328 154.293 248.981 156.696C252.635 159.099 251.123 162.776 251.09 162.798C250.162 163.432 249.167 165.273 246.804 167.293C244.941 168.885 242.445 170.403 240.143 172.414C239.742 172.764 239.347 173.334 238.986 174.048C242.759 169.685 249.681 167.822 251.727 161.739C252.041 158.873 250.225 155.811 247.827 155.538ZM253.994 153.148C256.983 137.614 238.905 140.605 234.674 154.346C234.408 155.213 235.95 155.178 236.741 155.232L237.153 155.263C238.709 155.372 238.656 155.251 240.33 156.039C240.91 156.312 242.857 158.54 243.463 158.369C243.652 158.315 243.834 158.199 244.016 158.041L244.107 157.958C244.477 157.22 245.016 156.586 245.643 156.15L245.789 156.053C246.322 155.547 246.94 155.177 247.708 155.237C249.085 155.345 250.357 156.396 251.525 158.387C252.348 156.641 253.623 155.075 253.994 153.148ZM278.434 143.823C277.167 146.431 276.09 149.172 275.232 152.009C276.231 149.215 277.174 146.774 278.061 144.687L278.434 143.823ZM286.355 145.922C285.252 145.977 284.262 146.176 283.386 146.516C282.415 146.894 281.38 147.526 280.284 148.412C282.202 147.137 284.323 146.283 286.494 145.916L286.355 145.922ZM328.746 89.2994C330.866 86.9064 338.019 93.1192 338.021 93.8278C338.021 98.919 332.225 94.4621 329.809 96.6979L329.748 96.7614C328.593 98.0318 320.253 110.771 314.367 114.187C307.581 118.125 301.539 114.67 304.782 114.2L304.882 114.187C317.235 112.716 320.295 98.8385 328.746 89.2994Z" fill="white"/>
<path fill-rule="evenodd" clip-rule="evenodd" d="M230.088 203.468C229.221 204.685 227.965 204.292 226.814 202.946C224.406 200.129 223.438 194.692 224.406 188.808C225.373 182.925 229.145 180.501 233.343 177.247C231.46 176.316 228.047 170.412 227.704 164.675C228.865 166.473 228.927 169.7 230.088 171.498C231.19 173.204 233.392 175.281 234.493 176.988C234.634 177.205 234.755 177.572 234.556 177.708C230.531 180.451 227.923 181.358 225.55 188.808C223.176 196.258 227.995 203.149 228.636 202.946C229.424 202.696 229.145 201.44 228.692 200.626C227.414 198.329 228.629 195.266 229.671 192.803C230.228 193.552 228.889 195.702 229.171 197.937C229.447 200.12 230.859 202.384 230.088 203.468Z" fill="#E7EAEE"/>
<ellipse cx="246.5" cy="178.8" rx="1" ry="1.2" fill="#FFB61D"/>
<ellipse cx="243" cy="174" rx="1" ry="1.2" fill="#FFB61D"/>
<path d="M93.4553 185.785C94.0334 187.08 93.1246 188.931 91.9006 188.952C90.8524 181.881 89.722 174.564 86.3111 168.663C79.7799 157.362 66.3211 153.651 60.7293 141.647C56.9219 144.899 51.1001 144.07 48.0326 139.839C46.1249 137.208 42.7995 136.885 39.9346 137.472C37.0697 138.059 34.2708 139.356 31.3658 139.246C30.1053 139.198 28.732 138.791 27.9984 137.561C27.2648 136.33 27.6886 134.163 28.937 133.949C34.3757 133.015 39.8145 132.08 45.2532 131.146C45.6803 131.073 46.1335 130.986 46.4578 130.644C46.8246 130.258 46.9398 129.64 47.035 129.065C47.8223 124.31 48.3897 118.641 45.4718 115.288C43.0535 112.509 39.2368 112.605 35.9514 113.38C32.666 114.156 29.28 115.431 26.0422 114.408C22.8044 113.384 20.0966 108.768 21.8421 105.339C23.0112 103.043 21.693 99.9801 19.8897 98.3803C18.0863 96.7805 15.8421 95.9925 14.0942 94.3064C12.3463 92.6203 11.2371 89.3671 12.6293 87.2573C13.2416 86.3294 14.2004 85.8406 15.141 85.4845C18.254 84.3061 21.7253 84.2162 24.726 85.758C27.7268 87.2999 30.1637 90.6046 30.652 94.4777C31.0499 97.633 30.2939 101.304 32.0322 103.719C34.3048 106.877 38.5052 105.106 41.982 105.068C45.5379 105.029 49.0543 107.291 50.9953 110.867C52.9362 114.442 53.2394 119.216 51.7725 123.104C55.903 118.061 61.4662 114.192 67.3546 114.455C72.7936 114.699 77.791 118.453 81.4286 123.311C85.0662 128.169 87.5477 134.086 89.981 139.928C90.8875 142.105 93.1869 143.284 95.1245 142.567C97.062 141.85 98.4076 139.32 98.1344 136.909C99.823 137.351 99.9989 140.09 100.051 142.163C100.16 146.518 101.474 150.818 103.738 154.225C104.495 152.549 105.073 150.756 105.452 148.905C107.105 151.184 107.721 154.483 107.038 157.391C106.355 160.298 104.394 162.725 101.993 163.634C100.715 164.117 99.1533 164.35 98.5192 165.766C100.915 170.8 102.976 176.064 104.675 181.49C105.586 184.4 106.244 188.144 104.326 190.234C102.108 188.269 100.848 185.153 99.6712 182.161C97.8358 177.495 96.0005 172.829 94.1651 168.162" fill="white"/>
<path d="M100.469 260.695C100.02 257.559 102.621 254.372 105.244 254.846C107.585 255.269 109.205 257.908 111.413 258.936C113.676 259.988 116.472 259.062 117.964 256.765C118.927 258.738 117.984 261.254 116.837 263.079L116.613 263.433C115.512 265.144 114.258 266.891 114.204 269.029C114.039 275.666 109.973 281.899 104.643 283.685C102.543 284.388 102.541 288.371 104.213 290.049C105.836 291.678 108.14 291.737 110.266 291.67L111.134 291.639C114.859 291.501 118.667 291.232 122.023 289.322C125.582 287.295 128.518 282.903 128.089 278.204C127.974 276.94 127.632 275.615 128.031 274.437C128.43 273.259 130.078 272.748 130.474 273.927C130.226 272.446 131.622 269.659 133.049 269.881C133.892 270.013 133.541 271.66 133.199 272.961C132.978 273.427 132.837 273.913 132.786 274.276C132.839 273.363 133.132 271.156 132.673 270.86C131.636 270.193 131.027 274.318 130.749 275.699C130.743 275.681 129.841 273.211 128.715 274.173C127.585 275.14 129.526 281.618 127.892 284.807C124.399 291.624 116.683 292.779 110.024 293.217C107.42 293.388 106.556 297.435 106.41 300.559C112.973 301.557 120.233 298.768 125.385 293.786C130.536 288.805 136.241 276.107 136.033 274.696C135.822 273.293 133.327 276.577 133.315 276.593C133.329 276.567 135.422 272.796 134.831 272.202C134.27 271.64 133.296 274.189 132.844 274.639C132.858 274.619 132.877 274.59 132.897 274.549C132.73 274.595 132.962 273.86 133.199 272.961C133.418 272.497 133.717 272.052 134.089 271.77C136.578 269.881 134.896 274.029 134.981 274.173C135.063 274.306 135.916 273.177 136.304 273.542C136.979 273.931 136.224 277.428 135.63 278.927L135.548 279.131C132.515 286.676 128.012 293.561 121.996 297.812C115.981 302.062 108.348 303.403 101.887 300.232C99.6269 299.123 97.7278 302.502 96.892 305.255L94.391 313.496C93.1136 317.704 91.4697 322.378 87.9877 323.991C91.1106 333.76 92.1155 344.493 90.8764 354.851C90.4469 358.44 89.6564 362.198 87.4877 364.723C83.8124 369.002 77.8325 368.095 72.9281 366.327L70.4467 365.421C66.2685 363.911 61.9187 362.611 57.9623 364.53C56.2539 365.358 54.7424 366.754 52.9662 367.342C51.1899 367.93 48.9026 367.356 48.2123 365.306C50.1265 360.812 52.7839 356.776 55.9838 353.5C56.4739 352.999 57.0538 352.486 57.6937 352.574C58.7945 352.728 59.1636 354.394 59.9144 355.372C60.8725 356.62 62.4552 356.697 63.8803 356.649L80.2474 356.011C78.565 351.436 77.4465 346.562 76.9389 341.599L81.9174 356.551C78.467 357.617 74.8732 358.012 71.3187 357.719L70.809 357.674C69.2756 357.53 67.7198 357.342 66.2435 357.828C64.6033 358.369 63.0648 360.032 63.0883 362.073L77.1332 366.009C79.4446 366.644 81.8898 367.176 84.0844 366.153C87.5634 364.53 89.1031 359.663 89.682 355.238C90.2161 351.155 90.2741 346.981 89.8539 342.879L89.8285 342.649C89.7657 342.146 89.6508 341.633 89.3246 341.324C89.0128 341.03 88.5899 341.003 88.1889 341.008L77.0267 341.245C75.0325 341.288 74.4558 337.842 75.1596 335.602C75.8635 333.362 77.1741 331.051 76.518 328.791C75.566 325.514 71.5067 325.704 69.059 327.552C66.6741 329.353 64.6065 332.164 61.8402 332.626L61.6205 332.658C59.015 332.971 56.8625 335.094 54.9066 337.217L31.0228 363.35C30.645 363.763 30.2309 364.197 29.723 364.267C29.2207 364.336 28.7432 364.033 28.3099 363.709L28.2181 363.64C24.658 360.93 21.3922 357.662 18.5316 353.946C17.2402 352.267 19.1502 349.489 21.0531 349.424C22.9559 349.359 24.6911 350.693 26.5668 351.082C30.7762 351.956 34.5525 348.065 37.4603 344.309C42.8086 337.401 47.6647 329.945 51.9584 322.048L50.6058 320.034L68.2406 307.453C67.2821 307.308 66.4442 306.366 66.2611 305.228C71.0712 304.107 73.9445 298.34 76.1381 293.054L76.4398 292.325C78.6124 287.106 81.3382 281.455 86.0316 280.118C82.592 275.735 77.2506 274.066 72.2455 274.488C67.3794 274.898 62.7441 277.054 58.2953 279.47L57.9144 279.678C56.0258 280.712 53.9273 282.126 53.5433 284.574C53.3648 285.713 53.6021 286.925 53.306 288.029C53.0097 289.132 51.7247 289.963 51.0961 289.084C51.4991 290.584 49.8924 292.045 48.6537 291.523C47.4153 291 46.8114 289.206 46.9799 287.644C47.1485 286.081 47.9061 284.709 48.6801 283.436C54.8855 273.228 64.3594 264.9 74.889 264.881C83.9835 264.865 92.8564 271.572 96.7709 281.423C97.5699 283.432 100.389 282.808 101.217 280.816C102.045 278.823 101.469 276.417 100.692 274.395L100.509 273.928C99.7682 272.06 98.9259 270.173 98.9467 268.117C98.9558 267.223 99.1311 266.332 99.0599 265.442C98.9713 264.335 98.505 263.278 98.5814 262.17C98.6582 261.062 99.7593 259.98 100.469 260.695ZM58.268 355.22C58.131 355.217 58.0149 355.325 57.9135 355.441L53.1361 361.116C52.4634 361.916 51.7406 362.868 51.8031 364.001C51.8607 365.042 52.7027 365.926 53.5697 365.856C54.4364 365.785 55.1719 364.774 55.1127 363.734L55.098 363.487C55.0778 363.09 55.0864 362.658 55.3803 362.564L55.976 364.207L57.2211 362.731C56.7498 362.347 56.6166 361.479 56.9428 360.919C57.3897 361.293 57.6227 362.002 57.5082 362.641C58.7571 362.16 60.0839 361.97 61.392 362.086C61.9344 362.134 62.2996 361.424 62.4281 360.789C62.5565 360.155 62.6139 359.427 63.0346 359.013C63.3606 358.692 63.0353 357.969 62.6137 357.957C62.1917 357.947 61.8518 358.394 61.6947 358.865C61.5378 359.334 61.5002 359.853 61.3383 360.321C61.1763 360.788 60.8257 361.227 60.4047 361.198C59.5515 360.479 61.2458 358.636 60.5131 357.747L58.6498 355.491C58.5432 355.361 58.4193 355.224 58.268 355.22ZM20.0648 352.567C19.6892 352.066 19.1055 351.597 18.7172 352.038C21.6795 356.675 25.4746 360.543 29.768 363.299C30.0455 363.477 30.4426 363.223 30.475 362.848C26.5081 360.355 22.9732 356.877 20.1586 352.698L20.0648 352.567ZM57.6664 353.985C57.5787 353.425 56.8603 353.688 56.514 354.077C54.2804 356.591 52.2186 359.326 50.3588 362.244C50.1524 362.569 49.9587 363.068 50.2152 363.335C52.5788 360.085 55.066 356.963 57.6664 353.985ZM23.6097 351.248L23.4838 351.423C22.8359 352.352 22.2582 353.691 22.9388 354.531C25.1006 357.196 27.5417 359.537 30.1849 361.479C30.4377 361.664 30.7877 361.837 31.0033 361.594L35.4564 356.561C35.6462 356.346 35.7769 355.863 35.5189 355.821C34.1999 355.606 32.9763 354.665 32.2562 353.323L32.1039 353.028C31.7765 352.421 31.2389 351.738 30.8051 352.107L30.7533 352.157C30.3033 352.638 29.6248 352.567 29.0277 352.669C28.4306 352.772 27.747 353.339 27.9154 354.034C28.0275 354.5 27.3395 354.692 27.0795 354.321C26.8199 353.949 26.8514 353.409 26.7787 352.932C26.7058 352.455 26.3715 351.925 25.9857 352.07C25.9435 352.621 25.8661 353.247 25.4828 353.556C25.0993 353.864 24.4131 353.385 24.6361 352.9C24.9838 352.144 24.3125 351.064 23.6097 351.248ZM33.7484 351.07C33.4879 350.659 33.1287 350.235 32.7553 350.437C32.2829 350.692 32.4796 351.555 32.7914 352.052C33.6203 353.372 34.7779 354.393 36.0756 354.947C36.2659 355.028 36.4668 355.1 36.6674 355.072C37.02 355.022 37.315 354.622 37.3129 354.196C35.9812 353.717 34.7832 352.718 33.9437 351.389L33.7484 351.07ZM53.393 323.315C53.0426 323.362 52.761 323.672 52.5121 323.972C45.8673 331.969 42.3965 343.989 34.0658 349.242L34.2894 349.655C34.816 350.616 35.3901 351.559 36.1928 352.174C37.1102 352.877 38.4168 353.027 39.2357 352.167L58.8803 331.535C59.0912 331.314 59.3177 331.055 59.3353 330.719C59.3502 330.431 59.2056 330.17 59.0648 329.937C57.7481 327.752 56.2276 325.743 54.5414 323.961C54.2142 323.615 53.8261 323.257 53.393 323.315ZM342.981 275.3C344.617 274.669 346.107 276.57 347.102 278.252C349.491 282.295 351.881 286.337 354.271 290.379C354.455 290.691 354.643 291.014 354.713 291.386C355.023 293.033 352.975 293.866 351.654 293.282C349.251 292.217 347.322 289.046 344.802 289.59C342.879 290.006 341.796 292.397 340.875 294.465C335.571 306.383 326.644 315.918 316.164 320.86C313.463 322.133 310.672 323.109 307.885 324.083C306.009 324.739 304.132 325.395 302.255 326.051C310.938 327.937 320.309 329.286 328.239 324.643C333.768 321.405 337.916 315.622 341.9 309.995C344.474 306.36 347.141 302.498 347.891 297.813C348.145 296.226 349.814 295.469 351.112 295.899C352.41 296.329 353.398 297.562 354.318 298.742C356.641 301.726 358.964 304.709 361.286 307.693C361.835 308.398 362.413 309.176 362.494 310.136C362.574 311.096 361.856 312.183 361.084 311.914C358.566 311.036 356.046 310.158 353.528 309.281C352.819 309.034 352.034 308.792 351.367 309.17C350.819 309.481 350.479 310.141 350.17 310.767C347.483 316.213 344.796 321.659 342.109 327.105C339.821 331.741 335.581 334.429 331.415 336.439C321.426 341.259 310.586 343.525 299.827 343.039C298.658 342.987 297.488 342.901 296.333 342.683C291.8 341.826 287.724 338.974 283.771 336.177C283.154 335.74 282.595 334.477 283.29 334.268C284.077 334.81 284.865 335.352 285.652 335.894C288.628 337.944 291.648 340.017 294.968 341.059C299.529 342.49 304.341 341.886 309.025 341.248C319.587 339.811 330.909 337.839 338.659 329.108C343.298 323.88 346.108 316.788 348.811 309.873C349.799 307.346 352.837 307.324 355.004 308.341C357.171 309.358 359.321 311.046 361.62 310.613C358.627 306.178 355.487 301.885 352.21 297.749C351.211 296.488 349.291 297.206 348.521 298.681C347.751 300.156 347.794 302.018 347.863 303.756C349.021 304.537 349.962 305.775 350.503 307.231C349.747 307.554 349.073 306.609 348.577 305.851C348.08 305.093 347.097 304.4 346.564 305.121C343.531 309.23 340.498 313.339 337.465 317.448C336.23 319.12 334.989 320.8 333.559 322.231C330.026 325.764 325.506 327.6 320.973 328.532C313.052 330.16 304.772 329.202 297.256 325.788C309.407 322.978 321.879 318.533 330.818 308.264C334.666 303.842 337.706 298.501 340.358 292.955C341.169 291.26 342.071 289.41 343.603 288.743C346.934 287.295 350.15 292.404 353.652 291.753C350.968 286.715 348.036 281.867 344.874 277.245C344.584 276.821 344.232 276.363 343.775 276.355C343.15 276.344 342.766 277.149 342.521 277.839C341.91 279.555 341.299 281.271 340.689 282.987C340.278 284.141 339.903 285.608 340.604 286.54C340.946 286.995 341.476 287.196 341.824 287.644C342.171 288.092 342.156 289.032 341.652 289.121C341.188 288.293 340.698 287.435 339.973 286.947C339.248 286.458 338.215 286.471 337.694 287.248C327.617 302.265 311.939 311.653 295.881 312.286C294.895 312.325 294.26 313.508 293.754 314.525C291.461 319.135 288.242 323.079 284.448 325.924C283.648 326.523 282.496 327.026 281.864 326.188C285.645 324.27 288.953 321.029 291.276 316.967C292.772 314.351 294.314 311.053 296.953 310.847C305.298 310.197 313.722 308.019 320.904 302.877C323.362 301.117 325.647 299.032 327.925 296.951C333.133 292.196 338.619 286.983 340.66 279.522C341.116 277.852 341.587 275.838 342.981 275.3ZM193.933 228.71C196.069 228.093 198.474 229.849 199.026 232.392L199.054 232.534C199.567 235.266 202.451 236.133 204.784 236.079L205.945 236.046C207.963 235.995 210.066 236.074 211.416 237.768C213.032 239.794 212.67 243.02 212.138 245.77L212.103 245.952C211.349 249.77 209.591 251.508 209.69 257.36C209.716 258.922 209.766 260.356 209.819 261.669C210.003 260.763 210.164 260.16 210.169 260.142C210.282 260.242 232.209 279.809 245.764 282.471C247.392 280.745 246.452 277.38 244.812 275.67C243.172 273.96 240.993 273.028 239.579 271.048C236.189 266.298 238.61 257.801 234.735 253.618C234.148 252.986 233.437 252.487 233.012 251.69C232.284 250.324 232.642 248.422 233.524 247.194C234.405 245.965 235.695 245.279 236.971 244.744C239.62 243.635 242.523 243.016 245.228 243.909C247.932 244.804 250.356 247.507 250.621 250.858C251.134 249.525 252.26 248.561 253.478 248.414L251.71 250.668L253.948 250.722L250.87 252.784C252.777 257.019 252.469 262.241 251.245 266.825C250.497 269.631 249.414 272.442 249.625 275.377C249.833 278.264 251.97 281.214 254.305 280.623L254.422 280.59C257.229 279.739 260.303 280.233 262.826 281.938C266.449 284.388 268.648 288.937 271.139 292.935C273.338 296.464 275.94 299.746 279.193 301.79C282.446 303.835 286.435 304.51 289.824 302.813C291.505 301.971 293.01 300.576 294.794 300.132C296.578 299.689 298.85 300.737 299.062 302.908C298.139 301.058 295.953 300.73 294.233 301.354C292.513 301.978 291.029 303.303 289.356 304.091C285.707 305.81 281.457 304.768 278.097 302.343C274.842 299.994 272.293 296.487 269.993 292.853L269.771 292.501C267.912 289.539 266.131 286.425 263.688 284.155C261.294 281.929 258.078 280.615 255.196 281.683L255.02 281.751C252.263 282.872 249.342 279.706 248.845 276.264C248.349 272.822 249.519 269.382 250.663 266.169C251.844 262.856 249.676 258.989 246.943 257.495C244.407 256.11 241.361 256.142 238.845 257.579C238.03 258.045 237.882 259.329 237.91 260.426L237.913 260.547C238.055 264.421 238.918 268.492 241.274 271.145C242.851 272.921 244.98 273.927 246.402 275.883C247.823 277.839 248.042 281.503 246.068 282.562C249.457 283.296 252.81 284.268 256.104 285.472C238.379 283.296 222.082 273.263 210.381 261.145C210.142 261.706 209.974 262.3 209.871 262.909C209.937 264.362 210 265.65 210.046 266.785C210.606 269.021 211.923 270.994 213.739 271.86C213.595 270.297 214.034 268.671 214.913 267.506C214.343 269.037 213.438 271.972 216.969 274.944C216.97 274.915 217.015 273.44 217.171 272.952C217.455 272.065 218.291 270.805 218.295 270.798C218.037 272.314 217.323 274.303 217.949 275.67C218.324 276.488 223.792 280.788 225.671 281.796C236.998 287.87 248.404 293.13 259.884 298.775C254.162 297.938 248.894 294.741 243.76 291.595C242.652 298.972 246.077 306.409 250.699 311.451C255.32 316.494 261.066 319.746 266.391 323.665L266.922 324.061C272.057 327.918 276.969 332.787 279.236 339.503C279.652 340.735 280.928 341.436 281.977 341.009C283.026 340.582 283.683 339.093 283.388 337.812C284.485 338.893 283.852 341.309 282.522 341.907C281.192 342.503 279.667 341.692 278.686 340.461C277.704 339.23 277.116 337.636 276.401 336.164C273.231 329.643 267.631 325.593 262.077 321.887L259.469 320.155C253.441 316.115 247.264 311.262 244.682 303.616C235.309 305.4 225.551 304.19 216.68 300.142C211.76 297.897 207.105 294.798 202.043 293.068C200.311 292.475 197.923 292.411 197.274 294.428C197.272 294.421 197.181 294.726 196.576 294.788C196.317 294.814 196.082 294.271 196.007 293.91C195.943 293.811 195.92 293.526 195.92 292.935C195.921 292.618 196.458 291.237 197.467 290.383C198.485 289.522 199.688 289.456 199.661 289.345C199.64 289.265 198.922 289.042 198.27 289.421C196.987 290.168 195.878 291.525 195.135 291.422C194.525 291.337 194.091 290.995 194.084 290.258C194.078 289.521 194.241 288.624 194.715 288.161C195.728 287.172 197.036 286.626 198.342 286.649C198.624 286.654 198.937 286.702 199.12 286.958C199.304 287.215 199.213 287.727 198.932 287.742C197.239 287.834 195.282 288.174 194.622 290.258C194.431 290.865 195.642 290.962 196.111 290.639C196.579 290.316 196.934 289.8 197.372 289.421C197.923 288.946 198.607 288.698 199.285 288.727C199.558 288.739 199.859 288.814 200.02 289.079C200.18 289.344 200.067 289.825 199.794 289.831C198.041 289.866 196.44 291.687 196.317 293.785C196.321 293.845 196.365 294.213 196.576 294.298C196.814 294.394 197.078 294.16 197.089 294.137C198.003 292.179 199.672 290.87 201.465 291.526C203.329 292.207 205.001 293.866 206.949 293.78L206.204 289.048C203.19 285.732 198.647 284.563 194.764 286.104C194.349 286.269 193.899 286.508 193.73 286.992C193.561 287.477 193.932 288.18 194.341 287.992C193.698 288.706 192.612 287.494 192.857 286.486C193.102 285.477 194.023 284.958 194.87 284.694C200.508 282.935 206.125 286.896 211.479 289.65C220.805 294.447 231.343 295.789 241.301 293.448C240.869 294.866 239.396 295.294 238.146 295.463C229.277 296.66 220.166 295.195 211.872 291.24C210.859 292.784 211.342 295.183 212.495 296.579C213.647 297.975 215.278 298.609 216.847 299.172C225.641 302.326 234.966 304.738 243.952 302.495L242.495 292.271L242.465 292.084C242.393 291.676 242.261 291.255 241.944 291.125C230.387 286.416 221.593 282.851 210.169 269.783C210.146 269.757 210.123 269.729 210.101 269.7C210.017 273.621 208.983 274.483 204.664 273.415C195.242 271.085 185.595 269.865 176.085 271.468C176.805 267.203 177.705 262.982 178.783 258.827C175.688 260.025 172.036 256.622 172.236 252.728C172.436 248.834 176.41 245.995 179.358 247.64C180.37 244.836 180.434 241.558 179.533 238.699C179.1 237.328 180.824 236.538 182.046 236.537L188.797 236.535C189.741 236.535 191.057 236.009 190.823 234.912C190.267 232.311 191.757 229.339 193.933 228.71ZM69.4222 309.012C68.6302 309.021 67.9039 309.509 67.2172 309.983L52.018 320.464C55.7146 322.82 58.7956 326.546 60.7308 330.999C61.223 332.13 62.6499 331.416 63.4896 330.632C66.6276 327.704 70.2003 325.448 73.9887 324.003C73.2183 323.002 72.7391 321.683 72.6517 320.324C74.8872 322.606 76.5922 325.716 77.1527 329.173C77.7127 332.63 74.8888 336.782 76.1381 339.656C80.7522 340.454 84.4479 340.084 89.0961 339.656C89.3669 339.631 89.6575 339.593 89.8637 339.381C90.2297 339.004 90.1424 338.309 90.0228 337.748L88.2142 329.273C87.8125 327.424 87.3407 325.553 86.3265 324.093C82.23 318.196 77.1381 313.299 71.4506 309.783L71.1752 309.616C70.6199 309.288 70.0363 309.005 69.4222 309.012ZM251.432 300.82C252.769 301.285 253.547 302.895 254.291 304.306C256.461 308.418 259.454 311.902 262.946 314.379C266.947 317.219 271.516 318.712 275.624 321.324C279.733 323.935 283.582 328.164 284.24 333.687C282.568 329.813 280.096 326.44 277.109 323.955C273.015 320.55 268.101 318.876 263.756 315.951C258.56 312.453 254.228 307.133 251.432 300.82ZM83.2406 268.225C77.1447 265.506 70.1861 266.108 64.223 269.222C58.3683 272.28 53.0426 277.54 49.4515 283.879C49.4185 283.933 47.319 287.389 47.6869 289.084C47.794 289.572 49.2172 289.084 49.2172 289.084C49.212 289.111 48.9772 290.329 49.4515 290.523C49.8422 290.68 50.7993 288.747 50.8676 288.655C51.2538 288.14 52.3505 288.947 52.5287 287.254C52.7403 285.241 52.5556 283.053 53.723 281.521C54.8907 279.989 56.4885 279.046 58.0619 278.182C62.3548 275.825 66.8383 273.763 71.5375 273.219C76.2366 272.675 81.2158 273.788 84.9515 277.251C85.8555 278.089 87.058 276.96 87.8412 275.929L87.9056 275.844C88.6862 274.791 90.1802 273.832 90.8695 274.973L90.5609 275.14C89.4804 275.734 88.3892 276.423 87.7592 277.616C87.0692 278.924 87.2659 281.018 88.4623 281.597C88.4771 282.445 87.3809 281.824 86.7162 281.533C86.1847 281.301 85.5938 281.524 85.0785 281.804C81.3501 283.829 79.2934 288.455 77.4857 292.952L76.8549 294.53C74.8781 299.479 72.1098 304.805 67.6224 305.865L69.4574 307.002C74.9667 310.441 80.4488 314.177 84.4838 319.798L84.8558 320.316C85.5504 321.267 86.3232 322.193 87.3451 322.343C89.2541 322.623 90.5479 320.14 91.3295 318.032L100.035 294.545C100.669 294.92 100.536 296.018 100.587 296.865C100.702 298.744 102.479 300.195 103.978 299.633C105.627 299.015 106.318 296.735 106.713 294.698L106.745 294.533C106.852 293.962 106.938 293.296 106.626 292.847C105.455 291.163 103.419 290.933 101.616 290.579C99.8119 290.225 97.7477 289.285 97.3099 287.156C95.5555 278.613 90.1129 271.29 83.2406 268.225ZM270.383 315.363C270.564 315.503 270.687 315.746 270.707 316.002C270.553 316.304 270.232 316.469 269.943 316.397L269.94 316.406C269.684 316.023 269.975 315.339 270.383 315.363ZM267.203 314.606C267.083 314.856 266.863 315.033 266.624 315.069L266.616 315.083C266.293 315.188 266.249 314.521 266.431 314.184C266.688 314.324 266.945 314.465 267.203 314.606ZM262.553 311.779C262.806 311.391 263.439 311.886 263.245 312.321L263.202 312.34C263.016 312.374 262.829 312.408 262.643 312.442C262.532 312.252 262.498 312.001 262.553 311.779ZM260.08 303.983C260.538 303.43 261.347 303.542 261.862 304.016C262.377 304.489 262.67 305.223 262.944 305.929L263.022 306.137C263.366 307.092 263.604 308.293 262.958 308.94C262.444 309.455 261.663 309.258 261.056 308.916C259.743 308.177 258.659 306.87 258.046 305.293C258.812 305.111 259.53 304.648 260.08 303.983ZM261.18 304.527C260.599 304.407 259.98 305.928 259.218 305.975C259.248 306.016 261.869 309.605 262.527 308.19C263.188 306.765 261.839 304.664 261.18 304.527ZM256.399 305.187C256.578 305.016 256.886 305.114 256.971 305.368C257.056 305.623 256.891 305.948 256.663 305.975C256.416 305.903 256.293 305.488 256.448 305.245L256.399 305.187ZM207.809 289.044C207.527 288.85 207.007 288.817 207.036 289.205C206.949 290.781 207.055 292.711 207.899 294.024C208.43 294.851 208.815 295.275 210.693 295.834L210.555 291.422C210.548 291.188 210.521 290.914 210.352 290.797L207.809 289.044ZM108.16 265.62C106.764 265.64 105.3 266.266 104.485 267.625C103.207 269.757 103.9 272.816 103.026 275.223C102.44 275.126 102.333 274.196 102.382 273.472L102.39 273.382C102.455 272.647 102.338 271.638 101.725 271.57C101.362 273.031 102.192 274.483 102.598 275.928C103.116 277.769 102.92 279.88 102.078 281.539C101.237 283.199 99.7654 284.377 98.1654 284.672C97.8123 284.737 97.7066 285.292 97.7435 285.718C97.9289 287.857 99.8174 289.547 101.578 289.152C101.467 285.81 103.343 282.516 105.967 281.405L106.111 281.347C110.137 279.78 112.749 274.788 113.264 269.746C113.388 268.529 113.226 266.959 112.249 266.596L111.748 266.411C110.576 265.984 109.381 265.603 108.16 265.62ZM132.786 274.276C132.771 274.53 132.772 274.682 132.816 274.665C132.801 274.678 132.787 274.689 132.774 274.696C132.757 274.595 132.761 274.449 132.786 274.276ZM111.627 269.669C112.27 269.669 112.405 270.505 112.172 271.563C112.11 271.845 112.053 272.176 111.839 272.323C111.505 272.551 111.074 272.125 111.037 271.666C111.001 271.207 111.379 269.693 111.627 269.669ZM195.113 230.49C192.927 230.325 191.347 233.987 192.721 236.033C193.056 236.532 192.797 237.333 192.342 237.666C191.887 237.999 191.32 237.996 190.786 237.984L182.845 237.795C181.909 237.773 180.579 238.347 180.893 239.406C181.698 242.122 181.69 245.175 180.87 247.885C180.63 248.681 179.968 249.597 179.367 249.156C177.097 247.489 173.637 249.901 173.719 253.093C173.802 256.285 177.38 258.434 179.559 256.602C179.805 261.008 179.168 265.481 177.716 269.539C186.079 268.308 194.629 268.918 202.812 271.326L203.712 271.597C204.634 271.874 205.582 272.115 206.503 271.872C207.547 271.597 208.522 270.466 208.382 269.195C207.663 262.677 208.255 255.957 210.094 249.764L210.263 249.203C210.922 247.052 211.662 244.878 211.584 242.599C211.5 240.122 210.041 237.482 207.976 237.425L197.592 237.138C197.184 237.127 196.613 236.689 196.907 236.349C198.483 234.525 197.298 230.655 195.113 230.49ZM99.764 268.569C99.6367 269.679 99.9709 270.853 100.638 271.638C100.823 271.155 100.879 270.601 100.794 270.079L100.78 270.07C100.89 269.35 100.374 268.586 99.764 268.569ZM108.029 268.391C108.28 268.218 108.616 268.453 108.727 268.774C108.837 269.095 108.79 269.46 108.74 269.802C108.732 269.847 108.364 272.042 107.92 271.305C107.472 270.559 107.425 269.496 107.804 268.697C107.861 268.577 107.929 268.459 108.029 268.391ZM241.256 268.304C241.933 269.383 243.345 269.662 244.275 268.901C244.677 268.571 245.375 268.188 245.496 268.754L245.422 268.933C245.024 269.809 244.249 270.429 243.419 270.518C242.534 270.612 241.621 270.099 241.115 269.222C240.929 268.9 240.931 268.27 241.256 268.304ZM139.12 231.097C139.502 231.098 139.92 231.116 140.207 231.418C140.495 231.721 140.487 232.415 140.119 232.537C139.239 232.83 138.733 234.047 138.84 235.135C138.947 236.223 139.537 237.164 140.229 237.878C141.88 239.581 144.446 240.186 146.273 238.766C148.1 237.346 148.529 233.689 146.798 232.106C150.721 232.01 154.645 232.025 158.567 232.151L160.037 232.202C160.513 232.221 161.038 232.267 161.37 232.675C161.62 232.982 161.702 233.428 161.758 233.851C162.192 237.109 161.718 240.532 160.427 243.446C160.222 243.91 159.745 244.421 159.421 244.068C158.043 242.566 155.725 242.771 154.315 244.229C152.905 245.687 152.361 248.107 152.61 250.321C152.85 252.451 154.143 254.726 155.932 254.618C157.341 254.534 158.908 253.056 159.973 254.166L158.179 263.784C157.86 265.493 157.288 267.521 155.862 267.887C147.625 270.001 138.988 269.841 130.809 267.423L130.412 267.303C129.42 266.991 128.431 266.587 127.657 265.792C126.309 264.408 125.888 262.148 125.619 260.043C124.633 252.346 124.634 244.467 125.622 236.77L125.672 236.398C125.918 234.651 126.348 232.806 127.564 231.844C128.474 231.124 129.625 231.07 130.722 231.07L139.12 231.097ZM110.835 268.285C110.992 267.581 111.95 267.649 112.278 268.264C112.604 268.878 112.008 268.563 111.627 268.569C111.247 268.574 110.892 268.737 110.835 268.285ZM241.614 264.616C241.989 264.861 241.92 265.513 241.965 266.024C242.011 266.534 242.596 267.048 242.795 266.594L242.84 266.625C243.096 266.494 243.352 266.361 243.608 266.23C243.912 266.923 243.45 267.87 242.807 268.009C242.164 268.148 241.504 267.587 241.287 266.847C241.071 266.107 241.241 265.26 241.614 264.616ZM136.199 232.557C133.04 231.84 129.036 231.544 127.378 234.849C126.814 235.974 126.662 237.321 126.547 238.627C125.888 246.127 126.044 253.729 127.012 261.18L127.059 261.529C127.216 262.637 127.463 263.776 128.151 264.52C128.624 265.031 129.245 265.285 129.861 265.493L130.014 265.544C137.891 268.144 146.277 268.491 154.285 266.554L154.729 266.445C155.123 266.345 155.532 266.23 155.841 265.921C156.244 265.519 156.399 264.871 156.534 264.263L158.383 255.886C156.053 257.201 153.017 256.072 151.559 253.526C150.101 250.979 150.243 247.339 151.74 244.824C153.236 242.31 155.926 240.973 158.492 241.236L158.705 241.259C159.065 241.295 159.434 241.311 159.74 241.095C160.126 240.822 160.29 240.262 160.398 239.74C160.826 237.656 160.802 235.441 160.329 233.371L149.473 233.466C149.671 237.082 147.191 240.612 144.187 240.988C141.183 241.363 138.15 238.523 137.722 234.936L137.662 234.403C137.598 233.865 137.497 233.333 137.162 232.991C136.927 232.752 136.618 232.656 136.313 232.583L136.199 232.557ZM249.382 262.078C250.021 262.109 250.463 262.945 250.449 263.712C250.434 264.479 250.094 265.176 249.765 265.833L249.623 266.109C249.476 266.382 249.307 266.638 249.076 266.799C248.766 267.014 248.31 266.99 248.113 266.633C248.85 265.619 249.4 264.409 249.71 263.116C249.24 262.863 248.801 263.503 248.505 264.01C248.209 264.517 247.545 264.97 247.25 264.463C247.483 263.663 247.927 262.954 248.503 262.465C248.763 262.245 249.065 262.064 249.382 262.078ZM239.382 263.173C239.398 262.539 239.542 261.954 240.002 262.265C240.462 262.577 240.322 264.171 240.002 264.172C239.692 264.172 239.366 263.807 239.382 263.173ZM243.844 264.124C243.512 263.964 243.116 260.88 244.255 261.964C244.791 262.475 244.635 264.506 243.844 264.124ZM239.705 260.062C240.38 259.942 241.098 260.417 241.372 261.166C239.876 261.166 239.876 260.181 238.379 261.702C238.46 260.89 239.031 260.183 239.705 260.062ZM239.411 244.441C239.302 244.683 239.26 244.968 239.294 245.241C241.083 245.419 242.845 245.984 244.469 246.902C243.777 247.732 242.625 247.209 241.704 246.809C240.148 246.133 238.438 245.97 236.812 246.341C235.982 246.531 235.153 246.871 234.514 247.533C233.875 248.196 233.458 249.227 233.6 250.226C233.782 251.501 234.782 252.373 235.78 252.864C238.253 254.079 241.219 253.737 243.453 251.977C243.635 251.834 243.89 252.073 243.901 252.332C243.911 252.592 243.765 252.822 243.612 253.005C242.721 254.069 241.395 254.408 240.141 254.495C238.887 254.583 237.608 254.472 236.39 254.842C236.507 255.695 237.395 255.989 238.114 256.052C240.861 256.291 243.65 255.848 246.25 254.757C246.901 254.485 247.5 255.267 247.884 255.954L250.686 260.972C251.606 259.932 251.55 258.136 251.117 256.711C250.683 255.287 249.945 253.991 249.686 252.507C249.477 251.309 249.59 250.035 249.251 248.88C248.555 246.504 246.258 245.462 244.195 245.001C242.618 244.649 241.015 244.461 239.411 244.441ZM244.529 259.949C245.499 260.043 245.759 260.107 246.027 260.872C246.117 261.133 244.801 260.515 244.621 260.577C241.373 261.733 243.557 259.856 244.529 259.949ZM191.743 183.964L211.648 184.445L211.973 184.454C212.571 184.477 213.173 184.54 213.711 184.841C214.928 185.523 215.486 187.202 215.856 188.751C217.831 197.019 217.587 206.029 215.169 214.126L215.068 214.457C214.753 215.453 214.341 216.447 213.598 217.007C212.986 217.468 212.24 217.565 211.515 217.612L211.361 217.621C208.401 217.79 205.43 217.698 202.481 217.349C204.017 216.214 204.405 213.453 203.43 211.632C202.455 209.812 200.394 209.052 198.66 209.643C197.602 210.003 196.616 210.871 196.234 212.108C195.851 213.344 196.221 214.933 197.199 215.536C197.874 215.954 197.758 217.268 197.166 217.841C196.575 218.414 195.752 218.455 194.992 218.47L185.005 218.664C184.255 218.679 183.465 218.683 182.806 218.251C181.872 217.639 181.441 216.321 181.178 215.083C180.543 212.096 180.457 208.943 180.928 205.912C181.496 208.305 183.954 209.759 185.881 208.841C187.808 207.923 188.767 204.844 187.813 202.635C186.859 200.426 184.209 199.589 182.473 200.949L182.401 200.178C182.152 197.472 181.959 194.729 182.392 192.064C182.866 189.144 184.219 186.277 186.438 184.95C188.056 183.983 189.925 183.929 191.743 183.964ZM190.992 185.587C189.685 185.593 188.336 185.615 187.14 186.247C185.356 187.19 184.2 189.377 183.728 191.648C183.256 193.918 183.369 196.297 183.485 198.632C186.622 197.595 189.998 201.42 189.625 205.3C189.253 209.18 185.669 211.982 182.475 211.234C182.33 212.459 182.188 213.732 182.488 214.916C182.788 216.101 183.664 217.172 184.695 217.132L193.953 216.775C194.527 216.753 195.319 216.397 195.153 215.739C194.207 211.999 196.936 207.633 200.193 207.677C203.449 207.721 206.096 212.159 205.08 215.872C207.116 216.422 209.232 216.538 211.3 216.212C211.972 216.106 212.673 215.936 213.188 215.408C213.694 214.888 213.942 214.101 214.153 213.343C216.302 205.617 216.537 197.139 214.822 189.258C214.6 188.239 214.291 187.143 213.58 186.548L213.471 186.463C212.973 186.103 212.372 186.042 211.787 186.012L211.641 186.005C205.449 185.728 199.253 185.587 193.057 185.583L190.992 185.587ZM123.244 174.801C133.011 172.518 143.183 172.75 152.871 175.476C154.147 175.835 154.502 177.909 154.078 179.397C153.655 180.885 152.748 182.136 152.408 183.655C152.068 185.173 152.691 187.229 154 187.279C156.726 187.381 159.037 190.705 158.67 193.948C158.304 197.19 155.383 199.65 152.709 199.006C152.082 198.855 151.859 199.967 151.928 200.731L152.692 209.197C152.816 210.578 151.181 211.014 150.027 210.907L143.29 210.278C142.232 210.179 140.813 210.398 140.65 211.657C140.244 214.79 137.566 217.237 134.941 216.874C132.315 216.511 130.171 213.396 130.37 210.234C127.567 210.247 124.764 210.109 121.971 209.82L121.701 209.789C120.701 209.67 119.652 209.43 118.996 208.537C118.112 207.333 118.328 205.516 118.593 203.927L118.62 203.77C119.806 196.798 120.273 189.649 120.005 182.54L119.955 181.316C119.881 179.112 119.998 176.612 121.524 175.479C121.988 175.134 122.527 174.974 123.064 174.844L123.244 174.801ZM150.516 176.385C141.806 174.307 132.768 174.227 124.034 176.152C122.68 176.45 120.99 177.305 121.099 178.951C121.698 188.037 121.215 197.224 119.67 206.147C119.446 207.444 120.882 208.156 121.981 208.293C125.53 208.736 129.12 208.703 132.663 208.194C131.269 210.165 131.719 213.585 133.551 214.947C135.349 216.282 138.033 215.303 138.934 213.019L138.983 212.888C139.136 212.459 139.234 211.981 139.156 211.524C138.966 210.414 137.808 209.406 138.314 208.449L148.477 209.359C149.75 209.472 151.574 208.905 151.328 207.402C150.62 203.065 150.471 198.596 150.889 194.205C151.357 196.337 153.498 197.689 155.227 196.943C156.955 196.196 157.889 193.518 157.118 191.517C156.346 189.516 154.04 188.636 152.447 189.734C151.855 190.141 151.325 189.077 151.247 188.264C150.944 185.075 151.408 181.785 152.571 178.895C153.064 177.667 151.63 176.651 150.516 176.385ZM225.704 166.476C226.865 168.274 227.426 170.653 228.587 172.45C229.689 174.156 231.392 175.282 232.494 176.988C232.634 177.205 232.755 177.571 232.556 177.707C228.532 180.45 225.089 184.822 223.947 190.204C222.805 195.586 224.393 201.94 228.334 204.852C229.029 205.365 229.858 205.777 230.647 205.528C231.435 205.278 232.026 204.089 231.574 203.275C230.296 200.978 230.14 197.847 231.182 195.384C232.283 196.865 233.384 198.347 234.485 199.828C235.244 199.594 235.432 198.368 235.23 197.459C235.028 196.55 234.591 195.678 234.664 194.741C234.739 193.805 235.757 192.967 236.295 193.652C238.443 196.383 241.894 197.158 244.983 196.557C248.072 195.956 250.902 194.176 253.669 192.422C254.758 191.732 255.847 191.043 256.936 190.353C256.7 191.483 255.936 192.432 255.003 192.754C258.156 195.472 262.372 196.326 266.094 195.001C266.735 194.773 267.393 194.457 267.809 193.828C268.225 193.2 268.291 192.178 267.789 191.648C267.608 191.456 267.363 191.333 267.246 191.078C267.13 190.823 267.311 190.393 267.533 190.51C268.79 190.405 269.565 192.433 269.053 193.815C268.541 195.197 267.276 195.932 266.063 196.344C262.066 197.7 257.552 196.63 254.285 193.553C251.327 195.413 248.269 197.217 244.965 197.799C241.662 198.381 238.024 197.564 235.636 194.764C236.031 195.79 236.432 196.855 236.445 197.985C236.457 199.115 235.97 200.335 235.078 200.698C233.607 201.296 232.32 199.408 231.556 197.783C230.661 200.46 233.66 203.856 232.099 206.049C231.232 207.266 229.588 206.954 228.396 206.237C223.929 203.548 221.83 196.779 222.797 190.896C223.765 185.012 227.291 180.085 231.489 176.831C228.639 174.325 226.554 170.592 225.704 166.476ZM341.645 103.041C342.521 102.905 343.319 103.602 344.011 104.261L351.091 111.004C352.47 112.318 350.855 115.149 349.098 115.284C347.341 115.42 345.707 114.203 343.958 113.955C339.801 113.366 336.631 118.065 334.052 122.022C331.695 125.638 329.114 129.045 326.338 132.203L325.963 132.626C323.632 135.23 321.007 137.665 317.887 138.338C313.549 139.274 309.24 136.609 305.697 133.463C302.153 130.318 298.873 126.541 294.745 124.688C285.059 131.03 277.602 142.104 274.467 154.798C278.529 147.375 286.948 143.867 293.969 146.674L287.301 130.942C291.182 135.609 293.895 141.657 295.006 148.114L294.264 147.957C289.541 146.978 284.416 146.283 280.403 149.333C276.505 152.295 273.81 158.607 269.203 158.329C273.68 161.023 277.502 165.031 281.689 168.329L282.148 168.686C286.229 171.816 290.913 174.27 295.72 173.743C298.659 173.422 302.065 170.757 301.363 167.318C300.879 164.949 298.699 163.742 296.727 163.151C289.307 160.925 280.666 162.388 274.752 156.569C279.04 158.673 283.586 160.022 288.198 160.557C292.166 161.017 296.377 160.945 299.814 163.367L300.805 164.079C302.396 165.21 304.168 166.284 305.5 164.976C306.117 164.371 306.39 163.404 306.877 162.648C307.364 161.891 308.33 161.359 308.936 161.98L309.182 164.292C309.36 162.805 310.556 161.595 311.808 161.637C313.06 161.679 314.198 162.966 314.307 164.463C314.505 167.18 311.937 168.807 309.758 169.672L298.464 174.039C294.429 175.6 289.954 174.792 286.064 172.769C282.442 170.885 279.246 168.018 276.192 165.005L275.516 164.334C273.21 162.031 270.093 159.529 267.476 161.29C272.022 161.622 275.338 166.324 278.05 170.771L278.31 171.199C278.749 171.926 279.202 172.691 279.31 173.578C279.613 176.063 277.261 177.712 275.275 178.502C276.948 179.579 276.119 182.703 274.822 184.367C272.034 187.945 267.97 190.041 263.889 190.008C267.676 188.744 271.224 186.457 274.192 183.365C274.922 182.604 275.679 181.44 275.246 180.403C274.512 178.641 271.643 180.039 270.92 178.271L271.294 178.252C273.365 178.142 275.577 177.855 277.029 176.116C278.569 174.272 278.165 170.257 276.004 169.949L266.165 168.544C268.944 167.676 271.886 167.566 274.704 168.223C274.338 165.2 271.551 163.414 269.009 163.245C266.467 163.077 263.96 164.014 261.414 164.088C257.896 164.19 254.732 167.119 253.032 170.817C252.103 172.837 251.366 176.944 250.494 180.077C250.305 180.755 249.778 180.703 249.759 180.7C249.661 185.136 245.941 188.949 242.275 188.372C238.608 187.795 235.834 182.96 236.692 178.644C238.33 170.41 249.087 169.588 251.727 161.739C252.041 158.872 250.225 155.812 247.827 155.538C245.428 155.265 243.089 158.213 243.663 161.021C242.773 160.968 242.358 159.295 243.078 158.665L242.46 158.132C241.215 157.071 239.915 156.073 238.441 155.633C236.721 155.12 234.686 155.542 233.59 157.213C230.911 161.299 227.517 164.708 223.693 167.152L225.96 172.174C224.984 172.733 223.758 172.603 222.879 171.847C224.29 173.872 223.14 177.548 220.967 177.959C218.798 179.051 216.611 175.789 216.825 172.978C217.038 170.167 218.602 167.812 219.595 165.253C221.973 159.123 221.192 151.379 224.703 146.09C226.124 143.948 228.115 142.459 230.158 141.238C238.263 136.39 247.855 135.231 256.603 138.042C258.093 131.637 261.046 125.73 265.056 121.139L265.295 120.869C266.829 119.174 268.738 117.659 270.773 117.937L270.933 117.962C272.953 118.332 274.71 116.461 276.178 114.73L276.631 114.197C279.625 110.703 283.121 107.378 287.265 107.032C290.807 106.736 294.197 108.687 297.254 110.854C300.713 113.305 304.004 116.099 307.08 119.198L307.621 119.747C310.641 122.849 313.944 126.474 317.911 126.189C322.097 125.888 325.064 121.405 327.849 117.643C331.065 113.299 334.728 109.474 338.434 105.728L340.024 104.126C340.505 103.642 341.022 103.138 341.645 103.041ZM92.4047 166.077C94.24 171.582 96.0906 177.155 96.7592 183.029C96.9416 184.632 97.0069 186.388 96.2621 187.737C95.5172 189.085 93.662 189.603 92.8344 188.325C94.1071 188.006 95.0805 186.459 94.9887 184.903C95.5767 185.384 95.6784 186.525 95.1879 187.144C95.3751 187.439 95.8023 187.309 95.9672 186.995C96.1319 186.681 96.1112 186.281 96.0814 185.911C95.6505 180.569 94.4957 175.312 92.6752 170.409C92.1567 169.013 91.6112 167.273 92.4047 166.077ZM15.6654 84.135C18.7785 82.9566 22.2506 82.8666 25.2513 84.4085C28.252 85.9504 30.6888 89.2553 31.1771 93.1282C31.5749 96.2835 30.8188 99.9543 32.557 102.369C34.8297 105.527 39.0304 103.756 42.5072 103.718C46.063 103.679 49.579 105.941 51.5199 109.517C53.4608 113.093 53.7642 117.867 52.2972 121.754C56.4276 116.711 61.9909 112.843 67.8793 113.106C73.3182 113.349 78.3159 117.103 81.9535 121.961C85.5911 126.819 88.073 132.736 90.5062 138.578C91.4128 140.755 93.7123 141.935 95.6498 141.217C97.5871 140.499 98.9327 137.97 98.6596 135.559C100.348 136.001 100.524 138.74 100.576 140.813C100.685 145.168 102 149.468 104.263 152.875C105.02 151.199 105.597 149.406 105.977 147.555C107.629 149.834 108.246 153.134 107.563 156.041C106.88 158.949 104.919 161.376 102.518 162.284C101.24 162.768 99.6784 163 99.0443 164.416C101.44 169.45 103.5 174.714 105.2 180.14C106.111 183.05 106.769 186.795 104.851 188.884C102.633 186.919 101.372 183.803 100.196 180.812C98.3603 176.146 96.5252 171.479 94.6898 166.813C98.3261 171.996 101.016 178.13 102.517 184.661C102.639 185.192 102.795 185.788 103.207 186.028C103.62 186.267 104.246 185.706 103.987 185.252C104.341 186.037 104.695 186.823 105.049 187.608C104.517 179.752 102.182 172.082 98.3695 165.663C92.8869 166.915 86.8865 163.478 84.2504 157.574C85.9512 159.014 87.6521 160.453 89.3529 161.892C91.0919 163.363 92.9975 164.898 95.1244 164.822C96.5184 164.771 97.8209 164.026 99.0756 163.295C101.265 162.02 103.522 160.683 105.095 158.453C106.668 156.224 107.377 152.84 106.112 150.344C106.138 152.031 105.369 153.704 104.165 154.575C100.79 150.594 99.0273 144.726 99.5092 139.075C98.2004 140.721 96.753 142.357 94.9291 142.976C93.1053 143.595 90.8219 142.842 90.0551 140.762C87.8781 134.857 85.4916 128.965 81.9828 124.07C78.4739 119.174 73.6907 115.312 68.3461 114.561C63.0017 113.81 57.1566 116.675 54.6078 122.362C54.0391 123.631 52.244 122.91 51.8334 121.556C51.423 120.202 51.8354 118.717 52.014 117.292C52.7215 111.647 49.0032 105.755 44.2836 105.041C42.1478 104.719 39.9982 105.326 37.848 105.449C35.6977 105.571 33.3182 105.071 31.9418 103.085C30.2913 100.704 30.6873 97.2142 30.1967 94.1731C29.5962 90.4523 27.4623 87.1344 24.6146 85.4954C21.7669 83.8564 18.2748 83.9361 15.4808 85.7034C14.6533 86.2268 13.8302 86.9831 13.6117 88.0745C13.27 89.7812 14.5303 91.3197 15.7592 92.2718C17.4448 93.5777 19.3119 94.552 20.8851 96.0462C22.4584 97.5404 23.7529 99.7446 23.6596 102.15C23.5812 104.168 22.5426 106.101 22.8539 108.086C23.1405 109.914 24.5469 111.251 26.0414 111.743C27.5358 112.236 29.1201 112.046 30.6615 111.853C33.046 111.553 35.4304 111.254 37.8148 110.954C40.5067 110.616 43.4397 110.343 45.7113 112.109C47.6027 113.579 48.6624 116.247 48.9945 118.922C49.3265 121.597 49.0232 124.321 48.7201 127.001C48.5229 128.745 47.9484 130.936 46.4847 131.037C40.3407 131.464 34.2343 132.669 28.3002 134.627C31.074 137.54 35.3023 136.495 38.893 135.496C42.4836 134.498 46.9443 134.067 49.1752 137.588C51.9588 141.981 58.1532 142.334 61.2709 138.277C64.3884 134.219 63.5941 126.839 59.7201 123.866C62.0088 124.276 63.7205 126.855 64.1537 129.583C64.5869 132.311 63.9703 135.129 63.0883 137.697C62.8581 138.366 62.6045 139.062 62.6517 139.784C62.6875 140.329 62.8933 140.836 63.1137 141.315C66.6739 149.046 74.3648 152.268 80.2406 157.589C87.6616 164.31 92.4057 175.111 92.8305 186.256C93.2138 185.649 93.5965 185.042 93.9799 184.435C94.558 185.73 93.6492 187.582 92.4252 187.603C91.3769 180.532 90.2472 173.214 86.8363 167.313C80.3051 156.013 66.8461 152.301 61.2543 140.297C57.4471 143.549 51.6256 142.72 48.558 138.49C46.6503 135.858 43.3243 135.535 40.4594 136.122C37.5946 136.709 34.7957 138.007 31.891 137.897C30.6307 137.849 29.2575 137.442 28.5238 136.211C27.7902 134.98 28.2139 132.813 29.4623 132.599C34.9008 131.665 40.3392 130.73 45.7777 129.796C46.2048 129.723 46.6586 129.636 46.9828 129.294C47.3496 128.908 47.4648 128.29 47.5599 127.715C48.3473 122.96 48.9142 117.292 45.9965 113.939C43.5782 111.16 39.7614 111.255 36.476 112.031C33.1907 112.806 29.8045 114.082 26.5668 113.058C23.3291 112.034 20.6212 107.418 22.3666 103.99C23.5357 101.693 22.2178 98.6304 20.4144 97.0305C18.6111 95.4308 16.3674 94.6424 14.6195 92.9563C12.8716 91.2703 11.7624 88.0173 13.1547 85.9075C13.7669 84.98 14.725 84.4911 15.6654 84.135ZM257.727 158.389C256.857 158.123 255.818 158.415 255.326 159.315C252.856 163.822 249.47 167.601 245.544 170.229C243.978 171.277 242.312 172.158 240.929 173.529C239.442 175.002 238.335 177.019 237.793 179.241C237.431 180.726 237.336 182.406 237.964 183.758C238.383 184.66 239.083 185.329 239.827 185.848C241.564 187.062 243.375 187.55 245.601 186.56C247.812 185.576 249.211 181.049 249.23 180.989C248.701 179.698 249.737 176.975 250.254 176.2C250.771 175.427 250.967 174.425 251.215 173.48C252.564 168.334 255.939 164.012 260.131 162.065C260.73 161.787 260.397 160.69 259.949 160.139C259.322 159.369 258.596 158.655 257.727 158.389ZM245.889 184.437C247.046 183.745 246.32 185.773 243.9 185.525C243.682 185.502 243.397 185.401 243.399 185.137C243.401 184.9 244.732 185.128 245.889 184.437ZM242.231 182.776C242.744 182.007 242.609 182.882 243.263 183.232C243.917 183.582 245.499 183.36 244.86 183.68C243.055 184.584 241.9 183.272 242.231 182.776ZM238.319 181.112C238.48 181.112 238.437 181.665 238.622 181.918C238.913 182.314 239.044 182.143 239.137 182.314C239.347 182.698 238.546 182.566 238.372 182.314C238.2 182.061 238.03 181.112 238.319 181.112ZM238.75 178.983C238.96 178.733 238.999 180.027 239.302 180.246C239.637 180.489 240.21 180.518 240.391 180.587C240.627 180.677 240.5 180.953 240.243 181.013C239.82 181.111 239.186 181.097 238.75 180.587C238.315 180.077 238.541 179.233 238.75 178.983ZM250.254 177.246C249.759 177.247 249.585 179.936 249.509 180.253C249.932 180.481 250.302 180.108 250.352 179.634C250.418 179.007 250.954 177.157 250.254 177.246ZM241.912 177.425C242.225 176.601 243.03 176.006 243.748 176.283C244.466 176.561 242.712 177.108 242.409 177.739C242.103 178.376 242 179.108 241.925 180.077C241.689 179.218 241.601 178.249 241.912 177.425ZM243.139 173.847C244.187 173.534 245.37 174.018 246.04 175.033C246.71 176.049 246.831 177.542 246.337 178.694C245.869 178.013 246.814 175.144 243.139 173.847ZM222.214 166.78C221.675 166.38 220.947 166.523 220.418 166.945C219.89 167.366 219.522 168.016 219.19 168.664C218.554 169.906 217.988 171.242 217.833 172.688C217.679 174.134 217.998 175.719 218.901 176.695L218.714 173.185C218.683 172.597 218.976 171.732 219.407 172.015C219.4 173.819 219.745 175.625 220.406 177.246C220.763 175.966 220.771 174.548 220.429 173.261L220.327 172.883C220.262 172.629 220.214 172.371 220.244 172.111C220.288 171.72 220.597 171.34 220.913 171.446L221.579 174.478C221.668 174.88 221.786 175.328 222.093 175.521C222.4 175.713 222.888 175.354 222.741 174.978C222.018 173.137 221.77 171.032 222.04 169.023C222.787 169.995 223.646 170.844 224.585 171.535C224.969 170.852 224.133 170.174 223.67 169.564C223.048 168.742 223.001 167.363 222.214 166.78ZM303.326 166.803C303.129 166.652 302.891 166.541 302.663 166.603C302.227 166.722 302.071 167.358 301.994 167.887L301.674 170.077C301.631 170.377 301.605 170.741 301.803 170.931C301.897 171.021 302.024 171.048 302.144 171.059C302.991 171.132 303.844 170.449 304.113 169.482C304.381 168.515 304.04 167.354 303.326 166.803ZM311.712 162.884C311.395 162.745 309.513 164.92 309.491 164.946C308.759 165.625 307.648 166.284 307.012 165.478C306.773 165.174 306.356 165.447 306.097 165.725L305.949 165.888C305.332 166.588 304.748 167.518 305.01 168.46C305.298 169.493 306.412 169.782 307.314 169.66C309.538 169.36 311.945 167.822 313.191 165.888C313.389 165.579 312.369 165.885 312.004 166.17C311.64 166.455 311.015 166.686 310.95 166.17C311.841 165.71 313.524 164.08 312.906 163.708C312.544 163.492 311.524 164.995 310.763 165.508C310.771 165.492 312.028 163.025 311.712 162.884ZM222.31 165.139C221.681 164.963 221.007 165.03 220.411 165.329C221.282 165.688 222.183 165.941 223.096 166.084C223.159 165.599 222.708 165.251 222.31 165.139ZM308.322 163.708C308.263 161.713 306.916 164.537 306.902 164.567C306.705 164.7 306.892 165.153 307.099 165.045C307.47 164.818 308.35 164.207 308.322 163.708ZM269.09 119.111C262.518 124.076 258.029 132.807 257.259 142.078C257.355 139.816 254.917 138.481 252.953 138.14C245.028 136.764 236.752 138.459 229.657 142.912C228.27 143.783 226.907 144.774 225.842 146.151C222.396 150.606 222.951 157.593 221.139 163.271C221.978 164.737 223.733 165.099 225.146 164.562C226.558 164.024 227.699 162.783 228.754 161.534C231.374 158.435 233.773 155.065 235.915 151.476L236.818 149.954C238.033 147.923 239.334 145.944 241.145 144.764C244.568 142.533 248.774 143.756 252.522 145.03L252.749 145.109C253.397 145.343 254.061 145.667 254.371 146.37C254.649 147 254.561 147.763 254.466 148.467L253.431 156.145C255.522 156.735 256.955 153.823 257.858 151.45L257.909 151.317C261.088 142.854 267.007 135.926 274.136 132.323C271.446 128.621 269.671 123.972 269.09 119.111ZM93.266 160.143C93.9256 159.877 93.3148 160.202 93.7396 161.465C94.1647 162.729 94.8768 163.591 94.7777 163.67C93.7396 163.308 92.7134 160.366 93.266 160.143ZM266.061 161.805C264.855 161.44 263.587 161.38 262.361 161.628C261.552 161.792 260.682 162.165 260.296 163.034C261.834 163.252 263.402 163.171 264.918 162.795C265.41 162.673 265.991 162.401 266.061 161.805ZM94.6517 159.192C95.0441 158.978 94.6692 160.547 95.1381 161.557C95.607 162.567 96.9959 162.988 96.4144 162.988C94.6518 162.987 93.8529 159.421 94.6517 159.192ZM253.95 159.756C253.404 159.521 252.782 159.549 252.253 159.833C251.939 160.218 252.397 160.912 252.843 160.85C253.29 160.787 253.607 160.316 253.873 159.881L253.95 159.756ZM268.715 158.766C267.352 159.199 266.004 159.703 264.676 160.275C266.055 161.189 268.013 160.458 268.715 158.766ZM97.5014 158.354C97.5238 157.925 98.0654 157.923 98.3793 158.13C98.7662 158.386 99.1189 158.783 99.2191 159.299C99.3193 159.816 99.0785 160.441 98.6459 160.549C98.3119 159.959 99.251 159.9 98.3793 158.936C97.993 158.509 97.4941 158.509 97.5014 158.354ZM288.743 108.291C285.756 108.082 282.88 109.748 280.474 111.883C278.068 114.018 275.988 116.643 273.587 118.785C279.374 118.927 285.087 121.765 289.264 126.574C288.234 127.107 287.152 126.181 286.258 125.311L286.077 125.132C282.336 121.438 277.35 119.616 272.529 120.181C278.106 121.077 283.775 123.301 287.737 128.096C287.33 128.802 286.419 128.271 285.864 127.73C282.39 124.347 278.116 122.161 273.677 121.497C272.98 121.393 272.235 121.335 271.611 121.721C270.986 122.107 270.572 123.098 270.926 123.825L274.764 131.705C275.025 132.241 275.207 133.098 274.73 133.336C266.292 137.536 259.588 146.465 256.982 156.971C258.558 157.24 260.027 158.316 260.949 159.873C261.568 160.92 262.87 159.939 263.82 159.346C264.985 158.618 266.362 158.63 267.641 158.271C270.681 157.417 273.043 154.488 274.639 151.268C276.235 148.048 277.235 144.455 278.676 141.132C281.967 133.546 287.629 127.482 294.284 124.42C293.516 123.23 292.507 122.138 291.268 121.904C290.029 121.67 288.586 122.623 288.463 124.12C287.893 123.12 288.21 121.562 289.1 120.989L283.822 118.994C287.156 117.96 290.575 119.975 293.548 122.061C297.387 124.755 301.116 127.676 304.716 130.81L305.486 131.485C308.774 134.39 312.332 137.628 316.412 137.446C320.967 137.242 324.533 132.874 327.583 128.81L338.719 113.974C337.755 112.305 335.775 111.832 334.152 112.404C332.528 112.976 331.206 114.385 330.064 115.883C328.291 118.208 326.811 120.844 324.971 123.092C323.131 125.34 320.813 127.236 318.199 127.531C313.587 128.05 309.749 123.683 306.228 120.072C302.737 116.492 298.918 113.372 294.863 110.788C292.944 109.566 290.911 108.443 288.743 108.291ZM90.3998 158.907C91.4295 158.699 92.3896 158.153 92.4711 158.296C93.0256 159.272 89.7003 159.758 88.5951 158.907C89.0207 158.808 89.7421 159.039 90.3998 158.907ZM252.02 157.963C252.994 158.734 254.379 158.659 255.29 157.785C255.59 157.498 255.759 156.79 255.384 156.697L252.02 157.963ZM245.82 144.881C244.824 144.82 243.806 144.817 242.858 145.186C241.851 145.578 240.985 146.366 240.188 147.201C238.239 149.244 236.561 151.661 235.24 154.33C237.721 153.846 240.363 154.69 242.314 156.592L242.503 156.778C242.695 156.961 242.896 157.132 243.13 157.207C243.443 157.308 243.839 157.172 243.952 156.807C244.521 154.958 246.183 153.684 247.821 153.84C249.458 153.996 250.931 155.569 251.25 157.503C251.532 157.81 251.918 157.291 252.043 156.86C252.784 154.305 253.257 151.638 253.446 148.943C253.493 148.262 253.513 147.527 253.208 146.949C252.836 146.244 252.096 145.981 251.416 145.798C249.577 145.303 247.702 144.996 245.82 144.881ZM88.723 150.834C89.2985 153.054 92.0907 154.581 91.6722 154.667C90.3486 154.94 88.723 152.824 88.723 150.834ZM94.1068 151.357C95.0031 151.107 95.9541 152.223 95.766 153.304C95.7323 153.497 95.6598 153.697 95.517 153.795C95.3297 153.924 95.1421 153.84 94.9828 153.662C94.8256 153.487 95.7093 153.38 95.2318 152.483C94.787 151.647 94.278 151.898 94.1068 151.357ZM89.931 148.988C90.1104 148.957 91.1097 152.415 92.6224 153.235C92.5743 153.777 91.8626 153.486 91.5668 153.072C90.7257 151.892 89.8329 150.535 89.931 148.988ZM270.561 119.118C270.191 119.76 270.139 120.648 270.432 121.345C271.017 120.783 271.505 120.075 271.856 119.28C271.454 119.127 271.024 119.085 270.607 119.157L270.561 119.118ZM328.324 89.0579C328.787 88.1673 329.899 88.3577 330.727 88.6966C333.268 89.7363 335.706 91.1384 337.972 92.8645C339.188 93.7914 338.225 96.2645 336.842 96.7493C335.459 97.2341 333.969 96.6704 332.538 96.8811C330.31 97.2096 328.553 99.3664 327.446 101.71C326.338 104.054 325.688 106.681 324.55 109.003C321.746 114.726 316.418 117.854 311.312 120.41C310.432 120.851 308.889 120.643 309.163 119.547C317.523 117.644 324.719 109.702 326.998 99.8645C327.267 98.7057 326.011 97.727 325.041 98.0335C324.164 98.3108 323.54 99.189 322.977 100.06L322.8 100.333C318.144 107.601 311.459 113.746 303.827 114.143C303.286 114.171 302.515 113.775 302.751 113.193C308.404 112.965 313.734 109.617 317.931 105.068C322.128 100.518 325.329 94.8157 328.324 89.0579ZM341.804 106.052C341.293 105.76 340.739 105.483 340.177 105.568C339.398 105.685 338.821 106.449 338.327 107.194L336.768 109.569C338.141 109.799 339.442 110.611 340.39 111.824L340.512 111.985C340.982 112.624 341.782 112.88 342.454 112.608C343.127 112.335 343.635 111.549 343.686 110.699C344.066 110.546 344.283 111.179 344.323 111.675L344.327 111.744C344.35 112.248 344.65 112.935 345.018 112.692C345.109 112.631 345.169 112.523 345.219 112.412L345.77 111.143C346.072 111.354 346.224 111.828 346.128 112.229L346.106 112.308C345.872 113.013 346.694 113.729 347.265 113.403C347.836 113.076 348.007 112.14 347.794 111.425C347.581 110.71 347.088 110.174 346.598 109.695C345.129 108.257 343.516 107.031 341.804 106.052ZM340.047 113.159C339.269 111.478 337.578 110.479 335.994 110.763L339.211 113.043C339.471 113.227 339.824 113.403 340.047 113.159ZM348.141 109.869C348.6 111.181 349.452 112.289 350.504 112.944C350.54 112.283 350.192 111.619 349.681 111.369L349.671 111.334C349.319 110.657 348.769 110.131 348.141 109.869ZM341.65 103.971C341.443 103.859 341.215 103.751 340.995 103.814C340.843 103.857 340.708 103.984 340.637 104.151L345.261 106.984C344.225 105.726 342.993 104.699 341.65 103.971ZM328.745 97.8616C328.026 96.774 326.801 96.206 325.659 96.4163L325.532 96.4427C326.362 97.4455 327.571 97.9793 328.745 97.8616ZM330.172 91.1389C329.578 90.9344 328.913 90.8205 328.435 91.263C328.25 91.4346 328.116 91.6726 327.995 91.9143L326.404 95.1331C327.238 95.3649 328.039 95.7753 328.755 96.3391C329.341 96.7998 330.148 96.8178 330.747 96.3831C331.346 95.9482 331.707 95.0824 331.639 94.2464C331.614 93.9345 332.04 93.8499 332.218 94.0794C332.396 94.3089 332.407 94.6527 332.474 94.9554C332.541 95.2581 332.748 95.5839 333.003 95.5218C333.263 95.2258 333.404 94.787 333.379 94.3587C333.472 93.9168 334.047 94.3109 334.136 94.7542C334.225 95.1975 334.392 95.8282 334.759 95.7102C335.299 95.5502 335.468 94.6485 335.205 94.0608C334.943 93.4733 334.414 93.141 333.91 92.8606C332.76 92.2212 331.576 91.6688 330.368 91.2093L330.172 91.1389Z" fill="#00160A"/>
<path fill-rule="evenodd" clip-rule="evenodd" d="M92.1306 157.275C92.2063 156.688 92.8585 156.349 93.3299 156.55C93.8013 156.752 94.2222 157.563 93.8768 158.022C93.3299 158.748 91.9839 158.415 92.1306 157.275Z" fill="#FFB61D"/>
<path fill-rule="evenodd" clip-rule="evenodd" d="M297.335 309.365C297.027 309.676 296.408 309.788 296.351 309.31C297.554 307.842 298.381 305.936 298.695 303.912C299.088 303.786 299.201 304.536 299.103 305.01C298.771 306.604 298.384 308.309 297.335 309.365Z" fill="#00160A"/>
<path d="M31.813 134.415C31.8008 134.888 31.2024 134.861 30.8405 134.672C30.9708 134.249 31.4988 134.108 31.7663 134.424L31.813 134.415Z" fill="black"/>
<path fill-rule="evenodd" clip-rule="evenodd" d="M202.568 264.461C202.151 264.906 201.45 264.226 201.511 263.56C201.573 262.894 202.065 262.418 202.536 262.06C204.226 260.775 206.182 260.001 208.177 259.828C208.23 260.741 207.244 261.118 206.496 261.294C204.908 261.665 203.395 262.491 202.118 263.683C202.349 263.852 202.516 264.142 202.568 264.461V264.461Z" fill="#00160A"/>
<path fill-rule="evenodd" clip-rule="evenodd" d="M208.233 265.625C207.297 266.167 206.345 266.668 205.378 267.126C205.488 267.616 206.074 267.6 206.471 267.427C206.869 267.255 207.391 267.074 207.649 267.476C206.995 268.673 205.376 268.86 204.544 267.834C204.183 267.388 203.529 267.681 203.062 267.411C202.394 267.024 202.518 265.813 202.911 265.058C203.733 263.482 205.299 262.51 206.845 262.617C207.434 262.657 208.137 263.006 208.177 263.713C206.33 263.573 204.447 264.487 203.2 266.128C203.908 266.786 204.924 266.295 205.723 265.809C206.522 265.323 207.577 264.894 208.233 265.625Z" fill="#00160A"/>
<path fill-rule="evenodd" clip-rule="evenodd" d="M109.913 271.912C110.443 272.549 110.663 272.84 110.663 273.776C110.663 274.712 110.24 275.313 109.526 275.588C109.196 275.715 108.741 275.618 108.655 275.216C111.035 274.632 110.16 273.387 109.913 271.912Z" fill="#00160A"/>
<path fill-rule="evenodd" clip-rule="evenodd" d="M106.738 267.93C106.992 266.92 108.096 266.374 108.869 266.876C109.175 267.075 109.43 267.437 109.445 267.854C108.543 267.879 107.8 267.179 106.738 267.93Z" fill="#00160A"/>
<path fill-rule="evenodd" clip-rule="evenodd" d="M108.898 276.954C107.805 277.898 103.864 273.6 108.898 276.954V276.954Z" fill="#00160A"/>
</svg>
